<svg width="374" height="79" viewBox="0 0 374 79" fill="none" xmlns="http://www.w3.org/2000/svg">
<g filter="url(#filter0_d_6120_1934)">
<mask id="path-1-inside-1_6120_1934" fill="white">
<path fill-rule="evenodd" clip-rule="evenodd" d="M4.93885 9.85349C2.93116 6.35872 5.45391 2 9.48433 2H365.185C368.08 2 370.427 4.347 370.427 7.24218V69.7578C370.427 72.653 368.08 75 365.185 75H9.48434C5.45392 75 2.93115 70.6413 4.93885 67.1465L19.8957 41.1113C20.8246 39.4944 20.8246 37.5056 19.8957 35.8887L4.93885 9.85349Z"/>
</mask>
<path fill-rule="evenodd" clip-rule="evenodd" d="M4.93885 9.85349C2.93116 6.35872 5.45391 2 9.48433 2H365.185C368.08 2 370.427 4.347 370.427 7.24218V69.7578C370.427 72.653 368.08 75 365.185 75H9.48434C5.45392 75 2.93115 70.6413 4.93885 67.1465L19.8957 41.1113C20.8246 39.4944 20.8246 37.5056 19.8957 35.8887L4.93885 9.85349Z" fill="white"/>
<path d="M19.8957 41.1113L21.0321 41.7641L19.8957 41.1113ZM19.8957 35.8887L18.7593 36.5415L19.8957 35.8887ZM365.185 0.689455H9.48433V3.31054H365.185V0.689455ZM371.738 69.7578V7.24218H369.117V69.7578H371.738ZM9.48434 76.3105H365.185V73.6895H9.48434V76.3105ZM18.7593 40.4585L3.80248 66.4937L6.07522 67.7993L21.0321 41.7641L18.7593 40.4585ZM18.7593 36.5415C19.456 37.7542 19.456 39.2458 18.7593 40.4585L21.0321 41.7641C22.1932 39.7429 22.1932 37.2571 21.0321 35.2359L18.7593 36.5415ZM3.80248 10.5063L18.7593 36.5415L21.0321 35.2359L6.07523 9.20067L3.80248 10.5063ZM9.48434 73.6895C6.46152 73.6895 4.56945 70.4204 6.07522 67.7993L3.80248 66.4937C1.29286 70.8622 4.44632 76.3105 9.48434 76.3105V73.6895ZM369.117 69.7578C369.117 71.9292 367.356 73.6895 365.185 73.6895V76.3105C368.804 76.3105 371.738 73.3768 371.738 69.7578H369.117ZM9.48433 0.689455C4.44631 0.689455 1.29286 6.13786 3.80248 10.5063L6.07523 9.20067C4.56945 6.57958 6.46152 3.31054 9.48433 3.31054V0.689455ZM365.185 3.31054C367.356 3.31054 369.117 5.0708 369.117 7.24218H371.738C371.738 3.62321 368.804 0.689455 365.185 0.689455V3.31054Z" fill="#017849" mask="url(#path-1-inside-1_6120_1934)"/>
</g>
<path d="M49.6363 32.238C50.8843 32.238 52.0183 32.52 53.0383 33.084C54.0703 33.648 54.8803 34.422 55.4683 35.406C56.0563 36.39 56.3503 37.482 56.3503 38.682C56.3503 39.882 56.0563 40.98 55.4683 41.976C54.8803 42.96 54.0703 43.74 53.0383 44.316C52.0183 44.892 50.8843 45.18 49.6363 45.18C48.3883 45.18 47.2483 44.892 46.2163 44.316C45.1963 43.74 44.3923 42.96 43.8043 41.976C43.2163 40.98 42.9223 39.882 42.9223 38.682C42.9223 37.482 43.2163 36.39 43.8043 35.406C44.3923 34.422 45.1963 33.648 46.2163 33.084C47.2483 32.52 48.3883 32.238 49.6363 32.238ZM49.6723 34.398C48.9043 34.398 48.1903 34.59 47.5303 34.974C46.8703 35.346 46.3483 35.862 45.9643 36.522C45.5803 37.17 45.3883 37.89 45.3883 38.682C45.3883 39.474 45.5803 40.2 45.9643 40.86C46.3603 41.52 46.8823 42.042 47.5303 42.426C48.1903 42.81 48.9043 43.002 49.6723 43.002C50.4283 43.002 51.1303 42.81 51.7783 42.426C52.4263 42.042 52.9363 41.52 53.3083 40.86C53.6923 40.2 53.8843 39.474 53.8843 38.682C53.8843 37.89 53.6923 37.17 53.3083 36.522C52.9363 35.862 52.4263 35.346 51.7783 34.974C51.1303 34.59 50.4283 34.398 49.6723 34.398ZM64.0469 35.298C64.9469 35.298 65.7389 35.508 66.4229 35.928C67.1189 36.336 67.6529 36.912 68.0249 37.656C68.4089 38.4 68.6009 39.258 68.6009 40.23C68.6009 41.19 68.4149 42.036 68.0429 42.768C67.6709 43.5 67.1429 44.07 66.4589 44.478C65.7749 44.886 64.9829 45.09 64.0829 45.09C63.3629 45.09 62.7269 44.952 62.1749 44.676C61.6229 44.388 61.1669 43.974 60.8069 43.434V45H58.4669V31.644H60.8069V36.954C61.1549 36.414 61.5989 36.006 62.1389 35.73C62.6909 35.442 63.3269 35.298 64.0469 35.298ZM63.5249 43.074C64.3169 43.074 64.9649 42.804 65.4689 42.264C65.9729 41.712 66.2249 41.01 66.2249 40.158C66.2249 39.306 65.9729 38.61 65.4689 38.07C64.9649 37.53 64.3169 37.26 63.5249 37.26C62.7209 37.26 62.0669 37.53 61.5629 38.07C61.0589 38.61 60.8069 39.306 60.8069 40.158C60.8069 41.022 61.0589 41.724 61.5629 42.264C62.0669 42.804 62.7209 43.074 63.5249 43.074ZM76.3349 37.98C75.8669 37.704 75.3809 37.488 74.8769 37.332C74.3849 37.176 73.9289 37.098 73.5089 37.098C73.1129 37.098 72.7949 37.17 72.5549 37.314C72.3269 37.446 72.2129 37.656 72.2129 37.944C72.2129 38.244 72.3569 38.478 72.6449 38.646C72.9449 38.802 73.4129 38.97 74.0489 39.15C74.7209 39.354 75.2729 39.558 75.7049 39.762C76.1369 39.954 76.5089 40.248 76.8209 40.644C77.1449 41.028 77.3069 41.538 77.3069 42.174C77.3069 43.11 76.9469 43.83 76.2269 44.334C75.5069 44.838 74.6009 45.09 73.5089 45.09C72.7649 45.09 72.0389 44.976 71.3309 44.748C70.6229 44.508 70.0229 44.172 69.5309 43.74L70.3409 42.102C70.7729 42.474 71.2889 42.768 71.8889 42.984C72.4889 43.188 73.0589 43.29 73.5989 43.29C74.0309 43.29 74.3729 43.218 74.6249 43.074C74.8889 42.918 75.0209 42.69 75.0209 42.39C75.0209 42.054 74.8709 41.802 74.5709 41.634C74.2709 41.466 73.7849 41.28 73.1129 41.076C72.4649 40.884 71.9369 40.698 71.5289 40.518C71.1209 40.326 70.7669 40.044 70.4669 39.672C70.1669 39.288 70.0169 38.79 70.0169 38.178C70.0169 37.23 70.3589 36.51 71.0429 36.018C71.7389 35.514 72.6089 35.262 73.6529 35.262C74.2889 35.262 74.9129 35.352 75.5249 35.532C76.1489 35.712 76.7009 35.964 77.1809 36.288L76.3349 37.98ZM83.3265 35.298C84.8625 35.298 86.0145 35.736 86.7825 36.612C87.5625 37.488 87.9525 38.718 87.9525 40.302C87.9525 40.614 87.9465 40.848 87.9345 41.004H80.8245C80.9805 41.688 81.2985 42.228 81.7785 42.624C82.2705 43.008 82.8705 43.2 83.5785 43.2C84.0705 43.2 84.5385 43.11 84.9825 42.93C85.4385 42.738 85.8345 42.468 86.1705 42.12L87.4305 43.434C86.9505 43.962 86.3625 44.37 85.6665 44.658C84.9825 44.946 84.2205 45.09 83.3805 45.09C82.3965 45.09 81.5265 44.886 80.7705 44.478C80.0265 44.07 79.4505 43.5 79.0425 42.768C78.6345 42.024 78.4305 41.172 78.4305 40.212C78.4305 39.252 78.6345 38.4 79.0425 37.656C79.4625 36.912 80.0445 36.336 80.7885 35.928C81.5325 35.508 82.3785 35.298 83.3265 35.298ZM85.8105 39.438C85.7865 38.73 85.5525 38.166 85.1085 37.746C84.6645 37.326 84.0765 37.116 83.3445 37.116C82.6605 37.116 82.0845 37.326 81.6165 37.746C81.1605 38.154 80.8785 38.718 80.7705 39.438H85.8105ZM92.3048 37.224C92.6288 36.6 93.0668 36.126 93.6188 35.802C94.1828 35.466 94.8368 35.292 95.5808 35.28V37.548C94.5848 37.488 93.7868 37.722 93.1868 38.25C92.5988 38.766 92.3048 39.468 92.3048 40.356V45H89.9648V35.37H92.3048V37.224ZM96.2056 35.388L98.6536 35.37L101.174 42.696L103.64 35.37H105.998L102.326 45H99.9136L96.2056 35.388ZM112.774 45V43.83C112.438 44.25 112.006 44.568 111.478 44.784C110.95 45 110.344 45.108 109.66 45.108C108.988 45.108 108.394 44.982 107.878 44.73C107.374 44.466 106.984 44.106 106.708 43.65C106.432 43.194 106.294 42.684 106.294 42.12C106.294 41.22 106.612 40.518 107.248 40.014C107.884 39.498 108.784 39.234 109.948 39.222H112.756V38.97C112.756 38.406 112.57 37.968 112.198 37.656C111.826 37.344 111.286 37.188 110.578 37.188C109.666 37.188 108.712 37.488 107.716 38.088L106.87 36.468C107.626 36.048 108.31 35.748 108.922 35.568C109.546 35.376 110.272 35.28 111.1 35.28C112.348 35.28 113.314 35.58 113.998 36.18C114.694 36.78 115.048 37.62 115.06 38.7L115.078 45H112.774ZM110.218 43.308C110.89 43.308 111.466 43.152 111.946 42.84C112.426 42.516 112.696 42.12 112.756 41.652V40.788H110.326C109.702 40.788 109.24 40.884 108.94 41.076C108.652 41.256 108.508 41.556 108.508 41.976C108.508 42.384 108.658 42.708 108.958 42.948C109.27 43.188 109.69 43.308 110.218 43.308ZM125.857 43.146C125.485 43.686 125.005 44.118 124.417 44.442C123.829 44.766 123.157 44.97 122.401 45.054L122.059 45.954C122.563 46.038 122.935 46.206 123.175 46.458C123.415 46.722 123.535 47.034 123.535 47.394C123.535 47.922 123.331 48.324 122.923 48.6C122.527 48.888 122.017 49.032 121.393 49.032C120.805 49.032 120.205 48.906 119.593 48.654L120.025 47.394C120.397 47.526 120.739 47.592 121.051 47.592C121.279 47.592 121.459 47.55 121.591 47.466C121.723 47.382 121.789 47.28 121.789 47.16C121.789 47.028 121.711 46.92 121.555 46.836C121.399 46.752 121.177 46.71 120.889 46.71H120.349L120.907 45.036C120.091 44.928 119.371 44.658 118.747 44.226C118.135 43.794 117.661 43.236 117.325 42.552C116.989 41.856 116.821 41.076 116.821 40.212C116.821 39.24 117.025 38.382 117.433 37.638C117.853 36.894 118.429 36.318 119.161 35.91C119.905 35.502 120.757 35.298 121.717 35.298C122.593 35.298 123.373 35.454 124.057 35.766C124.753 36.066 125.317 36.498 125.749 37.062L124.327 38.412C123.679 37.704 122.839 37.35 121.807 37.35C121.027 37.35 120.391 37.614 119.899 38.142C119.419 38.67 119.179 39.354 119.179 40.194C119.179 41.058 119.419 41.754 119.899 42.282C120.391 42.81 121.027 43.074 121.807 43.074C122.959 43.074 123.823 42.696 124.399 41.94L125.857 43.146ZM133.217 45V43.83C132.881 44.25 132.449 44.568 131.921 44.784C131.393 45 130.787 45.108 130.103 45.108C129.431 45.108 128.837 44.982 128.321 44.73C127.817 44.466 127.427 44.106 127.151 43.65C126.875 43.194 126.737 42.684 126.737 42.12C126.737 41.22 127.055 40.518 127.691 40.014C128.327 39.498 129.227 39.234 130.391 39.222H133.199V38.97C133.199 38.406 133.013 37.968 132.641 37.656C132.269 37.344 131.729 37.188 131.021 37.188C130.109 37.188 129.155 37.488 128.159 38.088L127.313 36.468C128.069 36.048 128.753 35.748 129.365 35.568C129.989 35.376 130.715 35.28 131.543 35.28C132.791 35.28 133.757 35.58 134.441 36.18C135.137 36.78 135.491 37.62 135.503 38.7L135.521 45H133.217ZM130.661 43.308C131.333 43.308 131.909 43.152 132.389 42.84C132.869 42.516 133.139 42.12 133.199 41.652V40.788H130.769C130.145 40.788 129.683 40.884 129.383 41.076C129.095 41.256 128.951 41.556 128.951 41.976C128.951 42.384 129.101 42.708 129.401 42.948C129.713 43.188 130.133 43.308 130.661 43.308ZM134.351 31.644C134.351 33.324 133.823 34.164 132.767 34.164C132.503 34.164 132.245 34.116 131.993 34.02C131.753 33.924 131.483 33.792 131.183 33.624C130.799 33.408 130.529 33.3 130.373 33.3C130.193 33.3 130.067 33.372 129.995 33.516C129.923 33.648 129.887 33.846 129.887 34.11H128.393C128.393 32.418 128.915 31.572 129.959 31.572C130.223 31.572 130.475 31.62 130.715 31.716C130.967 31.812 131.243 31.944 131.543 32.112C131.927 32.328 132.197 32.436 132.353 32.436C132.533 32.436 132.659 32.37 132.731 32.238C132.803 32.094 132.839 31.896 132.839 31.644H134.351ZM142.358 35.298C143.354 35.298 144.23 35.502 144.986 35.91C145.754 36.318 146.348 36.894 146.768 37.638C147.2 38.37 147.416 39.216 147.416 40.176C147.416 41.148 147.2 42.006 146.768 42.75C146.348 43.494 145.754 44.07 144.986 44.478C144.23 44.886 143.354 45.09 142.358 45.09C141.35 45.09 140.462 44.886 139.694 44.478C138.926 44.07 138.326 43.494 137.894 42.75C137.474 42.006 137.264 41.148 137.264 40.176C137.264 39.216 137.474 38.37 137.894 37.638C138.326 36.894 138.926 36.318 139.694 35.91C140.462 35.502 141.35 35.298 142.358 35.298ZM142.358 37.296C141.542 37.296 140.882 37.566 140.378 38.106C139.874 38.646 139.622 39.348 139.622 40.212C139.622 41.076 139.874 41.778 140.378 42.318C140.882 42.858 141.542 43.128 142.358 43.128C143.15 43.128 143.798 42.858 144.302 42.318C144.806 41.778 145.058 41.076 145.058 40.212C145.058 39.348 144.806 38.646 144.302 38.106C143.798 37.566 143.15 37.296 142.358 37.296ZM163.077 36.036C162.633 35.52 162.105 35.118 161.493 34.83C160.893 34.542 160.281 34.398 159.657 34.398C158.877 34.398 158.163 34.584 157.515 34.956C156.867 35.328 156.357 35.844 155.985 36.504C155.613 37.152 155.427 37.866 155.427 38.646C155.427 39.426 155.613 40.146 155.985 40.806C156.357 41.454 156.867 41.97 157.515 42.354C158.163 42.726 158.877 42.912 159.657 42.912C160.257 42.912 160.857 42.78 161.457 42.516C162.069 42.252 162.609 41.886 163.077 41.418L164.499 43.002C163.839 43.674 163.071 44.208 162.195 44.604C161.319 44.988 160.431 45.18 159.531 45.18C158.319 45.18 157.209 44.892 156.201 44.316C155.193 43.74 154.401 42.96 153.825 41.976C153.249 40.98 152.961 39.882 152.961 38.682C152.961 37.482 153.255 36.39 153.843 35.406C154.431 34.422 155.229 33.648 156.237 33.084C157.257 32.52 158.385 32.238 159.621 32.238C160.521 32.238 161.403 32.418 162.267 32.778C163.131 33.138 163.869 33.636 164.481 34.272L163.077 36.036ZM170.36 35.298C171.356 35.298 172.232 35.502 172.988 35.91C173.756 36.318 174.35 36.894 174.77 37.638C175.202 38.37 175.418 39.216 175.418 40.176C175.418 41.148 175.202 42.006 174.77 42.75C174.35 43.494 173.756 44.07 172.988 44.478C172.232 44.886 171.356 45.09 170.36 45.09C169.352 45.09 168.464 44.886 167.696 44.478C166.928 44.07 166.328 43.494 165.896 42.75C165.476 42.006 165.266 41.148 165.266 40.176C165.266 39.216 165.476 38.37 165.896 37.638C166.328 36.894 166.928 36.318 167.696 35.91C168.464 35.502 169.352 35.298 170.36 35.298ZM170.36 37.296C169.544 37.296 168.884 37.566 168.38 38.106C167.876 38.646 167.624 39.348 167.624 40.212C167.624 41.076 167.876 41.778 168.38 42.318C168.884 42.858 169.544 43.128 170.36 43.128C171.152 43.128 171.8 42.858 172.304 42.318C172.808 41.778 173.06 41.076 173.06 40.212C173.06 39.348 172.808 38.646 172.304 38.106C171.8 37.566 171.152 37.296 170.36 37.296ZM190.069 35.28C191.161 35.28 192.019 35.616 192.643 36.288C193.267 36.948 193.579 37.848 193.579 38.988V45H191.221V39.672C191.221 38.988 191.029 38.454 190.645 38.07C190.273 37.674 189.763 37.476 189.115 37.476C188.371 37.5 187.777 37.77 187.333 38.286C186.901 38.802 186.685 39.456 186.685 40.248V45H184.327V39.672C184.327 38.988 184.141 38.454 183.769 38.07C183.397 37.674 182.887 37.476 182.239 37.476C181.483 37.5 180.883 37.77 180.439 38.286C180.007 38.802 179.791 39.456 179.791 40.248V45H177.451V35.37H179.791V37.152C180.427 35.928 181.555 35.304 183.175 35.28C184.015 35.28 184.717 35.484 185.281 35.892C185.857 36.288 186.259 36.852 186.487 37.584C187.099 36.072 188.293 35.304 190.069 35.28ZM201.859 35.298C202.759 35.298 203.551 35.508 204.235 35.928C204.931 36.336 205.465 36.912 205.837 37.656C206.221 38.4 206.413 39.258 206.413 40.23C206.413 41.19 206.227 42.036 205.855 42.768C205.483 43.5 204.955 44.07 204.271 44.478C203.587 44.886 202.795 45.09 201.895 45.09C201.175 45.09 200.539 44.952 199.987 44.676C199.435 44.388 198.979 43.974 198.619 43.434V48.492H196.279V35.37H198.619V36.954C198.967 36.414 199.411 36.006 199.951 35.73C200.503 35.442 201.139 35.298 201.859 35.298ZM201.337 43.074C202.129 43.074 202.777 42.804 203.281 42.264C203.785 41.712 204.037 41.01 204.037 40.158C204.037 39.306 203.785 38.61 203.281 38.07C202.777 37.53 202.129 37.26 201.337 37.26C200.533 37.26 199.879 37.53 199.375 38.07C198.871 38.61 198.619 39.306 198.619 40.158C198.619 41.022 198.871 41.724 199.375 42.264C199.879 42.804 200.533 43.074 201.337 43.074ZM212.653 35.298C213.649 35.298 214.525 35.502 215.281 35.91C216.049 36.318 216.643 36.894 217.063 37.638C217.495 38.37 217.711 39.216 217.711 40.176C217.711 41.148 217.495 42.006 217.063 42.75C216.643 43.494 216.049 44.07 215.281 44.478C214.525 44.886 213.649 45.09 212.653 45.09C211.645 45.09 210.757 44.886 209.989 44.478C209.221 44.07 208.621 43.494 208.189 42.75C207.769 42.006 207.559 41.148 207.559 40.176C207.559 39.216 207.769 38.37 208.189 37.638C208.621 36.894 209.221 36.318 209.989 35.91C210.757 35.502 211.645 35.298 212.653 35.298ZM212.653 37.296C211.837 37.296 211.177 37.566 210.673 38.106C210.169 38.646 209.917 39.348 209.917 40.212C209.917 41.076 210.169 41.778 210.673 42.318C211.177 42.858 211.837 43.128 212.653 43.128C213.445 43.128 214.093 42.858 214.597 42.318C215.101 41.778 215.353 41.076 215.353 40.212C215.353 39.348 215.101 38.646 214.597 38.106C214.093 37.566 213.445 37.296 212.653 37.296ZM222.084 37.224C222.408 36.6 222.846 36.126 223.398 35.802C223.962 35.466 224.616 35.292 225.36 35.28V37.548C224.364 37.488 223.566 37.722 222.966 38.25C222.378 38.766 222.084 39.468 222.084 40.356V45H219.744V35.37H222.084V37.224ZM232.638 44.406C231.87 44.874 231.066 45.108 230.226 45.108C229.398 45.108 228.72 44.868 228.192 44.388C227.664 43.896 227.4 43.176 227.4 42.228V37.476H226.05L226.032 35.766H227.4V33.12H229.722V35.766H232.476V37.476H229.722V41.814C229.722 42.258 229.806 42.576 229.974 42.768C230.142 42.948 230.394 43.038 230.73 43.038C231.09 43.038 231.546 42.906 232.098 42.642L232.638 44.406ZM240.163 45V43.83C239.827 44.25 239.395 44.568 238.867 44.784C238.339 45 237.733 45.108 237.049 45.108C236.377 45.108 235.783 44.982 235.267 44.73C234.763 44.466 234.373 44.106 234.097 43.65C233.821 43.194 233.683 42.684 233.683 42.12C233.683 41.22 234.001 40.518 234.637 40.014C235.273 39.498 236.173 39.234 237.337 39.222H240.145V38.97C240.145 38.406 239.959 37.968 239.587 37.656C239.215 37.344 238.675 37.188 237.967 37.188C237.055 37.188 236.101 37.488 235.105 38.088L234.259 36.468C235.015 36.048 235.699 35.748 236.311 35.568C236.935 35.376 237.661 35.28 238.489 35.28C239.737 35.28 240.703 35.58 241.387 36.18C242.083 36.78 242.437 37.62 242.449 38.7L242.467 45H240.163ZM237.607 43.308C238.279 43.308 238.855 43.152 239.335 42.84C239.815 42.516 240.085 42.12 240.145 41.652V40.788H237.715C237.091 40.788 236.629 40.884 236.329 41.076C236.041 41.256 235.897 41.556 235.897 41.976C235.897 42.384 236.047 42.708 236.347 42.948C236.659 43.188 237.079 43.308 237.607 43.308ZM257.71 35.28C258.802 35.28 259.66 35.616 260.284 36.288C260.908 36.948 261.22 37.848 261.22 38.988V45H258.862V39.672C258.862 38.988 258.67 38.454 258.286 38.07C257.914 37.674 257.404 37.476 256.756 37.476C256.012 37.5 255.418 37.77 254.974 38.286C254.542 38.802 254.326 39.456 254.326 40.248V45H251.968V39.672C251.968 38.988 251.782 38.454 251.41 38.07C251.038 37.674 250.528 37.476 249.88 37.476C249.124 37.5 248.524 37.77 248.08 38.286C247.648 38.802 247.432 39.456 247.432 40.248V45H245.092V35.37H247.432V37.152C248.068 35.928 249.196 35.304 250.816 35.28C251.656 35.28 252.358 35.484 252.922 35.892C253.498 36.288 253.9 36.852 254.128 37.584C254.74 36.072 255.934 35.304 257.71 35.28ZM267.844 35.298C269.38 35.298 270.532 35.736 271.3 36.612C272.08 37.488 272.47 38.718 272.47 40.302C272.47 40.614 272.464 40.848 272.452 41.004H265.342C265.498 41.688 265.816 42.228 266.296 42.624C266.788 43.008 267.388 43.2 268.096 43.2C268.588 43.2 269.056 43.11 269.5 42.93C269.956 42.738 270.352 42.468 270.688 42.12L271.948 43.434C271.468 43.962 270.88 44.37 270.184 44.658C269.5 44.946 268.738 45.09 267.898 45.09C266.914 45.09 266.044 44.886 265.288 44.478C264.544 44.07 263.968 43.5 263.56 42.768C263.152 42.024 262.948 41.172 262.948 40.212C262.948 39.252 263.152 38.4 263.56 37.656C263.98 36.912 264.562 36.336 265.306 35.928C266.05 35.508 266.896 35.298 267.844 35.298ZM270.328 39.438C270.304 38.73 270.07 38.166 269.626 37.746C269.182 37.326 268.594 37.116 267.862 37.116C267.178 37.116 266.602 37.326 266.134 37.746C265.678 38.154 265.396 38.718 265.288 39.438H270.328ZM280.278 35.28C281.382 35.28 282.252 35.616 282.888 36.288C283.524 36.948 283.842 37.848 283.842 38.988V45H281.484V39.672C281.484 39 281.292 38.472 280.908 38.088C280.524 37.692 280.002 37.494 279.342 37.494C278.562 37.506 277.944 37.77 277.488 38.286C277.044 38.802 276.822 39.462 276.822 40.266V45H274.482V35.37H276.822V37.17C277.482 35.934 278.634 35.304 280.278 35.28ZM292.105 44.406C291.337 44.874 290.533 45.108 289.693 45.108C288.865 45.108 288.187 44.868 287.659 44.388C287.131 43.896 286.867 43.176 286.867 42.228V37.476H285.517L285.499 35.766H286.867V33.12H289.189V35.766H291.943V37.476H289.189V41.814C289.189 42.258 289.273 42.576 289.441 42.768C289.609 42.948 289.861 43.038 290.197 43.038C290.557 43.038 291.013 42.906 291.565 42.642L292.105 44.406ZM299.629 45V43.83C299.293 44.25 298.861 44.568 298.333 44.784C297.805 45 297.199 45.108 296.515 45.108C295.843 45.108 295.249 44.982 294.733 44.73C294.229 44.466 293.839 44.106 293.563 43.65C293.287 43.194 293.149 42.684 293.149 42.12C293.149 41.22 293.467 40.518 294.103 40.014C294.739 39.498 295.639 39.234 296.803 39.222H299.611V38.97C299.611 38.406 299.425 37.968 299.053 37.656C298.681 37.344 298.141 37.188 297.433 37.188C296.521 37.188 295.567 37.488 294.571 38.088L293.725 36.468C294.481 36.048 295.165 35.748 295.777 35.568C296.401 35.376 297.127 35.28 297.955 35.28C299.203 35.28 300.169 35.58 300.853 36.18C301.549 36.78 301.903 37.62 301.915 38.7L301.933 45H299.629ZM297.073 43.308C297.745 43.308 298.321 43.152 298.801 42.84C299.281 42.516 299.551 42.12 299.611 41.652V40.788H297.181C296.557 40.788 296.095 40.884 295.795 41.076C295.507 41.256 295.363 41.556 295.363 41.976C295.363 42.384 295.513 42.708 295.813 42.948C296.125 43.188 296.545 43.308 297.073 43.308ZM304.649 31.644H306.989V45H304.649V31.644Z" fill="#017849"/>
<defs>
<filter id="filter0_d_6120_1934" x="1.61329" y="0.689455" width="371.435" height="78.2422" filterUnits="userSpaceOnUse" color-interpolation-filters="sRGB">
<feFlood flood-opacity="0" result="BackgroundImageFix"/>
<feColorMatrix in="SourceAlpha" type="matrix" values="0 0 0 0 0 0 0 0 0 0 0 0 0 0 0 0 0 0 127 0" result="hardAlpha"/>
<feOffset dy="1.31054"/>
<feGaussianBlur stdDeviation="1.31054"/>
<feColorMatrix type="matrix" values="0 0 0 0 0.215686 0 0 0 0 0.254902 0 0 0 0 0.317647 0 0 0 0.08 0"/>
<feBlend mode="normal" in2="BackgroundImageFix" result="effect1_dropShadow_6120_1934"/>
<feBlend mode="normal" in="SourceGraphic" in2="effect1_dropShadow_6120_1934" result="shape"/>
</filter>
</defs>
</svg>
