<svg width="394" height="79" viewBox="0 0 394 79" fill="none" xmlns="http://www.w3.org/2000/svg">
<g filter="url(#filter0_d_6120_2003)">
<mask id="path-1-inside-1_6120_2003" fill="white">
<path fill-rule="evenodd" clip-rule="evenodd" d="M372.569 4.63087C371.634 3.00342 369.901 2 368.024 2H9.1152C5.08478 2 2.56201 6.35871 4.56971 9.85348L19.5265 35.8887C20.4555 37.5056 20.4555 39.4944 19.5265 41.1113L4.56971 67.1465C2.56202 70.6413 5.08477 75 9.11519 75H368.024C369.901 75 371.634 73.9966 372.569 72.3691L390.526 41.1113C391.455 39.4944 391.455 37.5056 390.526 35.8887L372.569 4.63087Z"/>
</mask>
<path fill-rule="evenodd" clip-rule="evenodd" d="M372.569 4.63087C371.634 3.00342 369.901 2 368.024 2H9.1152C5.08478 2 2.56201 6.35871 4.56971 9.85348L19.5265 35.8887C20.4555 37.5056 20.4555 39.4944 19.5265 41.1113L4.56971 67.1465C2.56202 70.6413 5.08477 75 9.11519 75H368.024C369.901 75 371.634 73.9966 372.569 72.3691L390.526 41.1113C391.455 39.4944 391.455 37.5056 390.526 35.8887L372.569 4.63087Z" fill="white"/>
<path d="M19.5265 35.8887L18.3902 36.5415L19.5265 35.8887ZM19.5265 41.1113L20.6629 41.7641H20.6629L19.5265 41.1113ZM390.526 41.1113L389.39 40.4585V40.4585L390.526 41.1113ZM390.526 35.8887L389.39 36.5415V36.5415L390.526 35.8887ZM4.56971 67.1465L3.43334 66.4937L4.56971 67.1465ZM372.569 4.63087L371.433 5.2837L372.569 4.63087ZM372.569 72.3691L371.433 71.7163L372.569 72.3691ZM4.56971 9.85348L3.43334 10.5063H3.43334L4.56971 9.85348ZM9.1152 3.31054H368.024V0.689455H9.1152V3.31054ZM20.6629 35.2359L5.70608 9.20066L3.43334 10.5063L18.3902 36.5415L20.6629 35.2359ZM20.6629 41.7641C21.8241 39.7429 21.8241 37.2571 20.6629 35.2359L18.3902 36.5415C19.0869 37.7542 19.0869 39.2458 18.3902 40.4585L20.6629 41.7641ZM5.70609 67.7993L20.6629 41.7641L18.3902 40.4585L3.43334 66.4937L5.70609 67.7993ZM368.024 73.6895H9.11519V76.3105H368.024V73.6895ZM389.39 40.4585L371.433 71.7163L373.706 73.022L391.663 41.7641L389.39 40.4585ZM389.39 36.5415C390.087 37.7542 390.087 39.2458 389.39 40.4585L391.663 41.7641C392.824 39.7429 392.824 37.2571 391.663 35.2359L389.39 36.5415ZM371.433 5.2837L389.39 36.5415L391.663 35.2359L373.706 3.97804L371.433 5.2837ZM3.43334 66.4937C0.923724 70.8621 4.07717 76.3105 9.11519 76.3105V73.6895C6.09238 73.6895 4.20031 70.4204 5.70609 67.7993L3.43334 66.4937ZM368.024 3.31054C369.432 3.31054 370.732 4.06311 371.433 5.2837L373.706 3.97804C372.537 1.94374 370.37 0.689455 368.024 0.689455V3.31054ZM368.024 76.3105C370.37 76.3105 372.537 75.0563 373.706 73.022L371.433 71.7163C370.732 72.9369 369.432 73.6895 368.024 73.6895V76.3105ZM9.1152 0.689455C4.07718 0.689455 0.923714 6.13784 3.43334 10.5063L5.70608 9.20066C4.20031 6.57958 6.09238 3.31054 9.1152 3.31054V0.689455Z" fill="#00995D" mask="url(#path-1-inside-1_6120_2003)"/>
</g>
<path d="M52.8676 45L51.7516 42.336H45.5956L44.4796 45H41.9776L47.5036 32.4H50.0056L55.4596 45H52.8676ZM46.4596 40.266H50.8876L48.6916 34.974L46.4596 40.266ZM62.5709 35.298C63.4709 35.298 64.2629 35.508 64.9469 35.928C65.6429 36.336 66.1769 36.912 66.5489 37.656C66.9329 38.4 67.1249 39.258 67.1249 40.23C67.1249 41.19 66.9389 42.036 66.5669 42.768C66.1949 43.5 65.6669 44.07 64.9829 44.478C64.2989 44.886 63.5069 45.09 62.6069 45.09C61.8869 45.09 61.2509 44.952 60.6989 44.676C60.1469 44.388 59.6909 43.974 59.3309 43.434V48.492H56.9909V35.37H59.3309V36.954C59.6789 36.414 60.1229 36.006 60.6629 35.73C61.2149 35.442 61.8509 35.298 62.5709 35.298ZM62.0489 43.074C62.8409 43.074 63.4889 42.804 63.9929 42.264C64.4969 41.712 64.7489 41.01 64.7489 40.158C64.7489 39.306 64.4969 38.61 63.9929 38.07C63.4889 37.53 62.8409 37.26 62.0489 37.26C61.2449 37.26 60.5909 37.53 60.0869 38.07C59.5829 38.61 59.3309 39.306 59.3309 40.158C59.3309 41.022 59.5829 41.724 60.0869 42.264C60.5909 42.804 61.2449 43.074 62.0489 43.074ZM69.2428 31.644H71.5828V45H69.2428V31.644ZM74.5845 35.37H76.9245V45H74.5845V35.37ZM75.7365 31.23C76.1205 31.23 76.4385 31.362 76.6905 31.626C76.9425 31.89 77.0685 32.226 77.0685 32.634C77.0685 33.03 76.9425 33.36 76.6905 33.624C76.4385 33.888 76.1205 34.02 75.7365 34.02C75.3525 34.02 75.0345 33.888 74.7825 33.624C74.5305 33.36 74.4045 33.03 74.4045 32.634C74.4045 32.226 74.5305 31.89 74.7825 31.626C75.0345 31.362 75.3525 31.23 75.7365 31.23ZM86.4467 38.412C85.7987 37.704 84.9587 37.35 83.9267 37.35C83.1467 37.35 82.5107 37.614 82.0187 38.142C81.5387 38.67 81.2987 39.354 81.2987 40.194C81.2987 41.058 81.5387 41.754 82.0187 42.282C82.5107 42.81 83.1467 43.074 83.9267 43.074C85.0787 43.074 85.9427 42.696 86.5187 41.94L87.9767 43.146C87.5447 43.77 86.9747 44.25 86.2667 44.586C85.5587 44.922 84.7367 45.09 83.8007 45.09C82.8527 45.09 82.0067 44.886 81.2627 44.478C80.5307 44.07 79.9607 43.5 79.5527 42.768C79.1447 42.024 78.9407 41.172 78.9407 40.212C78.9407 39.24 79.1447 38.382 79.5527 37.638C79.9727 36.894 80.5487 36.318 81.2807 35.91C82.0247 35.502 82.8767 35.298 83.8367 35.298C84.7127 35.298 85.4927 35.454 86.1767 35.766C86.8727 36.066 87.4367 36.498 87.8687 37.062L86.4467 38.412ZM95.3369 45V43.83C95.0009 44.25 94.5689 44.568 94.0409 44.784C93.5129 45 92.9069 45.108 92.2229 45.108C91.5509 45.108 90.9569 44.982 90.4409 44.73C89.9369 44.466 89.5469 44.106 89.2709 43.65C88.9949 43.194 88.8569 42.684 88.8569 42.12C88.8569 41.22 89.1749 40.518 89.8109 40.014C90.4469 39.498 91.3469 39.234 92.5109 39.222H95.3189V38.97C95.3189 38.406 95.1329 37.968 94.7609 37.656C94.3889 37.344 93.8489 37.188 93.1409 37.188C92.2289 37.188 91.2749 37.488 90.2789 38.088L89.4329 36.468C90.1889 36.048 90.8729 35.748 91.4849 35.568C92.1089 35.376 92.8349 35.28 93.6629 35.28C94.9109 35.28 95.8769 35.58 96.5609 36.18C97.2569 36.78 97.6109 37.62 97.6229 38.7L97.6409 45H95.3369ZM92.7809 43.308C93.4529 43.308 94.0289 43.152 94.5089 42.84C94.9889 42.516 95.2589 42.12 95.3189 41.652V40.788H92.8889C92.2649 40.788 91.8029 40.884 91.5029 41.076C91.2149 41.256 91.0709 41.556 91.0709 41.976C91.0709 42.384 91.2209 42.708 91.5209 42.948C91.8329 43.188 92.2529 43.308 92.7809 43.308ZM108.42 43.146C108.048 43.686 107.568 44.118 106.98 44.442C106.392 44.766 105.72 44.97 104.964 45.054L104.622 45.954C105.126 46.038 105.498 46.206 105.738 46.458C105.978 46.722 106.098 47.034 106.098 47.394C106.098 47.922 105.894 48.324 105.486 48.6C105.09 48.888 104.58 49.032 103.956 49.032C103.368 49.032 102.768 48.906 102.156 48.654L102.588 47.394C102.96 47.526 103.302 47.592 103.614 47.592C103.842 47.592 104.022 47.55 104.154 47.466C104.286 47.382 104.352 47.28 104.352 47.16C104.352 47.028 104.274 46.92 104.118 46.836C103.962 46.752 103.74 46.71 103.452 46.71H102.912L103.47 45.036C102.654 44.928 101.934 44.658 101.31 44.226C100.698 43.794 100.224 43.236 99.8881 42.552C99.5521 41.856 99.3841 41.076 99.3841 40.212C99.3841 39.24 99.5881 38.382 99.9961 37.638C100.416 36.894 100.992 36.318 101.724 35.91C102.468 35.502 103.32 35.298 104.28 35.298C105.156 35.298 105.936 35.454 106.62 35.766C107.316 36.066 107.88 36.498 108.312 37.062L106.89 38.412C106.242 37.704 105.402 37.35 104.37 37.35C103.59 37.35 102.954 37.614 102.462 38.142C101.982 38.67 101.742 39.354 101.742 40.194C101.742 41.058 101.982 41.754 102.462 42.282C102.954 42.81 103.59 43.074 104.37 43.074C105.522 43.074 106.386 42.696 106.962 41.94L108.42 43.146ZM115.78 45V43.83C115.444 44.25 115.012 44.568 114.484 44.784C113.956 45 113.35 45.108 112.666 45.108C111.994 45.108 111.4 44.982 110.884 44.73C110.38 44.466 109.99 44.106 109.714 43.65C109.438 43.194 109.3 42.684 109.3 42.12C109.3 41.22 109.618 40.518 110.254 40.014C110.89 39.498 111.79 39.234 112.954 39.222H115.762V38.97C115.762 38.406 115.576 37.968 115.204 37.656C114.832 37.344 114.292 37.188 113.584 37.188C112.672 37.188 111.718 37.488 110.722 38.088L109.876 36.468C110.632 36.048 111.316 35.748 111.928 35.568C112.552 35.376 113.278 35.28 114.106 35.28C115.354 35.28 116.32 35.58 117.004 36.18C117.7 36.78 118.054 37.62 118.066 38.7L118.084 45H115.78ZM113.224 43.308C113.896 43.308 114.472 43.152 114.952 42.84C115.432 42.516 115.702 42.12 115.762 41.652V40.788H113.332C112.708 40.788 112.246 40.884 111.946 41.076C111.658 41.256 111.514 41.556 111.514 41.976C111.514 42.384 111.664 42.708 111.964 42.948C112.276 43.188 112.696 43.308 113.224 43.308ZM116.914 31.644C116.914 33.324 116.386 34.164 115.33 34.164C115.066 34.164 114.808 34.116 114.556 34.02C114.316 33.924 114.046 33.792 113.746 33.624C113.362 33.408 113.092 33.3 112.936 33.3C112.756 33.3 112.63 33.372 112.558 33.516C112.486 33.648 112.45 33.846 112.45 34.11H110.956C110.956 32.418 111.478 31.572 112.522 31.572C112.786 31.572 113.038 31.62 113.278 31.716C113.53 31.812 113.806 31.944 114.106 32.112C114.49 32.328 114.76 32.436 114.916 32.436C115.096 32.436 115.222 32.37 115.294 32.238C115.366 32.094 115.402 31.896 115.402 31.644H116.914ZM124.921 35.298C125.917 35.298 126.793 35.502 127.549 35.91C128.317 36.318 128.911 36.894 129.331 37.638C129.763 38.37 129.979 39.216 129.979 40.176C129.979 41.148 129.763 42.006 129.331 42.75C128.911 43.494 128.317 44.07 127.549 44.478C126.793 44.886 125.917 45.09 124.921 45.09C123.913 45.09 123.025 44.886 122.257 44.478C121.489 44.07 120.889 43.494 120.457 42.75C120.037 42.006 119.827 41.148 119.827 40.176C119.827 39.216 120.037 38.37 120.457 37.638C120.889 36.894 121.489 36.318 122.257 35.91C123.025 35.502 123.913 35.298 124.921 35.298ZM124.921 37.296C124.105 37.296 123.445 37.566 122.941 38.106C122.437 38.646 122.185 39.348 122.185 40.212C122.185 41.076 122.437 41.778 122.941 42.318C123.445 42.858 124.105 43.128 124.921 43.128C125.713 43.128 126.361 42.858 126.865 42.318C127.369 41.778 127.621 41.076 127.621 40.212C127.621 39.348 127.369 38.646 126.865 38.106C126.361 37.566 125.713 37.296 124.921 37.296ZM145.712 31.644V45H143.372V43.452C143.024 43.992 142.574 44.406 142.022 44.694C141.482 44.97 140.852 45.108 140.132 45.108C139.22 45.108 138.416 44.904 137.72 44.496C137.036 44.076 136.502 43.494 136.118 42.75C135.734 41.994 135.542 41.13 135.542 40.158C135.542 39.198 135.728 38.352 136.1 37.62C136.484 36.876 137.018 36.3 137.702 35.892C138.398 35.484 139.19 35.28 140.078 35.28C140.81 35.28 141.452 35.424 142.004 35.712C142.556 36 143.012 36.414 143.372 36.954V31.644H145.712ZM140.636 43.146C141.44 43.146 142.094 42.876 142.598 42.336C143.114 41.784 143.372 41.076 143.372 40.212C143.372 39.348 143.114 38.646 142.598 38.106C142.094 37.554 141.44 37.278 140.636 37.278C139.832 37.278 139.178 37.554 138.674 38.106C138.17 38.646 137.912 39.348 137.9 40.212C137.912 41.076 138.17 41.784 138.674 42.336C139.178 42.876 139.832 43.146 140.636 43.146ZM152.725 35.298C154.261 35.298 155.413 35.736 156.181 36.612C156.961 37.488 157.351 38.718 157.351 40.302C157.351 40.614 157.345 40.848 157.333 41.004H150.223C150.379 41.688 150.697 42.228 151.177 42.624C151.669 43.008 152.269 43.2 152.977 43.2C153.469 43.2 153.937 43.11 154.381 42.93C154.837 42.738 155.233 42.468 155.569 42.12L156.829 43.434C156.349 43.962 155.761 44.37 155.065 44.658C154.381 44.946 153.619 45.09 152.779 45.09C151.795 45.09 150.925 44.886 150.169 44.478C149.425 44.07 148.849 43.5 148.441 42.768C148.033 42.024 147.829 41.172 147.829 40.212C147.829 39.252 148.033 38.4 148.441 37.656C148.861 36.912 149.443 36.336 150.187 35.928C150.931 35.508 151.777 35.298 152.725 35.298ZM155.209 39.438C155.185 38.73 154.951 38.166 154.507 37.746C154.063 37.326 153.475 37.116 152.743 37.116C152.059 37.116 151.483 37.326 151.015 37.746C150.559 38.154 150.277 38.718 150.169 39.438H155.209ZM162.462 32.4H172.74V34.542H168.816V45H166.386V34.542H162.462V32.4ZM177.124 35.298C178.66 35.298 179.812 35.736 180.58 36.612C181.36 37.488 181.75 38.718 181.75 40.302C181.75 40.614 181.744 40.848 181.732 41.004H174.622C174.778 41.688 175.096 42.228 175.576 42.624C176.068 43.008 176.668 43.2 177.376 43.2C177.868 43.2 178.336 43.11 178.78 42.93C179.236 42.738 179.632 42.468 179.968 42.12L181.228 43.434C180.748 43.962 180.16 44.37 179.464 44.658C178.78 44.946 178.018 45.09 177.178 45.09C176.194 45.09 175.324 44.886 174.568 44.478C173.824 44.07 173.248 43.5 172.84 42.768C172.432 42.024 172.228 41.172 172.228 40.212C172.228 39.252 172.432 38.4 172.84 37.656C173.26 36.912 173.842 36.336 174.586 35.928C175.33 35.508 176.176 35.298 177.124 35.298ZM179.608 39.438C179.584 38.73 179.35 38.166 178.906 37.746C178.462 37.326 177.874 37.116 177.142 37.116C176.458 37.116 175.882 37.326 175.414 37.746C174.958 38.154 174.676 38.718 174.568 39.438H179.608ZM189.468 37.98C189 37.704 188.514 37.488 188.01 37.332C187.518 37.176 187.062 37.098 186.642 37.098C186.246 37.098 185.928 37.17 185.688 37.314C185.46 37.446 185.346 37.656 185.346 37.944C185.346 38.244 185.49 38.478 185.778 38.646C186.078 38.802 186.546 38.97 187.182 39.15C187.854 39.354 188.406 39.558 188.838 39.762C189.27 39.954 189.642 40.248 189.954 40.644C190.278 41.028 190.44 41.538 190.44 42.174C190.44 43.11 190.08 43.83 189.36 44.334C188.64 44.838 187.734 45.09 186.642 45.09C185.898 45.09 185.172 44.976 184.464 44.748C183.756 44.508 183.156 44.172 182.664 43.74L183.474 42.102C183.906 42.474 184.422 42.768 185.022 42.984C185.622 43.188 186.192 43.29 186.732 43.29C187.164 43.29 187.506 43.218 187.758 43.074C188.022 42.918 188.154 42.69 188.154 42.39C188.154 42.054 188.004 41.802 187.704 41.634C187.404 41.466 186.918 41.28 186.246 41.076C185.598 40.884 185.07 40.698 184.662 40.518C184.254 40.326 183.9 40.044 183.6 39.672C183.3 39.288 183.15 38.79 183.15 38.178C183.15 37.23 183.492 36.51 184.176 36.018C184.872 35.514 185.742 35.262 186.786 35.262C187.422 35.262 188.046 35.352 188.658 35.532C189.282 35.712 189.834 35.964 190.314 36.288L189.468 37.98ZM198.08 44.406C197.312 44.874 196.508 45.108 195.668 45.108C194.84 45.108 194.162 44.868 193.634 44.388C193.106 43.896 192.842 43.176 192.842 42.228V37.476H191.492L191.474 35.766H192.842V33.12H195.164V35.766H197.918V37.476H195.164V41.814C195.164 42.258 195.248 42.576 195.416 42.768C195.584 42.948 195.836 43.038 196.172 43.038C196.532 43.038 196.988 42.906 197.54 42.642L198.08 44.406ZM203.843 35.298C205.379 35.298 206.531 35.736 207.299 36.612C208.079 37.488 208.469 38.718 208.469 40.302C208.469 40.614 208.463 40.848 208.451 41.004H201.341C201.497 41.688 201.815 42.228 202.295 42.624C202.787 43.008 203.387 43.2 204.095 43.2C204.587 43.2 205.055 43.11 205.499 42.93C205.955 42.738 206.351 42.468 206.687 42.12L207.947 43.434C207.467 43.962 206.879 44.37 206.183 44.658C205.499 44.946 204.737 45.09 203.897 45.09C202.913 45.09 202.043 44.886 201.287 44.478C200.543 44.07 199.967 43.5 199.559 42.768C199.151 42.024 198.947 41.172 198.947 40.212C198.947 39.252 199.151 38.4 199.559 37.656C199.979 36.912 200.561 36.336 201.305 35.928C202.049 35.508 202.895 35.298 203.843 35.298ZM206.327 39.438C206.303 38.73 206.069 38.166 205.625 37.746C205.181 37.326 204.593 37.116 203.861 37.116C203.177 37.116 202.601 37.326 202.133 37.746C201.677 38.154 201.395 38.718 201.287 39.438H206.327Z" fill="#017849"/>
<defs>
<filter id="filter0_d_6120_2003" x="1.24415" y="0.689455" width="392.6" height="78.2422" filterUnits="userSpaceOnUse" color-interpolation-filters="sRGB">
<feFlood flood-opacity="0" result="BackgroundImageFix"/>
<feColorMatrix in="SourceAlpha" type="matrix" values="0 0 0 0 0 0 0 0 0 0 0 0 0 0 0 0 0 0 127 0" result="hardAlpha"/>
<feOffset dy="1.31054"/>
<feGaussianBlur stdDeviation="1.31054"/>
<feColorMatrix type="matrix" values="0 0 0 0 0.215686 0 0 0 0 0.254902 0 0 0 0 0.317647 0 0 0 0.08 0"/>
<feBlend mode="normal" in2="BackgroundImageFix" result="effect1_dropShadow_6120_2003"/>
<feBlend mode="normal" in="SourceGraphic" in2="effect1_dropShadow_6120_2003" result="shape"/>
</filter>
</defs>
</svg>
