<svg width="394" height="79" viewBox="0 0 394 79" fill="none" xmlns="http://www.w3.org/2000/svg">
<g filter="url(#filter0_d_6120_1918)">
<mask id="path-1-inside-1_6120_1918" fill="white">
<path fill-rule="evenodd" clip-rule="evenodd" d="M372.569 4.63087C371.634 3.00342 369.901 2 368.024 2H9.1152C5.08478 2 2.56201 6.35871 4.56971 9.85348L19.5265 35.8887C20.4555 37.5056 20.4555 39.4944 19.5265 41.1113L4.56971 67.1465C2.56202 70.6413 5.08477 75 9.11519 75H368.024C369.901 75 371.634 73.9966 372.569 72.3691L390.526 41.1113C391.455 39.4944 391.455 37.5056 390.526 35.8887L372.569 4.63087Z"/>
</mask>
<path fill-rule="evenodd" clip-rule="evenodd" d="M372.569 4.63087C371.634 3.00342 369.901 2 368.024 2H9.1152C5.08478 2 2.56201 6.35871 4.56971 9.85348L19.5265 35.8887C20.4555 37.5056 20.4555 39.4944 19.5265 41.1113L4.56971 67.1465C2.56202 70.6413 5.08477 75 9.11519 75H368.024C369.901 75 371.634 73.9966 372.569 72.3691L390.526 41.1113C391.455 39.4944 391.455 37.5056 390.526 35.8887L372.569 4.63087Z" fill="#00995D"/>
<path d="M19.5265 35.8887L18.3902 36.5415L19.5265 35.8887ZM19.5265 41.1113L20.6629 41.7641H20.6629L19.5265 41.1113ZM390.526 41.1113L389.39 40.4585V40.4585L390.526 41.1113ZM390.526 35.8887L389.39 36.5415V36.5415L390.526 35.8887ZM4.56971 67.1465L3.43334 66.4937L4.56971 67.1465ZM372.569 4.63087L371.433 5.2837L372.569 4.63087ZM372.569 72.3691L371.433 71.7163L372.569 72.3691ZM4.56971 9.85348L3.43334 10.5063H3.43334L4.56971 9.85348ZM9.1152 3.31054H368.024V0.689455H9.1152V3.31054ZM20.6629 35.2359L5.70608 9.20066L3.43334 10.5063L18.3902 36.5415L20.6629 35.2359ZM20.6629 41.7641C21.8241 39.7429 21.8241 37.2571 20.6629 35.2359L18.3902 36.5415C19.0869 37.7542 19.0869 39.2458 18.3902 40.4585L20.6629 41.7641ZM5.70609 67.7993L20.6629 41.7641L18.3902 40.4585L3.43334 66.4937L5.70609 67.7993ZM368.024 73.6895H9.11519V76.3105H368.024V73.6895ZM389.39 40.4585L371.433 71.7163L373.706 73.022L391.663 41.7641L389.39 40.4585ZM389.39 36.5415C390.087 37.7542 390.087 39.2458 389.39 40.4585L391.663 41.7641C392.824 39.7429 392.824 37.2571 391.663 35.2359L389.39 36.5415ZM371.433 5.2837L389.39 36.5415L391.663 35.2359L373.706 3.97804L371.433 5.2837ZM3.43334 66.4937C0.923724 70.8621 4.07717 76.3105 9.11519 76.3105V73.6895C6.09238 73.6895 4.20031 70.4204 5.70609 67.7993L3.43334 66.4937ZM368.024 3.31054C369.432 3.31054 370.732 4.06311 371.433 5.2837L373.706 3.97804C372.537 1.94374 370.37 0.689455 368.024 0.689455V3.31054ZM368.024 76.3105C370.37 76.3105 372.537 75.0563 373.706 73.022L371.433 71.7163C370.732 72.9369 369.432 73.6895 368.024 73.6895V76.3105ZM9.1152 0.689455C4.07718 0.689455 0.923714 6.13784 3.43334 10.5063L5.70608 9.20066C4.20031 6.57958 6.09238 3.31054 9.1152 3.31054V0.689455Z" fill="#00995D" mask="url(#path-1-inside-1_6120_1918)"/>
</g>
<path fill-rule="evenodd" clip-rule="evenodd" d="M58.2901 36.6055L53.7221 42.6055C53.5341 42.8525 53.2431 42.9985 52.9331 43.0005H52.9261C52.6191 43.0005 52.3291 42.8585 52.1391 42.6165L49.7071 39.5095C49.3671 39.0755 49.4431 38.4465 49.8781 38.1065C50.3121 37.7655 50.9421 37.8415 51.2821 38.2775L52.9151 40.3635L56.6991 35.3945C57.0331 34.9555 57.6601 34.8695 58.1011 35.2045C58.5401 35.5395 58.6251 36.1665 58.2901 36.6055ZM53.9951 29.0005C48.4721 29.0005 43.9951 33.4775 43.9951 39.0005C43.9951 44.5225 48.4721 49.0005 53.9951 49.0005C59.5181 49.0005 63.9951 44.5225 63.9951 39.0005C63.9951 33.4775 59.5181 29.0005 53.9951 29.0005Z" fill="#C5F2E0"/>
<path d="M84.8671 44L83.7511 41.336H77.5951L76.4791 44H73.9771L79.5031 31.4H82.0051L87.4591 44H84.8671ZM78.4591 39.266H82.8871L80.6911 33.974L78.4591 39.266ZM94.5704 34.298C95.4704 34.298 96.2624 34.508 96.9464 34.928C97.6424 35.336 98.1764 35.912 98.5484 36.656C98.9324 37.4 99.1244 38.258 99.1244 39.23C99.1244 40.19 98.9384 41.036 98.5664 41.768C98.1944 42.5 97.6664 43.07 96.9824 43.478C96.2984 43.886 95.5064 44.09 94.6064 44.09C93.8864 44.09 93.2504 43.952 92.6984 43.676C92.1464 43.388 91.6904 42.974 91.3304 42.434V47.492H88.9904V34.37H91.3304V35.954C91.6784 35.414 92.1224 35.006 92.6624 34.73C93.2144 34.442 93.8504 34.298 94.5704 34.298ZM94.0484 42.074C94.8404 42.074 95.4884 41.804 95.9924 41.264C96.4964 40.712 96.7484 40.01 96.7484 39.158C96.7484 38.306 96.4964 37.61 95.9924 37.07C95.4884 36.53 94.8404 36.26 94.0484 36.26C93.2444 36.26 92.5904 36.53 92.0864 37.07C91.5824 37.61 91.3304 38.306 91.3304 39.158C91.3304 40.022 91.5824 40.724 92.0864 41.264C92.5904 41.804 93.2444 42.074 94.0484 42.074ZM101.242 30.644H103.582V44H101.242V30.644ZM106.584 34.37H108.924V44H106.584V34.37ZM107.736 30.23C108.12 30.23 108.438 30.362 108.69 30.626C108.942 30.89 109.068 31.226 109.068 31.634C109.068 32.03 108.942 32.36 108.69 32.624C108.438 32.888 108.12 33.02 107.736 33.02C107.352 33.02 107.034 32.888 106.782 32.624C106.53 32.36 106.404 32.03 106.404 31.634C106.404 31.226 106.53 30.89 106.782 30.626C107.034 30.362 107.352 30.23 107.736 30.23ZM118.446 37.412C117.798 36.704 116.958 36.35 115.926 36.35C115.146 36.35 114.51 36.614 114.018 37.142C113.538 37.67 113.298 38.354 113.298 39.194C113.298 40.058 113.538 40.754 114.018 41.282C114.51 41.81 115.146 42.074 115.926 42.074C117.078 42.074 117.942 41.696 118.518 40.94L119.976 42.146C119.544 42.77 118.974 43.25 118.266 43.586C117.558 43.922 116.736 44.09 115.8 44.09C114.852 44.09 114.006 43.886 113.262 43.478C112.53 43.07 111.96 42.5 111.552 41.768C111.144 41.024 110.94 40.172 110.94 39.212C110.94 38.24 111.144 37.382 111.552 36.638C111.972 35.894 112.548 35.318 113.28 34.91C114.024 34.502 114.876 34.298 115.836 34.298C116.712 34.298 117.492 34.454 118.176 34.766C118.872 35.066 119.436 35.498 119.868 36.062L118.446 37.412ZM127.336 44V42.83C127 43.25 126.568 43.568 126.04 43.784C125.512 44 124.906 44.108 124.222 44.108C123.55 44.108 122.956 43.982 122.44 43.73C121.936 43.466 121.546 43.106 121.27 42.65C120.994 42.194 120.856 41.684 120.856 41.12C120.856 40.22 121.174 39.518 121.81 39.014C122.446 38.498 123.346 38.234 124.51 38.222H127.318V37.97C127.318 37.406 127.132 36.968 126.76 36.656C126.388 36.344 125.848 36.188 125.14 36.188C124.228 36.188 123.274 36.488 122.278 37.088L121.432 35.468C122.188 35.048 122.872 34.748 123.484 34.568C124.108 34.376 124.834 34.28 125.662 34.28C126.91 34.28 127.876 34.58 128.56 35.18C129.256 35.78 129.61 36.62 129.622 37.7L129.64 44H127.336ZM124.78 42.308C125.452 42.308 126.028 42.152 126.508 41.84C126.988 41.516 127.258 41.12 127.318 40.652V39.788H124.888C124.264 39.788 123.802 39.884 123.502 40.076C123.214 40.256 123.07 40.556 123.07 40.976C123.07 41.384 123.22 41.708 123.52 41.948C123.832 42.188 124.252 42.308 124.78 42.308ZM140.42 42.146C140.048 42.686 139.568 43.118 138.98 43.442C138.392 43.766 137.72 43.97 136.964 44.054L136.622 44.954C137.126 45.038 137.498 45.206 137.738 45.458C137.978 45.722 138.098 46.034 138.098 46.394C138.098 46.922 137.894 47.324 137.486 47.6C137.09 47.888 136.58 48.032 135.956 48.032C135.368 48.032 134.768 47.906 134.156 47.654L134.588 46.394C134.96 46.526 135.302 46.592 135.614 46.592C135.842 46.592 136.022 46.55 136.154 46.466C136.286 46.382 136.352 46.28 136.352 46.16C136.352 46.028 136.274 45.92 136.118 45.836C135.962 45.752 135.74 45.71 135.452 45.71H134.912L135.47 44.036C134.654 43.928 133.934 43.658 133.31 43.226C132.698 42.794 132.224 42.236 131.888 41.552C131.552 40.856 131.384 40.076 131.384 39.212C131.384 38.24 131.588 37.382 131.996 36.638C132.416 35.894 132.992 35.318 133.724 34.91C134.468 34.502 135.32 34.298 136.28 34.298C137.156 34.298 137.936 34.454 138.62 34.766C139.316 35.066 139.88 35.498 140.312 36.062L138.89 37.412C138.242 36.704 137.402 36.35 136.37 36.35C135.59 36.35 134.954 36.614 134.462 37.142C133.982 37.67 133.742 38.354 133.742 39.194C133.742 40.058 133.982 40.754 134.462 41.282C134.954 41.81 135.59 42.074 136.37 42.074C137.522 42.074 138.386 41.696 138.962 40.94L140.42 42.146ZM147.78 44V42.83C147.444 43.25 147.012 43.568 146.484 43.784C145.956 44 145.35 44.108 144.666 44.108C143.994 44.108 143.4 43.982 142.884 43.73C142.38 43.466 141.99 43.106 141.714 42.65C141.438 42.194 141.3 41.684 141.3 41.12C141.3 40.22 141.618 39.518 142.254 39.014C142.89 38.498 143.79 38.234 144.954 38.222H147.762V37.97C147.762 37.406 147.576 36.968 147.204 36.656C146.832 36.344 146.292 36.188 145.584 36.188C144.672 36.188 143.718 36.488 142.722 37.088L141.876 35.468C142.632 35.048 143.316 34.748 143.928 34.568C144.552 34.376 145.278 34.28 146.106 34.28C147.354 34.28 148.32 34.58 149.004 35.18C149.7 35.78 150.054 36.62 150.066 37.7L150.084 44H147.78ZM145.224 42.308C145.896 42.308 146.472 42.152 146.952 41.84C147.432 41.516 147.702 41.12 147.762 40.652V39.788H145.332C144.708 39.788 144.246 39.884 143.946 40.076C143.658 40.256 143.514 40.556 143.514 40.976C143.514 41.384 143.664 41.708 143.964 41.948C144.276 42.188 144.696 42.308 145.224 42.308ZM148.914 30.644C148.914 32.324 148.386 33.164 147.33 33.164C147.066 33.164 146.808 33.116 146.556 33.02C146.316 32.924 146.046 32.792 145.746 32.624C145.362 32.408 145.092 32.3 144.936 32.3C144.756 32.3 144.63 32.372 144.558 32.516C144.486 32.648 144.45 32.846 144.45 33.11H142.956C142.956 31.418 143.478 30.572 144.522 30.572C144.786 30.572 145.038 30.62 145.278 30.716C145.53 30.812 145.806 30.944 146.106 31.112C146.49 31.328 146.76 31.436 146.916 31.436C147.096 31.436 147.222 31.37 147.294 31.238C147.366 31.094 147.402 30.896 147.402 30.644H148.914ZM156.921 34.298C157.917 34.298 158.793 34.502 159.549 34.91C160.317 35.318 160.911 35.894 161.331 36.638C161.763 37.37 161.979 38.216 161.979 39.176C161.979 40.148 161.763 41.006 161.331 41.75C160.911 42.494 160.317 43.07 159.549 43.478C158.793 43.886 157.917 44.09 156.921 44.09C155.913 44.09 155.025 43.886 154.257 43.478C153.489 43.07 152.889 42.494 152.457 41.75C152.037 41.006 151.827 40.148 151.827 39.176C151.827 38.216 152.037 37.37 152.457 36.638C152.889 35.894 153.489 35.318 154.257 34.91C155.025 34.502 155.913 34.298 156.921 34.298ZM156.921 36.296C156.105 36.296 155.445 36.566 154.941 37.106C154.437 37.646 154.185 38.348 154.185 39.212C154.185 40.076 154.437 40.778 154.941 41.318C155.445 41.858 156.105 42.128 156.921 42.128C157.713 42.128 158.361 41.858 158.865 41.318C159.369 40.778 159.621 40.076 159.621 39.212C159.621 38.348 159.369 37.646 158.865 37.106C158.361 36.566 157.713 36.296 156.921 36.296ZM177.712 30.644V44H175.372V42.452C175.024 42.992 174.574 43.406 174.022 43.694C173.482 43.97 172.852 44.108 172.132 44.108C171.22 44.108 170.416 43.904 169.72 43.496C169.036 43.076 168.502 42.494 168.118 41.75C167.734 40.994 167.542 40.13 167.542 39.158C167.542 38.198 167.728 37.352 168.1 36.62C168.484 35.876 169.018 35.3 169.702 34.892C170.398 34.484 171.19 34.28 172.078 34.28C172.81 34.28 173.452 34.424 174.004 34.712C174.556 35 175.012 35.414 175.372 35.954V30.644H177.712ZM172.636 42.146C173.44 42.146 174.094 41.876 174.598 41.336C175.114 40.784 175.372 40.076 175.372 39.212C175.372 38.348 175.114 37.646 174.598 37.106C174.094 36.554 173.44 36.278 172.636 36.278C171.832 36.278 171.178 36.554 170.674 37.106C170.17 37.646 169.912 38.348 169.9 39.212C169.912 40.076 170.17 40.784 170.674 41.336C171.178 41.876 171.832 42.146 172.636 42.146ZM184.725 34.298C186.261 34.298 187.413 34.736 188.181 35.612C188.961 36.488 189.351 37.718 189.351 39.302C189.351 39.614 189.345 39.848 189.333 40.004H182.223C182.379 40.688 182.697 41.228 183.177 41.624C183.669 42.008 184.269 42.2 184.977 42.2C185.469 42.2 185.937 42.11 186.381 41.93C186.837 41.738 187.233 41.468 187.569 41.12L188.829 42.434C188.349 42.962 187.761 43.37 187.065 43.658C186.381 43.946 185.619 44.09 184.779 44.09C183.795 44.09 182.925 43.886 182.169 43.478C181.425 43.07 180.849 42.5 180.441 41.768C180.033 41.024 179.829 40.172 179.829 39.212C179.829 38.252 180.033 37.4 180.441 36.656C180.861 35.912 181.443 35.336 182.187 34.928C182.931 34.508 183.777 34.298 184.725 34.298ZM187.209 38.438C187.185 37.73 186.951 37.166 186.507 36.746C186.063 36.326 185.475 36.116 184.743 36.116C184.059 36.116 183.483 36.326 183.015 36.746C182.559 37.154 182.277 37.718 182.169 38.438H187.209ZM194.461 31.4H204.739V33.542H200.815V44H198.385V33.542H194.461V31.4ZM209.123 34.298C210.659 34.298 211.811 34.736 212.579 35.612C213.359 36.488 213.749 37.718 213.749 39.302C213.749 39.614 213.743 39.848 213.731 40.004H206.621C206.777 40.688 207.095 41.228 207.575 41.624C208.067 42.008 208.667 42.2 209.375 42.2C209.867 42.2 210.335 42.11 210.779 41.93C211.235 41.738 211.631 41.468 211.967 41.12L213.227 42.434C212.747 42.962 212.159 43.37 211.463 43.658C210.779 43.946 210.017 44.09 209.177 44.09C208.193 44.09 207.323 43.886 206.567 43.478C205.823 43.07 205.247 42.5 204.839 41.768C204.431 41.024 204.227 40.172 204.227 39.212C204.227 38.252 204.431 37.4 204.839 36.656C205.259 35.912 205.841 35.336 206.585 34.928C207.329 34.508 208.175 34.298 209.123 34.298ZM211.607 38.438C211.583 37.73 211.349 37.166 210.905 36.746C210.461 36.326 209.873 36.116 209.141 36.116C208.457 36.116 207.881 36.326 207.413 36.746C206.957 37.154 206.675 37.718 206.567 38.438H211.607ZM221.468 36.98C221 36.704 220.514 36.488 220.01 36.332C219.518 36.176 219.062 36.098 218.642 36.098C218.246 36.098 217.928 36.17 217.688 36.314C217.46 36.446 217.346 36.656 217.346 36.944C217.346 37.244 217.49 37.478 217.778 37.646C218.078 37.802 218.546 37.97 219.182 38.15C219.854 38.354 220.406 38.558 220.838 38.762C221.27 38.954 221.642 39.248 221.954 39.644C222.278 40.028 222.44 40.538 222.44 41.174C222.44 42.11 222.08 42.83 221.36 43.334C220.64 43.838 219.734 44.09 218.642 44.09C217.898 44.09 217.172 43.976 216.464 43.748C215.756 43.508 215.156 43.172 214.664 42.74L215.474 41.102C215.906 41.474 216.422 41.768 217.022 41.984C217.622 42.188 218.192 42.29 218.732 42.29C219.164 42.29 219.506 42.218 219.758 42.074C220.022 41.918 220.154 41.69 220.154 41.39C220.154 41.054 220.004 40.802 219.704 40.634C219.404 40.466 218.918 40.28 218.246 40.076C217.598 39.884 217.07 39.698 216.662 39.518C216.254 39.326 215.9 39.044 215.6 38.672C215.3 38.288 215.15 37.79 215.15 37.178C215.15 36.23 215.492 35.51 216.176 35.018C216.872 34.514 217.742 34.262 218.786 34.262C219.422 34.262 220.046 34.352 220.658 34.532C221.282 34.712 221.834 34.964 222.314 35.288L221.468 36.98ZM230.079 43.406C229.311 43.874 228.507 44.108 227.667 44.108C226.839 44.108 226.161 43.868 225.633 43.388C225.105 42.896 224.841 42.176 224.841 41.228V36.476H223.491L223.473 34.766H224.841V32.12H227.163V34.766H229.917V36.476H227.163V40.814C227.163 41.258 227.247 41.576 227.415 41.768C227.583 41.948 227.835 42.038 228.171 42.038C228.531 42.038 228.987 41.906 229.539 41.642L230.079 43.406ZM235.842 34.298C237.378 34.298 238.53 34.736 239.298 35.612C240.078 36.488 240.468 37.718 240.468 39.302C240.468 39.614 240.462 39.848 240.45 40.004H233.34C233.496 40.688 233.814 41.228 234.294 41.624C234.786 42.008 235.386 42.2 236.094 42.2C236.586 42.2 237.054 42.11 237.498 41.93C237.954 41.738 238.35 41.468 238.686 41.12L239.946 42.434C239.466 42.962 238.878 43.37 238.182 43.658C237.498 43.946 236.736 44.09 235.896 44.09C234.912 44.09 234.042 43.886 233.286 43.478C232.542 43.07 231.966 42.5 231.558 41.768C231.15 41.024 230.946 40.172 230.946 39.212C230.946 38.252 231.15 37.4 231.558 36.656C231.978 35.912 232.56 35.336 233.304 34.928C234.048 34.508 234.894 34.298 235.842 34.298ZM238.326 38.438C238.302 37.73 238.068 37.166 237.624 36.746C237.18 36.326 236.592 36.116 235.86 36.116C235.176 36.116 234.6 36.326 234.132 36.746C233.676 37.154 233.394 37.718 233.286 38.438H238.326Z" fill="#C5F2E0"/>
<defs>
<filter id="filter0_d_6120_1918" x="1.24415" y="0.689455" width="392.601" height="78.2422" filterUnits="userSpaceOnUse" color-interpolation-filters="sRGB">
<feFlood flood-opacity="0" result="BackgroundImageFix"/>
<feColorMatrix in="SourceAlpha" type="matrix" values="0 0 0 0 0 0 0 0 0 0 0 0 0 0 0 0 0 0 127 0" result="hardAlpha"/>
<feOffset dy="1.31054"/>
<feGaussianBlur stdDeviation="1.31054"/>
<feColorMatrix type="matrix" values="0 0 0 0 0.215686 0 0 0 0 0.254902 0 0 0 0 0.317647 0 0 0 0.08 0"/>
<feBlend mode="normal" in2="BackgroundImageFix" result="effect1_dropShadow_6120_1918"/>
<feBlend mode="normal" in="SourceGraphic" in2="effect1_dropShadow_6120_1918" result="shape"/>
</filter>
</defs>
</svg>
