<svg width="396" height="79" viewBox="0 0 396 79" fill="none" xmlns="http://www.w3.org/2000/svg">
<g filter="url(#filter0_d_6120_1904)">
<mask id="path-1-inside-1_6120_1904" fill="white">
<path fill-rule="evenodd" clip-rule="evenodd" d="M3 7.24218C3 4.347 5.34702 2 8.24219 2H369.966C371.843 2 373.576 3.00342 374.511 4.63086L392.469 35.8887C393.397 37.5056 393.397 39.4944 392.469 41.1113L374.511 72.3691C373.576 73.9966 371.843 75 369.966 75H8.24218C5.347 75 3 72.653 3 69.7578V7.24218Z"/>
</mask>
<path fill-rule="evenodd" clip-rule="evenodd" d="M3 7.24218C3 4.347 5.34702 2 8.24219 2H369.966C371.843 2 373.576 3.00342 374.511 4.63086L392.469 35.8887C393.397 37.5056 393.397 39.4944 392.469 41.1113L374.511 72.3691C373.576 73.9966 371.843 75 369.966 75H8.24218C5.347 75 3 72.653 3 69.7578V7.24218Z" fill="#00995D"/>
<path d="M392.469 35.8887L391.332 36.5415V36.5415L392.469 35.8887ZM392.469 41.1113L391.332 40.4585V40.4585L392.469 41.1113ZM374.511 72.3691L373.375 71.7163L374.511 72.3691ZM374.511 4.63086L373.375 5.28369L374.511 4.63086ZM369.966 0.689455H8.24219V3.31054H369.966V0.689455ZM373.375 5.28369L391.332 36.5415L393.605 35.2359L375.648 3.97804L373.375 5.28369ZM391.332 36.5415C392.029 37.7542 392.029 39.2458 391.332 40.4585L393.605 41.7641C394.766 39.7429 394.766 37.2571 393.605 35.2359L391.332 36.5415ZM391.332 40.4585L373.375 71.7163L375.648 73.022L393.605 41.7641L391.332 40.4585ZM8.24218 76.3105H369.966V73.6895H8.24218V76.3105ZM1.68946 7.24218V69.7578H4.31054V7.24218H1.68946ZM373.375 71.7163C372.674 72.9369 371.374 73.6895 369.966 73.6895V76.3105C372.312 76.3105 374.479 75.0563 375.648 73.022L373.375 71.7163ZM8.24219 0.689455C4.62323 0.689455 1.68946 3.62321 1.68946 7.24218H4.31054C4.31054 5.0708 6.07081 3.31054 8.24219 3.31054V0.689455ZM8.24218 73.6895C6.0708 73.6895 4.31054 71.9292 4.31054 69.7578H1.68946C1.68946 73.3768 4.62321 76.3105 8.24218 76.3105V73.6895ZM369.966 3.31054C371.374 3.31054 372.674 4.06311 373.375 5.28369L375.648 3.97804C374.479 1.94373 372.312 0.689455 369.966 0.689455V3.31054Z" fill="#00995D" mask="url(#path-1-inside-1_6120_1904)"/>
</g>
<path fill-rule="evenodd" clip-rule="evenodd" d="M50.7481 36.6055L46.1801 42.6055C45.9921 42.8525 45.7011 42.9985 45.3911 43.0005H45.3841C45.0771 43.0005 44.7871 42.8585 44.5971 42.6165L42.1651 39.5095C41.8251 39.0755 41.9011 38.4465 42.3361 38.1065C42.7701 37.7655 43.4001 37.8415 43.7401 38.2775L45.3731 40.3635L49.1571 35.3945C49.4911 34.9555 50.1181 34.8695 50.5591 35.2045C50.9981 35.5395 51.0831 36.1665 50.7481 36.6055ZM46.4531 29.0005C40.9301 29.0005 36.4531 33.4775 36.4531 39.0005C36.4531 44.5225 40.9301 49.0005 46.4531 49.0005C51.9761 49.0005 56.4531 44.5225 56.4531 39.0005C56.4531 33.4775 51.9761 29.0005 46.4531 29.0005Z" fill="#C5F2E0"/>
<path d="M68.0011 31.4H77.2351V33.506H70.4131V36.62H76.5331V38.726H70.4131V41.894H77.4511V44H68.0011V31.4ZM85.6075 34.28C86.7115 34.28 87.5815 34.616 88.2175 35.288C88.8535 35.948 89.1715 36.848 89.1715 37.988V44H86.8135V38.672C86.8135 38 86.6215 37.472 86.2375 37.088C85.8535 36.692 85.3315 36.494 84.6715 36.494C83.8915 36.506 83.2735 36.77 82.8175 37.286C82.3735 37.802 82.1515 38.462 82.1515 39.266V44H79.8115V34.37H82.1515V36.17C82.8115 34.934 83.9635 34.304 85.6075 34.28ZM97.4338 43.406C96.6658 43.874 95.8618 44.108 95.0218 44.108C94.1938 44.108 93.5158 43.868 92.9878 43.388C92.4598 42.896 92.1958 42.176 92.1958 41.228V36.476H90.8458L90.8278 34.766H92.1958V32.12H94.5178V34.766H97.2718V36.476H94.5178V40.814C94.5178 41.258 94.6018 41.576 94.7698 41.768C94.9378 41.948 95.1898 42.038 95.5258 42.038C95.8858 42.038 96.3418 41.906 96.8938 41.642L97.4338 43.406ZM101.611 36.224C101.935 35.6 102.373 35.126 102.925 34.802C103.489 34.466 104.143 34.292 104.887 34.28V36.548C103.891 36.488 103.093 36.722 102.493 37.25C101.905 37.766 101.611 38.468 101.611 39.356V44H99.2705V34.37H101.611V36.224ZM110.544 34.298C112.08 34.298 113.232 34.736 114 35.612C114.78 36.488 115.17 37.718 115.17 39.302C115.17 39.614 115.164 39.848 115.152 40.004H108.042C108.198 40.688 108.516 41.228 108.996 41.624C109.488 42.008 110.088 42.2 110.796 42.2C111.288 42.2 111.756 42.11 112.2 41.93C112.656 41.738 113.052 41.468 113.388 41.12L114.648 42.434C114.168 42.962 113.58 43.37 112.884 43.658C112.2 43.946 111.438 44.09 110.598 44.09C109.614 44.09 108.744 43.886 107.988 43.478C107.244 43.07 106.668 42.5 106.26 41.768C105.852 41.024 105.648 40.172 105.648 39.212C105.648 38.252 105.852 37.4 106.26 36.656C106.68 35.912 107.262 35.336 108.006 34.928C108.75 34.508 109.596 34.298 110.544 34.298ZM113.028 38.438C113.004 37.73 112.77 37.166 112.326 36.746C111.882 36.326 111.294 36.116 110.562 36.116C109.878 36.116 109.302 36.326 108.834 36.746C108.378 37.154 108.096 37.718 107.988 38.438H113.028ZM115.373 34.388L117.821 34.37L120.341 41.696L122.807 34.37H125.165L121.493 44H119.081L115.373 34.388ZM126.517 34.37H128.857V44H126.517V34.37ZM127.669 30.23C128.053 30.23 128.371 30.362 128.623 30.626C128.875 30.89 129.001 31.226 129.001 31.634C129.001 32.03 128.875 32.36 128.623 32.624C128.371 32.888 128.053 33.02 127.669 33.02C127.285 33.02 126.967 32.888 126.715 32.624C126.463 32.36 126.337 32.03 126.337 31.634C126.337 31.226 126.463 30.89 126.715 30.626C126.967 30.362 127.285 30.23 127.669 30.23ZM137.461 36.98C136.993 36.704 136.507 36.488 136.003 36.332C135.511 36.176 135.055 36.098 134.635 36.098C134.239 36.098 133.921 36.17 133.681 36.314C133.453 36.446 133.339 36.656 133.339 36.944C133.339 37.244 133.483 37.478 133.771 37.646C134.071 37.802 134.539 37.97 135.175 38.15C135.847 38.354 136.399 38.558 136.831 38.762C137.263 38.954 137.635 39.248 137.947 39.644C138.271 40.028 138.433 40.538 138.433 41.174C138.433 42.11 138.073 42.83 137.353 43.334C136.633 43.838 135.727 44.09 134.635 44.09C133.891 44.09 133.165 43.976 132.457 43.748C131.749 43.508 131.149 43.172 130.657 42.74L131.467 41.102C131.899 41.474 132.415 41.768 133.015 41.984C133.615 42.188 134.185 42.29 134.725 42.29C135.157 42.29 135.499 42.218 135.751 42.074C136.015 41.918 136.147 41.69 136.147 41.39C136.147 41.054 135.997 40.802 135.697 40.634C135.397 40.466 134.911 40.28 134.239 40.076C133.591 39.884 133.063 39.698 132.655 39.518C132.247 39.326 131.893 39.044 131.593 38.672C131.293 38.288 131.143 37.79 131.143 37.178C131.143 36.23 131.485 35.51 132.169 35.018C132.865 34.514 133.735 34.262 134.779 34.262C135.415 34.262 136.039 34.352 136.651 34.532C137.275 34.712 137.827 34.964 138.307 35.288L137.461 36.98ZM146.072 43.406C145.304 43.874 144.5 44.108 143.66 44.108C142.832 44.108 142.154 43.868 141.626 43.388C141.098 42.896 140.834 42.176 140.834 41.228V36.476H139.484L139.466 34.766H140.834V32.12H143.156V34.766H145.91V36.476H143.156V40.814C143.156 41.258 143.24 41.576 143.408 41.768C143.576 41.948 143.828 42.038 144.164 42.038C144.524 42.038 144.98 41.906 145.532 41.642L146.072 43.406ZM153.597 44V42.83C153.261 43.25 152.829 43.568 152.301 43.784C151.773 44 151.167 44.108 150.483 44.108C149.811 44.108 149.217 43.982 148.701 43.73C148.197 43.466 147.807 43.106 147.531 42.65C147.255 42.194 147.117 41.684 147.117 41.12C147.117 40.22 147.435 39.518 148.071 39.014C148.707 38.498 149.607 38.234 150.771 38.222H153.579V37.97C153.579 37.406 153.393 36.968 153.021 36.656C152.649 36.344 152.109 36.188 151.401 36.188C150.489 36.188 149.535 36.488 148.539 37.088L147.693 35.468C148.449 35.048 149.133 34.748 149.745 34.568C150.369 34.376 151.095 34.28 151.923 34.28C153.171 34.28 154.137 34.58 154.821 35.18C155.517 35.78 155.871 36.62 155.883 37.7L155.901 44H153.597ZM151.041 42.308C151.713 42.308 152.289 42.152 152.769 41.84C153.249 41.516 153.519 41.12 153.579 40.652V39.788H151.149C150.525 39.788 150.063 39.884 149.763 40.076C149.475 40.256 149.331 40.556 149.331 40.976C149.331 41.384 149.481 41.708 149.781 41.948C150.093 42.188 150.513 42.308 151.041 42.308ZM168.194 31.4C169.778 31.4 171.002 31.778 171.866 32.534C172.742 33.29 173.18 34.358 173.18 35.738C173.18 37.178 172.742 38.3 171.866 39.104C171.002 39.896 169.778 40.292 168.194 40.292H165.44V44H163.028V31.4H168.194ZM168.068 38.168C168.98 38.168 169.676 37.97 170.156 37.574C170.648 37.178 170.894 36.59 170.894 35.81C170.894 35.042 170.648 34.466 170.156 34.082C169.676 33.698 168.98 33.506 168.068 33.506H165.44V38.168H168.068ZM180.791 36.98C180.323 36.704 179.837 36.488 179.333 36.332C178.841 36.176 178.385 36.098 177.965 36.098C177.569 36.098 177.251 36.17 177.011 36.314C176.783 36.446 176.669 36.656 176.669 36.944C176.669 37.244 176.813 37.478 177.101 37.646C177.401 37.802 177.869 37.97 178.505 38.15C179.177 38.354 179.729 38.558 180.161 38.762C180.593 38.954 180.965 39.248 181.277 39.644C181.601 40.028 181.763 40.538 181.763 41.174C181.763 42.11 181.403 42.83 180.683 43.334C179.963 43.838 179.057 44.09 177.965 44.09C177.221 44.09 176.495 43.976 175.787 43.748C175.079 43.508 174.479 43.172 173.987 42.74L174.797 41.102C175.229 41.474 175.745 41.768 176.345 41.984C176.945 42.188 177.515 42.29 178.055 42.29C178.487 42.29 178.829 42.218 179.081 42.074C179.345 41.918 179.477 41.69 179.477 41.39C179.477 41.054 179.327 40.802 179.027 40.634C178.727 40.466 178.241 40.28 177.569 40.076C176.921 39.884 176.393 39.698 175.985 39.518C175.577 39.326 175.223 39.044 174.923 38.672C174.623 38.288 174.473 37.79 174.473 37.178C174.473 36.23 174.815 35.51 175.499 35.018C176.195 34.514 177.065 34.262 178.109 34.262C178.745 34.262 179.369 34.352 179.981 34.532C180.605 34.712 181.157 34.964 181.637 35.288L180.791 36.98ZM183.769 34.37H186.109V44H183.769V34.37ZM184.921 30.23C185.305 30.23 185.623 30.362 185.875 30.626C186.127 30.89 186.253 31.226 186.253 31.634C186.253 32.03 186.127 32.36 185.875 32.624C185.623 32.888 185.305 33.02 184.921 33.02C184.537 33.02 184.219 32.888 183.967 32.624C183.715 32.36 183.589 32.03 183.589 31.634C183.589 31.226 183.715 30.89 183.967 30.626C184.219 30.362 184.537 30.23 184.921 30.23ZM195.631 37.412C194.983 36.704 194.143 36.35 193.111 36.35C192.331 36.35 191.695 36.614 191.203 37.142C190.723 37.67 190.483 38.354 190.483 39.194C190.483 40.058 190.723 40.754 191.203 41.282C191.695 41.81 192.331 42.074 193.111 42.074C194.263 42.074 195.127 41.696 195.703 40.94L197.161 42.146C196.729 42.77 196.159 43.25 195.451 43.586C194.743 43.922 193.921 44.09 192.985 44.09C192.037 44.09 191.191 43.886 190.447 43.478C189.715 43.07 189.145 42.5 188.737 41.768C188.329 41.024 188.125 40.172 188.125 39.212C188.125 38.24 188.329 37.382 188.737 36.638C189.157 35.894 189.733 35.318 190.465 34.91C191.209 34.502 192.061 34.298 193.021 34.298C193.897 34.298 194.677 34.454 195.361 34.766C196.057 35.066 196.621 35.498 197.053 36.062L195.631 37.412ZM203.045 34.298C204.041 34.298 204.917 34.502 205.673 34.91C206.441 35.318 207.035 35.894 207.455 36.638C207.887 37.37 208.103 38.216 208.103 39.176C208.103 40.148 207.887 41.006 207.455 41.75C207.035 42.494 206.441 43.07 205.673 43.478C204.917 43.886 204.041 44.09 203.045 44.09C202.037 44.09 201.149 43.886 200.381 43.478C199.613 43.07 199.013 42.494 198.581 41.75C198.161 41.006 197.951 40.148 197.951 39.176C197.951 38.216 198.161 37.37 198.581 36.638C199.013 35.894 199.613 35.318 200.381 34.91C201.149 34.502 202.037 34.298 203.045 34.298ZM203.045 36.296C202.229 36.296 201.569 36.566 201.065 37.106C200.561 37.646 200.309 38.348 200.309 39.212C200.309 40.076 200.561 40.778 201.065 41.318C201.569 41.858 202.229 42.128 203.045 42.128C203.837 42.128 204.485 41.858 204.989 41.318C205.493 40.778 205.745 40.076 205.745 39.212C205.745 38.348 205.493 37.646 204.989 37.106C204.485 36.566 203.837 36.296 203.045 36.296ZM210.226 30.644H212.566V44H210.226V30.644ZM219.779 34.298C220.775 34.298 221.651 34.502 222.407 34.91C223.175 35.318 223.769 35.894 224.189 36.638C224.621 37.37 224.837 38.216 224.837 39.176C224.837 40.148 224.621 41.006 224.189 41.75C223.769 42.494 223.175 43.07 222.407 43.478C221.651 43.886 220.775 44.09 219.779 44.09C218.771 44.09 217.883 43.886 217.115 43.478C216.347 43.07 215.747 42.494 215.315 41.75C214.895 41.006 214.685 40.148 214.685 39.176C214.685 38.216 214.895 37.37 215.315 36.638C215.747 35.894 216.347 35.318 217.115 34.91C217.883 34.502 218.771 34.298 219.779 34.298ZM219.779 36.296C218.963 36.296 218.303 36.566 217.799 37.106C217.295 37.646 217.043 38.348 217.043 39.212C217.043 40.076 217.295 40.778 217.799 41.318C218.303 41.858 218.963 42.128 219.779 42.128C220.571 42.128 221.219 41.858 221.723 41.318C222.227 40.778 222.479 40.076 222.479 39.212C222.479 38.348 222.227 37.646 221.723 37.106C221.219 36.566 220.571 36.296 219.779 36.296ZM220.463 30.32L222.713 31.238L220.409 33.092L218.591 32.912L220.463 30.32ZM235.672 34.37V43.082C235.672 43.994 235.462 44.786 235.042 45.458C234.634 46.142 234.046 46.664 233.278 47.024C232.522 47.396 231.64 47.582 230.632 47.582C229.168 47.582 227.812 47.156 226.564 46.304L227.5 44.612C228.412 45.284 229.414 45.62 230.506 45.62C231.37 45.62 232.054 45.398 232.558 44.954C233.074 44.51 233.332 43.904 233.332 43.136V42.002C233.008 42.494 232.588 42.872 232.072 43.136C231.556 43.388 230.956 43.514 230.272 43.514C229.432 43.514 228.688 43.322 228.04 42.938C227.392 42.542 226.888 41.996 226.528 41.3C226.168 40.592 225.988 39.782 225.988 38.87C225.988 37.97 226.168 37.178 226.528 36.494C226.888 35.798 227.392 35.258 228.04 34.874C228.688 34.49 229.432 34.298 230.272 34.298C230.944 34.298 231.538 34.43 232.054 34.694C232.582 34.958 233.008 35.33 233.332 35.81V34.37H235.672ZM230.776 41.678C231.532 41.678 232.144 41.426 232.612 40.922C233.092 40.406 233.332 39.74 233.332 38.924C233.332 38.108 233.092 37.448 232.612 36.944C232.144 36.428 231.532 36.17 230.776 36.17C230.02 36.17 229.402 36.428 228.922 36.944C228.454 37.46 228.214 38.12 228.202 38.924C228.214 39.74 228.454 40.406 228.922 40.922C229.402 41.426 230.02 41.678 230.776 41.678ZM238.419 34.37H240.759V44H238.419V34.37ZM239.571 30.23C239.955 30.23 240.273 30.362 240.525 30.626C240.777 30.89 240.903 31.226 240.903 31.634C240.903 32.03 240.777 32.36 240.525 32.624C240.273 32.888 239.955 33.02 239.571 33.02C239.187 33.02 238.869 32.888 238.617 32.624C238.365 32.36 238.239 32.03 238.239 31.634C238.239 31.226 238.365 30.89 238.617 30.626C238.869 30.362 239.187 30.23 239.571 30.23ZM250.281 37.412C249.633 36.704 248.793 36.35 247.761 36.35C246.981 36.35 246.345 36.614 245.853 37.142C245.373 37.67 245.133 38.354 245.133 39.194C245.133 40.058 245.373 40.754 245.853 41.282C246.345 41.81 246.981 42.074 247.761 42.074C248.913 42.074 249.777 41.696 250.353 40.94L251.811 42.146C251.379 42.77 250.809 43.25 250.101 43.586C249.393 43.922 248.571 44.09 247.635 44.09C246.687 44.09 245.841 43.886 245.097 43.478C244.365 43.07 243.795 42.5 243.387 41.768C242.979 41.024 242.775 40.172 242.775 39.212C242.775 38.24 242.979 37.382 243.387 36.638C243.807 35.894 244.383 35.318 245.115 34.91C245.859 34.502 246.711 34.298 247.671 34.298C248.547 34.298 249.327 34.454 250.011 34.766C250.707 35.066 251.271 35.498 251.703 36.062L250.281 37.412ZM259.171 44V42.83C258.835 43.25 258.403 43.568 257.875 43.784C257.347 44 256.741 44.108 256.057 44.108C255.385 44.108 254.791 43.982 254.275 43.73C253.771 43.466 253.381 43.106 253.105 42.65C252.829 42.194 252.691 41.684 252.691 41.12C252.691 40.22 253.009 39.518 253.645 39.014C254.281 38.498 255.181 38.234 256.345 38.222H259.153V37.97C259.153 37.406 258.967 36.968 258.595 36.656C258.223 36.344 257.683 36.188 256.975 36.188C256.063 36.188 255.109 36.488 254.113 37.088L253.267 35.468C254.023 35.048 254.707 34.748 255.319 34.568C255.943 34.376 256.669 34.28 257.497 34.28C258.745 34.28 259.711 34.58 260.395 35.18C261.091 35.78 261.445 36.62 261.457 37.7L261.475 44H259.171ZM256.615 42.308C257.287 42.308 257.863 42.152 258.343 41.84C258.823 41.516 259.093 41.12 259.153 40.652V39.788H256.723C256.099 39.788 255.637 39.884 255.337 40.076C255.049 40.256 254.905 40.556 254.905 40.976C254.905 41.384 255.055 41.708 255.355 41.948C255.667 42.188 256.087 42.308 256.615 42.308Z" fill="#C5F2E0"/>
<defs>
<filter id="filter0_d_6120_1904" x="0.378911" y="0.689455" width="395.407" height="78.2422" filterUnits="userSpaceOnUse" color-interpolation-filters="sRGB">
<feFlood flood-opacity="0" result="BackgroundImageFix"/>
<feColorMatrix in="SourceAlpha" type="matrix" values="0 0 0 0 0 0 0 0 0 0 0 0 0 0 0 0 0 0 127 0" result="hardAlpha"/>
<feOffset dy="1.31054"/>
<feGaussianBlur stdDeviation="1.31054"/>
<feColorMatrix type="matrix" values="0 0 0 0 0.215686 0 0 0 0 0.254902 0 0 0 0 0.317647 0 0 0 0.08 0"/>
<feBlend mode="normal" in2="BackgroundImageFix" result="effect1_dropShadow_6120_1904"/>
<feBlend mode="normal" in="SourceGraphic" in2="effect1_dropShadow_6120_1904" result="shape"/>
</filter>
</defs>
</svg>
