<svg width="396" height="79" viewBox="0 0 396 79" fill="none" xmlns="http://www.w3.org/2000/svg">
<g filter="url(#filter0_d_6120_1878)">
<mask id="path-1-inside-1_6120_1878" fill="white">
<path fill-rule="evenodd" clip-rule="evenodd" d="M3 7.24218C3 4.347 5.34702 2 8.24219 2H369.966C371.843 2 373.576 3.00342 374.511 4.63086L392.469 35.8887C393.397 37.5056 393.397 39.4944 392.469 41.1113L374.511 72.3691C373.576 73.9966 371.843 75 369.966 75H8.24218C5.347 75 3 72.653 3 69.7578V7.24218Z"/>
</mask>
<path fill-rule="evenodd" clip-rule="evenodd" d="M3 7.24218C3 4.347 5.34702 2 8.24219 2H369.966C371.843 2 373.576 3.00342 374.511 4.63086L392.469 35.8887C393.397 37.5056 393.397 39.4944 392.469 41.1113L374.511 72.3691C373.576 73.9966 371.843 75 369.966 75H8.24218C5.347 75 3 72.653 3 69.7578V7.24218Z" fill="white"/>
<path d="M392.469 35.8887L391.332 36.5415V36.5415L392.469 35.8887ZM392.469 41.1113L391.332 40.4585V40.4585L392.469 41.1113ZM374.511 72.3691L373.375 71.7163L374.511 72.3691ZM374.511 4.63086L373.375 5.28369L374.511 4.63086ZM369.966 0.689455H8.24219V3.31054H369.966V0.689455ZM373.375 5.28369L391.332 36.5415L393.605 35.2359L375.648 3.97804L373.375 5.28369ZM391.332 36.5415C392.029 37.7542 392.029 39.2458 391.332 40.4585L393.605 41.7641C394.766 39.7429 394.766 37.2571 393.605 35.2359L391.332 36.5415ZM391.332 40.4585L373.375 71.7163L375.648 73.022L393.605 41.7641L391.332 40.4585ZM8.24218 76.3105H369.966V73.6895H8.24218V76.3105ZM1.68946 7.24218V69.7578H4.31054V7.24218H1.68946ZM373.375 71.7163C372.674 72.9369 371.374 73.6895 369.966 73.6895V76.3105C372.312 76.3105 374.479 75.0563 375.648 73.022L373.375 71.7163ZM8.24219 0.689455C4.62323 0.689455 1.68946 3.62321 1.68946 7.24218H4.31054C4.31054 5.0708 6.07081 3.31054 8.24219 3.31054V0.689455ZM8.24218 73.6895C6.0708 73.6895 4.31054 71.9292 4.31054 69.7578H1.68946C1.68946 73.3768 4.62321 76.3105 8.24218 76.3105V73.6895ZM369.966 3.31054C371.374 3.31054 372.674 4.06311 373.375 5.28369L375.648 3.97804C374.479 1.94373 372.312 0.689455 369.966 0.689455V3.31054Z" fill="#00995D" mask="url(#path-1-inside-1_6120_1878)"/>
</g>
<path d="M36.0011 32.4H45.2351V34.506H38.4131V37.62H44.5331V39.726H38.4131V42.894H45.4511V45H36.0011V32.4ZM53.6075 35.28C54.7115 35.28 55.5815 35.616 56.2175 36.288C56.8535 36.948 57.1715 37.848 57.1715 38.988V45H54.8135V39.672C54.8135 39 54.6215 38.472 54.2375 38.088C53.8535 37.692 53.3315 37.494 52.6715 37.494C51.8915 37.506 51.2735 37.77 50.8175 38.286C50.3735 38.802 50.1515 39.462 50.1515 40.266V45H47.8115V35.37H50.1515V37.17C50.8115 35.934 51.9635 35.304 53.6075 35.28ZM65.4338 44.406C64.6658 44.874 63.8618 45.108 63.0218 45.108C62.1938 45.108 61.5158 44.868 60.9878 44.388C60.4598 43.896 60.1958 43.176 60.1958 42.228V37.476H58.8458L58.8278 35.766H60.1958V33.12H62.5178V35.766H65.2718V37.476H62.5178V41.814C62.5178 42.258 62.6018 42.576 62.7698 42.768C62.9378 42.948 63.1898 43.038 63.5258 43.038C63.8858 43.038 64.3418 42.906 64.8938 42.642L65.4338 44.406ZM69.6105 37.224C69.9345 36.6 70.3725 36.126 70.9245 35.802C71.4885 35.466 72.1425 35.292 72.8865 35.28V37.548C71.8905 37.488 71.0925 37.722 70.4925 38.25C69.9045 38.766 69.6105 39.468 69.6105 40.356V45H67.2705V35.37H69.6105V37.224ZM78.5443 35.298C80.0803 35.298 81.2323 35.736 82.0003 36.612C82.7803 37.488 83.1703 38.718 83.1703 40.302C83.1703 40.614 83.1643 40.848 83.1523 41.004H76.0423C76.1983 41.688 76.5163 42.228 76.9963 42.624C77.4883 43.008 78.0883 43.2 78.7963 43.2C79.2883 43.2 79.7563 43.11 80.2003 42.93C80.6563 42.738 81.0523 42.468 81.3883 42.12L82.6483 43.434C82.1683 43.962 81.5803 44.37 80.8843 44.658C80.2003 44.946 79.4383 45.09 78.5983 45.09C77.6143 45.09 76.7443 44.886 75.9883 44.478C75.2443 44.07 74.6683 43.5 74.2603 42.768C73.8523 42.024 73.6483 41.172 73.6483 40.212C73.6483 39.252 73.8523 38.4 74.2603 37.656C74.6803 36.912 75.2623 36.336 76.0063 35.928C76.7503 35.508 77.5963 35.298 78.5443 35.298ZM81.0283 39.438C81.0043 38.73 80.7703 38.166 80.3263 37.746C79.8823 37.326 79.2943 37.116 78.5623 37.116C77.8783 37.116 77.3023 37.326 76.8343 37.746C76.3783 38.154 76.0963 38.718 75.9883 39.438H81.0283ZM83.3726 35.388L85.8206 35.37L88.3406 42.696L90.8066 35.37H93.1646L89.4926 45H87.0806L83.3726 35.388ZM94.5166 35.37H96.8566V45H94.5166V35.37ZM95.6686 31.23C96.0526 31.23 96.3706 31.362 96.6226 31.626C96.8746 31.89 97.0006 32.226 97.0006 32.634C97.0006 33.03 96.8746 33.36 96.6226 33.624C96.3706 33.888 96.0526 34.02 95.6686 34.02C95.2846 34.02 94.9666 33.888 94.7146 33.624C94.4626 33.36 94.3366 33.03 94.3366 32.634C94.3366 32.226 94.4626 31.89 94.7146 31.626C94.9666 31.362 95.2846 31.23 95.6686 31.23ZM105.461 37.98C104.993 37.704 104.507 37.488 104.003 37.332C103.511 37.176 103.055 37.098 102.635 37.098C102.239 37.098 101.921 37.17 101.681 37.314C101.453 37.446 101.339 37.656 101.339 37.944C101.339 38.244 101.483 38.478 101.771 38.646C102.071 38.802 102.539 38.97 103.175 39.15C103.847 39.354 104.399 39.558 104.831 39.762C105.263 39.954 105.635 40.248 105.947 40.644C106.271 41.028 106.433 41.538 106.433 42.174C106.433 43.11 106.073 43.83 105.353 44.334C104.633 44.838 103.727 45.09 102.635 45.09C101.891 45.09 101.165 44.976 100.457 44.748C99.7489 44.508 99.1489 44.172 98.6569 43.74L99.4669 42.102C99.8989 42.474 100.415 42.768 101.015 42.984C101.615 43.188 102.185 43.29 102.725 43.29C103.157 43.29 103.499 43.218 103.751 43.074C104.015 42.918 104.147 42.69 104.147 42.39C104.147 42.054 103.997 41.802 103.697 41.634C103.397 41.466 102.911 41.28 102.239 41.076C101.591 40.884 101.063 40.698 100.655 40.518C100.247 40.326 99.8929 40.044 99.5929 39.672C99.2929 39.288 99.1429 38.79 99.1429 38.178C99.1429 37.23 99.4849 36.51 100.169 36.018C100.865 35.514 101.735 35.262 102.779 35.262C103.415 35.262 104.039 35.352 104.651 35.532C105.275 35.712 105.827 35.964 106.307 36.288L105.461 37.98ZM114.072 44.406C113.304 44.874 112.5 45.108 111.66 45.108C110.832 45.108 110.154 44.868 109.626 44.388C109.098 43.896 108.834 43.176 108.834 42.228V37.476H107.484L107.466 35.766H108.834V33.12H111.156V35.766H113.91V37.476H111.156V41.814C111.156 42.258 111.24 42.576 111.408 42.768C111.576 42.948 111.828 43.038 112.164 43.038C112.524 43.038 112.98 42.906 113.532 42.642L114.072 44.406ZM121.597 45V43.83C121.261 44.25 120.829 44.568 120.301 44.784C119.773 45 119.167 45.108 118.483 45.108C117.811 45.108 117.217 44.982 116.701 44.73C116.197 44.466 115.807 44.106 115.531 43.65C115.255 43.194 115.117 42.684 115.117 42.12C115.117 41.22 115.435 40.518 116.071 40.014C116.707 39.498 117.607 39.234 118.771 39.222H121.579V38.97C121.579 38.406 121.393 37.968 121.021 37.656C120.649 37.344 120.109 37.188 119.401 37.188C118.489 37.188 117.535 37.488 116.539 38.088L115.693 36.468C116.449 36.048 117.133 35.748 117.745 35.568C118.369 35.376 119.095 35.28 119.923 35.28C121.171 35.28 122.137 35.58 122.821 36.18C123.517 36.78 123.871 37.62 123.883 38.7L123.901 45H121.597ZM119.041 43.308C119.713 43.308 120.289 43.152 120.769 42.84C121.249 42.516 121.519 42.12 121.579 41.652V40.788H119.149C118.525 40.788 118.063 40.884 117.763 41.076C117.475 41.256 117.331 41.556 117.331 41.976C117.331 42.384 117.481 42.708 117.781 42.948C118.093 43.188 118.513 43.308 119.041 43.308ZM136.194 32.4C137.778 32.4 139.002 32.778 139.866 33.534C140.742 34.29 141.18 35.358 141.18 36.738C141.18 38.178 140.742 39.3 139.866 40.104C139.002 40.896 137.778 41.292 136.194 41.292H133.44V45H131.028V32.4H136.194ZM136.068 39.168C136.98 39.168 137.676 38.97 138.156 38.574C138.648 38.178 138.894 37.59 138.894 36.81C138.894 36.042 138.648 35.466 138.156 35.082C137.676 34.698 136.98 34.506 136.068 34.506H133.44V39.168H136.068ZM148.791 37.98C148.323 37.704 147.837 37.488 147.333 37.332C146.841 37.176 146.385 37.098 145.965 37.098C145.569 37.098 145.251 37.17 145.011 37.314C144.783 37.446 144.669 37.656 144.669 37.944C144.669 38.244 144.813 38.478 145.101 38.646C145.401 38.802 145.869 38.97 146.505 39.15C147.177 39.354 147.729 39.558 148.161 39.762C148.593 39.954 148.965 40.248 149.277 40.644C149.601 41.028 149.763 41.538 149.763 42.174C149.763 43.11 149.403 43.83 148.683 44.334C147.963 44.838 147.057 45.09 145.965 45.09C145.221 45.09 144.495 44.976 143.787 44.748C143.079 44.508 142.479 44.172 141.987 43.74L142.797 42.102C143.229 42.474 143.745 42.768 144.345 42.984C144.945 43.188 145.515 43.29 146.055 43.29C146.487 43.29 146.829 43.218 147.081 43.074C147.345 42.918 147.477 42.69 147.477 42.39C147.477 42.054 147.327 41.802 147.027 41.634C146.727 41.466 146.241 41.28 145.569 41.076C144.921 40.884 144.393 40.698 143.985 40.518C143.577 40.326 143.223 40.044 142.923 39.672C142.623 39.288 142.473 38.79 142.473 38.178C142.473 37.23 142.815 36.51 143.499 36.018C144.195 35.514 145.065 35.262 146.109 35.262C146.745 35.262 147.369 35.352 147.981 35.532C148.605 35.712 149.157 35.964 149.637 36.288L148.791 37.98ZM151.769 35.37H154.109V45H151.769V35.37ZM152.921 31.23C153.305 31.23 153.623 31.362 153.875 31.626C154.127 31.89 154.253 32.226 154.253 32.634C154.253 33.03 154.127 33.36 153.875 33.624C153.623 33.888 153.305 34.02 152.921 34.02C152.537 34.02 152.219 33.888 151.967 33.624C151.715 33.36 151.589 33.03 151.589 32.634C151.589 32.226 151.715 31.89 151.967 31.626C152.219 31.362 152.537 31.23 152.921 31.23ZM163.631 38.412C162.983 37.704 162.143 37.35 161.111 37.35C160.331 37.35 159.695 37.614 159.203 38.142C158.723 38.67 158.483 39.354 158.483 40.194C158.483 41.058 158.723 41.754 159.203 42.282C159.695 42.81 160.331 43.074 161.111 43.074C162.263 43.074 163.127 42.696 163.703 41.94L165.161 43.146C164.729 43.77 164.159 44.25 163.451 44.586C162.743 44.922 161.921 45.09 160.985 45.09C160.037 45.09 159.191 44.886 158.447 44.478C157.715 44.07 157.145 43.5 156.737 42.768C156.329 42.024 156.125 41.172 156.125 40.212C156.125 39.24 156.329 38.382 156.737 37.638C157.157 36.894 157.733 36.318 158.465 35.91C159.209 35.502 160.061 35.298 161.021 35.298C161.897 35.298 162.677 35.454 163.361 35.766C164.057 36.066 164.621 36.498 165.053 37.062L163.631 38.412ZM171.045 35.298C172.041 35.298 172.917 35.502 173.673 35.91C174.441 36.318 175.035 36.894 175.455 37.638C175.887 38.37 176.103 39.216 176.103 40.176C176.103 41.148 175.887 42.006 175.455 42.75C175.035 43.494 174.441 44.07 173.673 44.478C172.917 44.886 172.041 45.09 171.045 45.09C170.037 45.09 169.149 44.886 168.381 44.478C167.613 44.07 167.013 43.494 166.581 42.75C166.161 42.006 165.951 41.148 165.951 40.176C165.951 39.216 166.161 38.37 166.581 37.638C167.013 36.894 167.613 36.318 168.381 35.91C169.149 35.502 170.037 35.298 171.045 35.298ZM171.045 37.296C170.229 37.296 169.569 37.566 169.065 38.106C168.561 38.646 168.309 39.348 168.309 40.212C168.309 41.076 168.561 41.778 169.065 42.318C169.569 42.858 170.229 43.128 171.045 43.128C171.837 43.128 172.485 42.858 172.989 42.318C173.493 41.778 173.745 41.076 173.745 40.212C173.745 39.348 173.493 38.646 172.989 38.106C172.485 37.566 171.837 37.296 171.045 37.296ZM178.226 31.644H180.566V45H178.226V31.644ZM187.779 35.298C188.775 35.298 189.651 35.502 190.407 35.91C191.175 36.318 191.769 36.894 192.189 37.638C192.621 38.37 192.837 39.216 192.837 40.176C192.837 41.148 192.621 42.006 192.189 42.75C191.769 43.494 191.175 44.07 190.407 44.478C189.651 44.886 188.775 45.09 187.779 45.09C186.771 45.09 185.883 44.886 185.115 44.478C184.347 44.07 183.747 43.494 183.315 42.75C182.895 42.006 182.685 41.148 182.685 40.176C182.685 39.216 182.895 38.37 183.315 37.638C183.747 36.894 184.347 36.318 185.115 35.91C185.883 35.502 186.771 35.298 187.779 35.298ZM187.779 37.296C186.963 37.296 186.303 37.566 185.799 38.106C185.295 38.646 185.043 39.348 185.043 40.212C185.043 41.076 185.295 41.778 185.799 42.318C186.303 42.858 186.963 43.128 187.779 43.128C188.571 43.128 189.219 42.858 189.723 42.318C190.227 41.778 190.479 41.076 190.479 40.212C190.479 39.348 190.227 38.646 189.723 38.106C189.219 37.566 188.571 37.296 187.779 37.296ZM188.463 31.32L190.713 32.238L188.409 34.092L186.591 33.912L188.463 31.32ZM203.672 35.37V44.082C203.672 44.994 203.462 45.786 203.042 46.458C202.634 47.142 202.046 47.664 201.278 48.024C200.522 48.396 199.64 48.582 198.632 48.582C197.168 48.582 195.812 48.156 194.564 47.304L195.5 45.612C196.412 46.284 197.414 46.62 198.506 46.62C199.37 46.62 200.054 46.398 200.558 45.954C201.074 45.51 201.332 44.904 201.332 44.136V43.002C201.008 43.494 200.588 43.872 200.072 44.136C199.556 44.388 198.956 44.514 198.272 44.514C197.432 44.514 196.688 44.322 196.04 43.938C195.392 43.542 194.888 42.996 194.528 42.3C194.168 41.592 193.988 40.782 193.988 39.87C193.988 38.97 194.168 38.178 194.528 37.494C194.888 36.798 195.392 36.258 196.04 35.874C196.688 35.49 197.432 35.298 198.272 35.298C198.944 35.298 199.538 35.43 200.054 35.694C200.582 35.958 201.008 36.33 201.332 36.81V35.37H203.672ZM198.776 42.678C199.532 42.678 200.144 42.426 200.612 41.922C201.092 41.406 201.332 40.74 201.332 39.924C201.332 39.108 201.092 38.448 200.612 37.944C200.144 37.428 199.532 37.17 198.776 37.17C198.02 37.17 197.402 37.428 196.922 37.944C196.454 38.46 196.214 39.12 196.202 39.924C196.214 40.74 196.454 41.406 196.922 41.922C197.402 42.426 198.02 42.678 198.776 42.678ZM206.419 35.37H208.759V45H206.419V35.37ZM207.571 31.23C207.955 31.23 208.273 31.362 208.525 31.626C208.777 31.89 208.903 32.226 208.903 32.634C208.903 33.03 208.777 33.36 208.525 33.624C208.273 33.888 207.955 34.02 207.571 34.02C207.187 34.02 206.869 33.888 206.617 33.624C206.365 33.36 206.239 33.03 206.239 32.634C206.239 32.226 206.365 31.89 206.617 31.626C206.869 31.362 207.187 31.23 207.571 31.23ZM218.281 38.412C217.633 37.704 216.793 37.35 215.761 37.35C214.981 37.35 214.345 37.614 213.853 38.142C213.373 38.67 213.133 39.354 213.133 40.194C213.133 41.058 213.373 41.754 213.853 42.282C214.345 42.81 214.981 43.074 215.761 43.074C216.913 43.074 217.777 42.696 218.353 41.94L219.811 43.146C219.379 43.77 218.809 44.25 218.101 44.586C217.393 44.922 216.571 45.09 215.635 45.09C214.687 45.09 213.841 44.886 213.097 44.478C212.365 44.07 211.795 43.5 211.387 42.768C210.979 42.024 210.775 41.172 210.775 40.212C210.775 39.24 210.979 38.382 211.387 37.638C211.807 36.894 212.383 36.318 213.115 35.91C213.859 35.502 214.711 35.298 215.671 35.298C216.547 35.298 217.327 35.454 218.011 35.766C218.707 36.066 219.271 36.498 219.703 37.062L218.281 38.412ZM227.171 45V43.83C226.835 44.25 226.403 44.568 225.875 44.784C225.347 45 224.741 45.108 224.057 45.108C223.385 45.108 222.791 44.982 222.275 44.73C221.771 44.466 221.381 44.106 221.105 43.65C220.829 43.194 220.691 42.684 220.691 42.12C220.691 41.22 221.009 40.518 221.645 40.014C222.281 39.498 223.181 39.234 224.345 39.222H227.153V38.97C227.153 38.406 226.967 37.968 226.595 37.656C226.223 37.344 225.683 37.188 224.975 37.188C224.063 37.188 223.109 37.488 222.113 38.088L221.267 36.468C222.023 36.048 222.707 35.748 223.319 35.568C223.943 35.376 224.669 35.28 225.497 35.28C226.745 35.28 227.711 35.58 228.395 36.18C229.091 36.78 229.445 37.62 229.457 38.7L229.475 45H227.171ZM224.615 43.308C225.287 43.308 225.863 43.152 226.343 42.84C226.823 42.516 227.093 42.12 227.153 41.652V40.788H224.723C224.099 40.788 223.637 40.884 223.337 41.076C223.049 41.256 222.905 41.556 222.905 41.976C222.905 42.384 223.055 42.708 223.355 42.948C223.667 43.188 224.087 43.308 224.615 43.308Z" fill="#017849"/>
<defs>
<filter id="filter0_d_6120_1878" x="0.378911" y="0.689455" width="395.407" height="78.2422" filterUnits="userSpaceOnUse" color-interpolation-filters="sRGB">
<feFlood flood-opacity="0" result="BackgroundImageFix"/>
<feColorMatrix in="SourceAlpha" type="matrix" values="0 0 0 0 0 0 0 0 0 0 0 0 0 0 0 0 0 0 127 0" result="hardAlpha"/>
<feOffset dy="1.31054"/>
<feGaussianBlur stdDeviation="1.31054"/>
<feColorMatrix type="matrix" values="0 0 0 0 0.215686 0 0 0 0 0.254902 0 0 0 0 0.317647 0 0 0 0.08 0"/>
<feBlend mode="normal" in2="BackgroundImageFix" result="effect1_dropShadow_6120_1878"/>
<feBlend mode="normal" in="SourceGraphic" in2="effect1_dropShadow_6120_1878" result="shape"/>
</filter>
</defs>
</svg>
