<svg width="130" height="40" viewBox="0 0 166 48" fill="none" xmlns="http://www.w3.org/2000/svg">
<rect width="166" height="48" rx="8" fill="#F5F5F5"/>
<path d="M54.2353 27.6H49.0353L48.0433 30H45.3872L50.3793 18.8H52.9393L57.9473 30H55.2273L54.2353 27.6ZM53.4193 25.632L51.6433 21.344L49.8673 25.632H53.4193ZM64.4071 29.584C64.1618 29.7653 63.8578 29.904 63.4951 30C63.1431 30.0853 62.7698 30.128 62.3751 30.128C61.3511 30.128 60.5565 29.8667 59.9911 29.344C59.4365 28.8213 59.1591 28.0533 59.1591 27.04V23.504H57.8311V21.584H59.1591V19.488H61.6551V21.584H63.7991V23.504H61.6551V27.008C61.6551 27.3707 61.7458 27.6533 61.9271 27.856C62.1191 28.048 62.3858 28.144 62.7271 28.144C63.1218 28.144 63.4578 28.0373 63.7351 27.824L64.4071 29.584ZM73.9746 25.728C73.9746 25.76 73.9586 25.984 73.9266 26.4H67.4146C67.532 26.9333 67.8093 27.3547 68.2466 27.664C68.684 27.9733 69.228 28.128 69.8786 28.128C70.3266 28.128 70.7213 28.064 71.0626 27.936C71.4146 27.7973 71.74 27.584 72.0386 27.296L73.3666 28.736C72.556 29.664 71.372 30.128 69.8146 30.128C68.844 30.128 67.9853 29.9413 67.2386 29.568C66.492 29.184 65.916 28.656 65.5106 27.984C65.1053 27.312 64.9026 26.5493 64.9026 25.696C64.9026 24.8533 65.1 24.096 65.4946 23.424C65.9 22.7413 66.4493 22.2133 67.1426 21.84C67.8466 21.456 68.6306 21.264 69.4946 21.264C70.3373 21.264 71.1 21.4453 71.7826 21.808C72.4653 22.1707 72.9986 22.6933 73.3826 23.376C73.7773 24.048 73.9746 24.832 73.9746 25.728ZM69.5106 23.152C68.9453 23.152 68.4706 23.312 68.0866 23.632C67.7026 23.952 67.468 24.3893 67.3826 24.944H71.6226C71.5373 24.4 71.3026 23.968 70.9186 23.648C70.5346 23.3173 70.0653 23.152 69.5106 23.152ZM78.5324 30.128C77.8177 30.128 77.119 30.0427 76.4364 29.872C75.7537 29.6907 75.2097 29.4667 74.8044 29.2L75.6364 27.408C76.0204 27.6533 76.4844 27.856 77.0284 28.016C77.5724 28.1653 78.1057 28.24 78.6284 28.24C79.6844 28.24 80.2124 27.9787 80.2124 27.456C80.2124 27.2107 80.0684 27.0347 79.7804 26.928C79.4924 26.8213 79.0497 26.7307 78.4524 26.656C77.7484 26.5493 77.167 26.4267 76.7084 26.288C76.2497 26.1493 75.8497 25.904 75.5084 25.552C75.1777 25.2 75.0124 24.6987 75.0124 24.048C75.0124 23.504 75.167 23.024 75.4764 22.608C75.7964 22.1813 76.255 21.8507 76.8524 21.616C77.4604 21.3813 78.175 21.264 78.9964 21.264C79.6044 21.264 80.207 21.3333 80.8044 21.472C81.4124 21.6 81.9137 21.7813 82.3084 22.016L81.4764 23.792C80.719 23.3653 79.8924 23.152 78.9964 23.152C78.463 23.152 78.063 23.2267 77.7964 23.376C77.5297 23.5253 77.3964 23.7173 77.3964 23.952C77.3964 24.2187 77.5404 24.4053 77.8284 24.512C78.1164 24.6187 78.575 24.72 79.2044 24.816C79.9084 24.9333 80.4844 25.0613 80.9324 25.2C81.3804 25.328 81.7697 25.568 82.1004 25.92C82.431 26.272 82.5964 26.7627 82.5964 27.392C82.5964 27.9253 82.4364 28.4 82.1164 28.816C81.7964 29.232 81.327 29.5573 80.7084 29.792C80.1004 30.016 79.375 30.128 78.5324 30.128ZM89.6884 29.584C89.443 29.7653 89.139 29.904 88.7764 30C88.4244 30.0853 88.051 30.128 87.6564 30.128C86.6324 30.128 85.8377 29.8667 85.2724 29.344C84.7177 28.8213 84.4404 28.0533 84.4404 27.04V23.504H83.1124V21.584H84.4404V19.488H86.9364V21.584H89.0804V23.504H86.9364V27.008C86.9364 27.3707 87.027 27.6533 87.2084 27.856C87.4004 28.048 87.667 28.144 88.0084 28.144C88.403 28.144 88.739 28.0373 89.0164 27.824L89.6884 29.584ZM94.5615 21.264C95.8948 21.264 96.9188 21.584 97.6335 22.224C98.3482 22.8533 98.7055 23.808 98.7055 25.088V30H96.3695V28.928C95.9002 29.728 95.0255 30.128 93.7455 30.128C93.0842 30.128 92.5082 30.016 92.0175 29.792C91.5375 29.568 91.1695 29.2587 90.9135 28.864C90.6575 28.4693 90.5295 28.0213 90.5295 27.52C90.5295 26.72 90.8282 26.0907 91.4255 25.632C92.0335 25.1733 92.9668 24.944 94.2255 24.944H96.2095C96.2095 24.4 96.0442 23.984 95.7135 23.696C95.3828 23.3973 94.8868 23.248 94.2255 23.248C93.7668 23.248 93.3135 23.3227 92.8655 23.472C92.4282 23.6107 92.0548 23.8027 91.7455 24.048L90.8495 22.304C91.3188 21.9733 91.8788 21.7173 92.5295 21.536C93.1908 21.3547 93.8682 21.264 94.5615 21.264ZM94.3695 28.448C94.7962 28.448 95.1748 28.352 95.5055 28.16C95.8362 27.9573 96.0708 27.664 96.2095 27.28V26.4H94.4975C93.4735 26.4 92.9615 26.736 92.9615 27.408C92.9615 27.728 93.0842 27.984 93.3295 28.176C93.5855 28.3573 93.9322 28.448 94.3695 28.448ZM109.826 18.128V30H107.442V29.008C106.824 29.7547 105.928 30.128 104.754 30.128C103.944 30.128 103.208 29.9467 102.546 29.584C101.896 29.2213 101.384 28.704 101.01 28.032C100.637 27.36 100.45 26.5813 100.45 25.696C100.45 24.8107 100.637 24.032 101.01 23.36C101.384 22.688 101.896 22.1707 102.546 21.808C103.208 21.4453 103.944 21.264 104.754 21.264C105.853 21.264 106.712 21.6107 107.33 22.304V18.128H109.826ZM105.186 28.08C105.816 28.08 106.338 27.8667 106.754 27.44C107.17 27.0027 107.378 26.4213 107.378 25.696C107.378 24.9707 107.17 24.3947 106.754 23.968C106.338 23.5307 105.816 23.312 105.186 23.312C104.546 23.312 104.018 23.5307 103.602 23.968C103.186 24.3947 102.978 24.9707 102.978 25.696C102.978 26.4213 103.186 27.0027 103.602 27.44C104.018 27.8667 104.546 28.08 105.186 28.08ZM116.232 30.128C115.326 30.128 114.51 29.9413 113.784 29.568C113.07 29.184 112.51 28.656 112.104 27.984C111.699 27.312 111.496 26.5493 111.496 25.696C111.496 24.8427 111.699 24.08 112.104 23.408C112.51 22.736 113.07 22.2133 113.784 21.84C114.51 21.456 115.326 21.264 116.232 21.264C117.139 21.264 117.95 21.456 118.664 21.84C119.379 22.2133 119.939 22.736 120.344 23.408C120.75 24.08 120.952 24.8427 120.952 25.696C120.952 26.5493 120.75 27.312 120.344 27.984C119.939 28.656 119.379 29.184 118.664 29.568C117.95 29.9413 117.139 30.128 116.232 30.128ZM116.232 28.08C116.872 28.08 117.395 27.8667 117.8 27.44C118.216 27.0027 118.424 26.4213 118.424 25.696C118.424 24.9707 118.216 24.3947 117.8 23.968C117.395 23.5307 116.872 23.312 116.232 23.312C115.592 23.312 115.064 23.5307 114.648 23.968C114.232 24.3947 114.024 24.9707 114.024 25.696C114.024 26.4213 114.232 27.0027 114.648 27.44C115.064 27.8667 115.592 28.08 116.232 28.08Z" fill="#9E9E9E"/>
</svg>
