<svg width="201" height="54" viewBox="0 0 201 54" fill="none" xmlns="http://www.w3.org/2000/svg">
<g filter="url(#filter0_d_4152_35155)">
<rect x="2" width="197" height="48" rx="24" fill="#2F80ED"/>
<path fill-rule="evenodd" clip-rule="evenodd" d="M38 23H32V17C32 16.447 31.552 16 31 16C30.448 16 30 16.447 30 17V23H24C23.448 23 23 23.447 23 24C23 24.553 23.448 25 24 25H30V31C30 31.553 30.448 32 31 32C31.552 32 32 31.553 32 31V25H38C38.552 25 39 24.553 39 24C39 23.447 38.552 23 38 23Z" fill="white"/>
<path d="M65.704 27.6H60.504L59.512 30H56.856L61.848 18.8H64.408L69.416 30H66.696L65.704 27.6ZM64.888 25.632L63.112 21.344L61.336 25.632H64.888ZM79.0919 18.128V30H76.7079V29.008C76.0892 29.7547 75.1932 30.128 74.0199 30.128C73.2092 30.128 72.4732 29.9467 71.8119 29.584C71.1612 29.2213 70.6492 28.704 70.2759 28.032C69.9025 27.36 69.7159 26.5813 69.7159 25.696C69.7159 24.8107 69.9025 24.032 70.2759 23.36C70.6492 22.688 71.1612 22.1707 71.8119 21.808C72.4732 21.4453 73.2092 21.264 74.0199 21.264C75.1185 21.264 75.9772 21.6107 76.5959 22.304V18.128H79.0919ZM74.4519 28.08C75.0812 28.08 75.6039 27.8667 76.0199 27.44C76.4359 27.0027 76.6439 26.4213 76.6439 25.696C76.6439 24.9707 76.4359 24.3947 76.0199 23.968C75.6039 23.5307 75.0812 23.312 74.4519 23.312C73.8119 23.312 73.2839 23.5307 72.8679 23.968C72.4519 24.3947 72.2439 24.9707 72.2439 25.696C72.2439 26.4213 72.4519 27.0027 72.8679 27.44C73.2839 27.8667 73.8119 28.08 74.4519 28.08ZM81.402 21.392H83.898V30H81.402V21.392ZM82.65 20.192C82.1913 20.192 81.818 20.0587 81.53 19.792C81.242 19.5253 81.098 19.1947 81.098 18.8C81.098 18.4053 81.242 18.0747 81.53 17.808C81.818 17.5413 82.1913 17.408 82.65 17.408C83.1087 17.408 83.482 17.536 83.77 17.792C84.058 18.048 84.202 18.368 84.202 18.752C84.202 19.168 84.058 19.5147 83.77 19.792C83.482 20.0587 83.1087 20.192 82.65 20.192ZM90.3745 30.128C89.4572 30.128 88.6305 29.9413 87.8945 29.568C87.1692 29.184 86.5985 28.656 86.1825 27.984C85.7772 27.312 85.5745 26.5493 85.5745 25.696C85.5745 24.8427 85.7772 24.08 86.1825 23.408C86.5985 22.736 87.1692 22.2133 87.8945 21.84C88.6305 21.456 89.4572 21.264 90.3745 21.264C91.2812 21.264 92.0705 21.456 92.7425 21.84C93.4252 22.2133 93.9212 22.752 94.2305 23.456L92.2945 24.496C91.8465 23.7067 91.2012 23.312 90.3585 23.312C89.7078 23.312 89.1692 23.5253 88.7425 23.952C88.3158 24.3787 88.1025 24.96 88.1025 25.696C88.1025 26.432 88.3158 27.0133 88.7425 27.44C89.1692 27.8667 89.7078 28.08 90.3585 28.08C91.2118 28.08 91.8572 27.6853 92.2945 26.896L94.2305 27.952C93.9212 28.6347 93.4252 29.168 92.7425 29.552C92.0705 29.936 91.2812 30.128 90.3745 30.128ZM95.6676 21.392H98.1636V30H95.6676V21.392ZM96.9156 20.192C96.457 20.192 96.0836 20.0587 95.7956 19.792C95.5076 19.5253 95.3636 19.1947 95.3636 18.8C95.3636 18.4053 95.5076 18.0747 95.7956 17.808C96.0836 17.5413 96.457 17.408 96.9156 17.408C97.3743 17.408 97.7476 17.536 98.0356 17.792C98.3236 18.048 98.4676 18.368 98.4676 18.752C98.4676 19.168 98.3236 19.5147 98.0356 19.792C97.7476 20.0587 97.3743 20.192 96.9156 20.192ZM104.576 30.128C103.669 30.128 102.853 29.9413 102.128 29.568C101.413 29.184 100.853 28.656 100.448 27.984C100.043 27.312 99.8401 26.5493 99.8401 25.696C99.8401 24.8427 100.043 24.08 100.448 23.408C100.853 22.736 101.413 22.2133 102.128 21.84C102.853 21.456 103.669 21.264 104.576 21.264C105.483 21.264 106.293 21.456 107.008 21.84C107.723 22.2133 108.283 22.736 108.688 23.408C109.093 24.08 109.296 24.8427 109.296 25.696C109.296 26.5493 109.093 27.312 108.688 27.984C108.283 28.656 107.723 29.184 107.008 29.568C106.293 29.9413 105.483 30.128 104.576 30.128ZM104.576 28.08C105.216 28.08 105.739 27.8667 106.144 27.44C106.56 27.0027 106.768 26.4213 106.768 25.696C106.768 24.9707 106.56 24.3947 106.144 23.968C105.739 23.5307 105.216 23.312 104.576 23.312C103.936 23.312 103.408 23.5307 102.992 23.968C102.576 24.3947 102.368 24.9707 102.368 25.696C102.368 26.4213 102.576 27.0027 102.992 27.44C103.408 27.8667 103.936 28.08 104.576 28.08ZM116.197 21.264C117.263 21.264 118.122 21.584 118.773 22.224C119.434 22.864 119.765 23.8133 119.765 25.072V30H117.269V25.456C117.269 24.7733 117.119 24.2667 116.821 23.936C116.522 23.5947 116.09 23.424 115.525 23.424C114.895 23.424 114.394 23.6213 114.021 24.016C113.647 24.4 113.461 24.976 113.461 25.744V30H110.965V21.392H113.349V22.4C113.679 22.0373 114.09 21.76 114.581 21.568C115.071 21.3653 115.61 21.264 116.197 21.264ZM125.499 21.264C126.832 21.264 127.856 21.584 128.571 22.224C129.286 22.8533 129.643 23.808 129.643 25.088V30H127.307V28.928C126.838 29.728 125.963 30.128 124.683 30.128C124.022 30.128 123.446 30.016 122.955 29.792C122.475 29.568 122.107 29.2587 121.851 28.864C121.595 28.4693 121.467 28.0213 121.467 27.52C121.467 26.72 121.766 26.0907 122.363 25.632C122.971 25.1733 123.904 24.944 125.163 24.944H127.147C127.147 24.4 126.982 23.984 126.651 23.696C126.32 23.3973 125.824 23.248 125.163 23.248C124.704 23.248 124.251 23.3227 123.803 23.472C123.366 23.6107 122.992 23.8027 122.683 24.048L121.787 22.304C122.256 21.9733 122.816 21.7173 123.467 21.536C124.128 21.3547 124.806 21.264 125.499 21.264ZM125.307 28.448C125.734 28.448 126.112 28.352 126.443 28.16C126.774 27.9573 127.008 27.664 127.147 27.28V26.4H125.435C124.411 26.4 123.899 26.736 123.899 27.408C123.899 27.728 124.022 27.984 124.267 28.176C124.523 28.3573 124.87 28.448 125.307 28.448ZM134.286 22.528C134.585 22.112 134.985 21.7973 135.486 21.584C135.998 21.3707 136.585 21.264 137.246 21.264V23.568C136.969 23.5467 136.782 23.536 136.686 23.536C135.971 23.536 135.411 23.7387 135.006 24.144C134.601 24.5387 134.398 25.136 134.398 25.936V30H131.902V21.392H134.286V22.528Z" fill="white"/>
<g clip-path="url(#clip0_4152_35155)">
<path d="M170 28L164 22H176L170 28Z" fill="white"/>
</g>
</g>
<defs>
<filter id="filter0_d_4152_35155" x="0" y="0" width="201" height="54" filterUnits="userSpaceOnUse" color-interpolation-filters="sRGB">
<feFlood flood-opacity="0" result="BackgroundImageFix"/>
<feColorMatrix in="SourceAlpha" type="matrix" values="0 0 0 0 0 0 0 0 0 0 0 0 0 0 0 0 0 0 127 0" result="hardAlpha"/>
<feOffset dy="4"/>
<feGaussianBlur stdDeviation="1"/>
<feColorMatrix type="matrix" values="0 0 0 0 0 0 0 0 0 0 0 0 0 0 0 0 0 0 0.15 0"/>
<feBlend mode="normal" in2="BackgroundImageFix" result="effect1_dropShadow_4152_35155"/>
<feBlend mode="normal" in="SourceGraphic" in2="effect1_dropShadow_4152_35155" result="shape"/>
</filter>
<clipPath id="clip0_4152_35155">
<rect width="24" height="24" fill="white" transform="translate(158 12)"/>
</clipPath>
</defs>
</svg>
