<svg width="25" height="24" viewBox="0 0 25 24" fill="none" xmlns="http://www.w3.org/2000/svg">
<path fill-rule="evenodd" clip-rule="evenodd" d="M15.792 3.878L20.621 8.707C21.183 9.269 21.5 10.033 21.5 10.829V18C21.5 19.657 20.157 21 18.5 21H16.5V17C16.5 15.897 15.602 15 14.5 15H10.5C9.397 15 8.5 15.897 8.5 17V21H6.5C4.843 21 3.5 19.657 3.5 18V6C3.5 4.343 4.843 3 6.5 3H8.5V10C8.5 10.552 8.947 11 9.5 11H15.5C16.053 11 16.5 10.552 16.5 10C16.5 9.448 16.053 9 15.5 9H10.5V3H13.672C14.467 3 15.23 3.316 15.792 3.878ZM10.4999 17H14.4999L14.5009 21H10.4999V17Z" fill="white"/>
</svg>
