<svg width="130" height="40" viewBox="0 0 166 48" fill="none" xmlns="http://www.w3.org/2000/svg">
<rect width="166" height="48" rx="8" fill="#F5F5F5"/>
<path d="M37.8046 18.8H42.8926C44.1086 18.8 45.1806 19.0347 46.1086 19.504C47.0472 19.9627 47.7726 20.6133 48.2846 21.456C48.8072 22.2987 49.0686 23.28 49.0686 24.4C49.0686 25.52 48.8072 26.5013 48.2846 27.344C47.7726 28.1867 47.0472 28.8427 46.1086 29.312C45.1806 29.7707 44.1086 30 42.8926 30H37.8046V18.8ZM42.7646 27.872C43.8846 27.872 44.7752 27.5627 45.4366 26.944C46.1086 26.3147 46.4446 25.4667 46.4446 24.4C46.4446 23.3333 46.1086 22.4907 45.4366 21.872C44.7752 21.2427 43.8846 20.928 42.7646 20.928H40.3966V27.872H42.7646ZM59.2793 25.728C59.2793 25.76 59.2633 25.984 59.2313 26.4H52.7193C52.8366 26.9333 53.114 27.3547 53.5513 27.664C53.9886 27.9733 54.5326 28.128 55.1833 28.128C55.6313 28.128 56.026 28.064 56.3673 27.936C56.7193 27.7973 57.0446 27.584 57.3433 27.296L58.6713 28.736C57.8606 29.664 56.6766 30.128 55.1193 30.128C54.1486 30.128 53.29 29.9413 52.5433 29.568C51.7966 29.184 51.2206 28.656 50.8153 27.984C50.41 27.312 50.2073 26.5493 50.2073 25.696C50.2073 24.8533 50.4046 24.096 50.7993 23.424C51.2046 22.7413 51.754 22.2133 52.4473 21.84C53.1513 21.456 53.9353 21.264 54.7993 21.264C55.642 21.264 56.4046 21.4453 57.0873 21.808C57.77 22.1707 58.3033 22.6933 58.6873 23.376C59.082 24.048 59.2793 24.832 59.2793 25.728ZM54.8153 23.152C54.25 23.152 53.7753 23.312 53.3913 23.632C53.0073 23.952 52.7726 24.3893 52.6873 24.944H56.9273C56.842 24.4 56.6073 23.968 56.2233 23.648C55.8393 23.3173 55.37 23.152 54.8153 23.152ZM65.1011 30.128C64.1837 30.128 63.3571 29.9413 62.6211 29.568C61.8957 29.184 61.3251 28.656 60.9091 27.984C60.5037 27.312 60.3011 26.5493 60.3011 25.696C60.3011 24.8427 60.5037 24.08 60.9091 23.408C61.3251 22.736 61.8957 22.2133 62.6211 21.84C63.3571 21.456 64.1837 21.264 65.1011 21.264C66.0077 21.264 66.7971 21.456 67.4691 21.84C68.1517 22.2133 68.6477 22.752 68.9571 23.456L67.0211 24.496C66.5731 23.7067 65.9277 23.312 65.0851 23.312C64.4344 23.312 63.8957 23.5253 63.4691 23.952C63.0424 24.3787 62.8291 24.96 62.8291 25.696C62.8291 26.432 63.0424 27.0133 63.4691 27.44C63.8957 27.8667 64.4344 28.08 65.0851 28.08C65.9384 28.08 66.5837 27.6853 67.0211 26.896L68.9571 27.952C68.6477 28.6347 68.1517 29.168 67.4691 29.552C66.7971 29.936 66.0077 30.128 65.1011 30.128ZM70.3317 18.128H72.8277V30H70.3317V18.128ZM78.6162 21.264C79.9495 21.264 80.9735 21.584 81.6882 22.224C82.4029 22.8533 82.7602 23.808 82.7602 25.088V30H80.4242V28.928C79.9549 29.728 79.0802 30.128 77.8002 30.128C77.1389 30.128 76.5629 30.016 76.0722 29.792C75.5922 29.568 75.2242 29.2587 74.9682 28.864C74.7122 28.4693 74.5842 28.0213 74.5842 27.52C74.5842 26.72 74.8829 26.0907 75.4802 25.632C76.0882 25.1733 77.0215 24.944 78.2802 24.944H80.2642C80.2642 24.4 80.0989 23.984 79.7682 23.696C79.4375 23.3973 78.9415 23.248 78.2802 23.248C77.8215 23.248 77.3682 23.3227 76.9202 23.472C76.4829 23.6107 76.1095 23.8027 75.8002 24.048L74.9042 22.304C75.3735 21.9733 75.9335 21.7173 76.5842 21.536C77.2455 21.3547 77.9229 21.264 78.6162 21.264ZM78.4242 28.448C78.8509 28.448 79.2295 28.352 79.5602 28.16C79.8909 27.9573 80.1255 27.664 80.2642 27.28V26.4H78.5522C77.5282 26.4 77.0162 26.736 77.0162 27.408C77.0162 27.728 77.1389 27.984 77.3842 28.176C77.6402 28.3573 77.9869 28.448 78.4242 28.448ZM87.4032 22.528C87.7019 22.112 88.1019 21.7973 88.6032 21.584C89.1152 21.3707 89.7019 21.264 90.3632 21.264V23.568C90.0859 23.5467 89.8992 23.536 89.8032 23.536C89.0885 23.536 88.5285 23.7387 88.1232 24.144C87.7179 24.5387 87.5152 25.136 87.5152 25.936V30H85.0192V21.392H87.4032V22.528ZM95.2724 21.264C96.6058 21.264 97.6298 21.584 98.3444 22.224C99.0591 22.8533 99.4164 23.808 99.4164 25.088V30H97.0804V28.928C96.6111 29.728 95.7364 30.128 94.4564 30.128C93.7951 30.128 93.2191 30.016 92.7284 29.792C92.2484 29.568 91.8804 29.2587 91.6244 28.864C91.3684 28.4693 91.2404 28.0213 91.2404 27.52C91.2404 26.72 91.5391 26.0907 92.1364 25.632C92.7444 25.1733 93.6778 24.944 94.9364 24.944H96.9204C96.9204 24.4 96.7551 23.984 96.4244 23.696C96.0938 23.3973 95.5978 23.248 94.9364 23.248C94.4778 23.248 94.0244 23.3227 93.5764 23.472C93.1391 23.6107 92.7658 23.8027 92.4564 24.048L91.5604 22.304C92.0298 21.9733 92.5898 21.7173 93.2404 21.536C93.9018 21.3547 94.5791 21.264 95.2724 21.264ZM95.0804 28.448C95.5071 28.448 95.8858 28.352 96.2164 28.16C96.5471 27.9573 96.7818 27.664 96.9204 27.28V26.4H95.2084C94.1844 26.4 93.6724 26.736 93.6724 27.408C93.6724 27.728 93.7951 27.984 94.0404 28.176C94.2964 28.3573 94.6431 28.448 95.0804 28.448ZM105.929 30.128C105.012 30.128 104.185 29.9413 103.449 29.568C102.724 29.184 102.153 28.656 101.737 27.984C101.332 27.312 101.129 26.5493 101.129 25.696C101.129 24.8427 101.332 24.08 101.737 23.408C102.153 22.736 102.724 22.2133 103.449 21.84C104.185 21.456 105.012 21.264 105.929 21.264C106.836 21.264 107.625 21.456 108.297 21.84C108.98 22.2133 109.476 22.752 109.785 23.456L107.849 24.496C107.401 23.7067 106.756 23.312 105.913 23.312C105.263 23.312 104.724 23.5253 104.297 23.952C103.871 24.3787 103.657 24.96 103.657 25.696C103.657 26.432 103.871 27.0133 104.297 27.44C104.724 27.8667 105.263 28.08 105.913 28.08C106.767 28.08 107.412 27.6853 107.849 26.896L109.785 27.952C109.476 28.6347 108.98 29.168 108.297 29.552C107.625 29.936 106.836 30.128 105.929 30.128ZM105.017 33.712C104.74 33.712 104.468 33.68 104.201 33.616C103.935 33.5627 103.711 33.4827 103.529 33.376L103.913 32.304C104.255 32.464 104.601 32.544 104.953 32.544C105.508 32.544 105.785 32.3733 105.785 32.032C105.785 31.7227 105.524 31.568 105.001 31.568H104.457L104.873 29.872H106.201L105.977 30.8C106.447 30.8533 106.793 30.9973 107.017 31.232C107.252 31.4773 107.369 31.776 107.369 32.128C107.369 32.6187 107.156 33.0027 106.729 33.28C106.303 33.568 105.732 33.712 105.017 33.712ZM114.694 21.264C116.028 21.264 117.052 21.584 117.766 22.224C118.481 22.8533 118.838 23.808 118.838 25.088V30H116.502V28.928C116.033 29.728 115.158 30.128 113.878 30.128C113.217 30.128 112.641 30.016 112.15 29.792C111.67 29.568 111.302 29.2587 111.046 28.864C110.79 28.4693 110.662 28.0213 110.662 27.52C110.662 26.72 110.961 26.0907 111.558 25.632C112.166 25.1733 113.1 24.944 114.358 24.944H116.342C116.342 24.4 116.177 23.984 115.846 23.696C115.516 23.3973 115.02 23.248 114.358 23.248C113.9 23.248 113.446 23.3227 112.998 23.472C112.561 23.6107 112.188 23.8027 111.878 24.048L110.982 22.304C111.452 21.9733 112.012 21.7173 112.662 21.536C113.324 21.3547 114.001 21.264 114.694 21.264ZM114.502 28.448C114.929 28.448 115.308 28.352 115.638 28.16C115.969 27.9573 116.204 27.664 116.342 27.28V26.4H114.63C113.606 26.4 113.094 26.736 113.094 27.408C113.094 27.728 113.217 27.984 113.462 28.176C113.718 28.3573 114.065 28.448 114.502 28.448ZM116.15 20.336C115.862 20.336 115.606 20.2827 115.382 20.176C115.169 20.0587 114.929 19.904 114.662 19.712C114.492 19.584 114.348 19.488 114.23 19.424C114.124 19.36 114.017 19.328 113.91 19.328C113.686 19.328 113.505 19.408 113.366 19.568C113.228 19.7173 113.153 19.936 113.142 20.224H111.878C111.9 19.5093 112.076 18.944 112.406 18.528C112.748 18.1013 113.196 17.888 113.75 17.888C114.028 17.888 114.273 17.9467 114.486 18.064C114.71 18.1707 114.961 18.3253 115.238 18.528C115.409 18.656 115.548 18.752 115.654 18.816C115.772 18.88 115.884 18.912 115.99 18.912C116.204 18.912 116.38 18.8373 116.518 18.688C116.668 18.528 116.748 18.3147 116.758 18.048H118.022C118.001 18.7413 117.82 19.296 117.478 19.712C117.148 20.128 116.705 20.336 116.15 20.336ZM125.287 30.128C124.38 30.128 123.564 29.9413 122.839 29.568C122.124 29.184 121.564 28.656 121.159 27.984C120.754 27.312 120.551 26.5493 120.551 25.696C120.551 24.8427 120.754 24.08 121.159 23.408C121.564 22.736 122.124 22.2133 122.839 21.84C123.564 21.456 124.38 21.264 125.287 21.264C126.194 21.264 127.004 21.456 127.719 21.84C128.434 22.2133 128.994 22.736 129.399 23.408C129.804 24.08 130.007 24.8427 130.007 25.696C130.007 26.5493 129.804 27.312 129.399 27.984C128.994 28.656 128.434 29.184 127.719 29.568C127.004 29.9413 126.194 30.128 125.287 30.128ZM125.287 28.08C125.927 28.08 126.45 27.8667 126.855 27.44C127.271 27.0027 127.479 26.4213 127.479 25.696C127.479 24.9707 127.271 24.3947 126.855 23.968C126.45 23.5307 125.927 23.312 125.287 23.312C124.647 23.312 124.119 23.5307 123.703 23.968C123.287 24.3947 123.079 24.9707 123.079 25.696C123.079 26.4213 123.287 27.0027 123.703 27.44C124.119 27.8667 124.647 28.08 125.287 28.08Z" fill="#9E9E9E"/>
</svg>
