<svg width="20" height="20" viewBox="0 0 20 20" fill="none" xmlns="http://www.w3.org/2000/svg">
<path fill-rule="evenodd" clip-rule="evenodd" d="M10 8.5C9.173 8.5 8.5 9.173 8.5 10C8.5 10.827 9.173 11.5 10 11.5C10.827 11.5 11.5 10.827 11.5 10C11.5 9.173 10.827 8.5 10 8.5ZM10 13.5C8.07 13.5 6.5 11.93 6.5 10C6.5 8.07 8.07 6.5 10 6.5C11.93 6.5 13.5 8.07 13.5 10C13.5 11.93 11.93 13.5 10 13.5ZM18.317 7.375H17.233C17.086 7.375 16.986 7.258 16.925 7.111C16.879 7 16.867 6.846 16.972 6.741L17.742 5.975C18.06 5.658 18.236 5.235 18.236 4.787C18.236 4.337 18.062 3.915 17.744 3.598L16.403 2.257C15.749 1.601 14.682 1.603 14.026 2.257L13.256 3.028C13.152 3.133 12.998 3.12 12.853 3.06C12.743 3.015 12.625 2.914 12.625 2.767V1.676C12.625 0.752 11.874 0 10.949 0H9.057C8.129 0 7.375 0.755 7.375 1.683V2.767C7.375 2.914 7.258 3.014 7.111 3.075C7 3.122 6.845 3.134 6.741 3.028L5.976 2.259C5.658 1.94 5.236 1.765 4.787 1.765H4.785C4.336 1.765 3.914 1.939 3.597 2.257L2.257 3.597C1.602 4.251 1.602 5.317 2.257 5.974L3.028 6.744C3.132 6.848 3.12 7.003 3.06 7.147C3.015 7.257 2.914 7.375 2.767 7.375H1.676C0.752 7.375 0 8.126 0 9.051V10.943C0 11.871 0.755 12.625 1.683 12.625H2.767C2.914 12.625 3.014 12.742 3.075 12.889C3.121 13 3.133 13.154 3.028 13.259L2.259 14.024C1.94 14.342 1.765 14.764 1.765 15.213C1.764 15.663 1.939 16.085 2.257 16.403L3.597 17.743C4.251 18.399 5.318 18.397 5.974 17.743L6.744 16.972C6.849 16.869 7.003 16.881 7.147 16.94C7.257 16.985 7.375 17.086 7.375 17.233V18.324C7.375 19.248 8.126 20 9.051 20H10.943C11.871 20 12.625 19.245 12.625 18.317V17.233C12.625 17.086 12.742 16.986 12.889 16.925C12.999 16.879 13.154 16.867 13.259 16.972L14.024 17.741C14.342 18.06 14.764 18.235 15.213 18.235H15.215C15.664 18.235 16.086 18.061 16.403 17.743L17.743 16.403C18.398 15.749 18.398 14.683 17.743 14.026L16.972 13.256C16.868 13.152 16.88 12.997 16.927 12.886C16.927 12.884 16.94 12.854 16.94 12.853C16.985 12.743 17.086 12.625 17.233 12.625H18.324C19.248 12.625 20 11.874 20 10.949V9.057C20 8.129 19.245 7.375 18.317 7.375Z" fill="white"/>
</svg>
