<svg width="25" height="25" viewBox="0 0 36 30" fill="none" xmlns="http://www.w3.org/2000/svg">
<g filter="url(#filter0_d_6233_9803)">
<rect x="2" width="32" height="24" rx="8" fill="white"/>
<g clip-path="url(#clip0_6233_9803)">
<path d="M17.9998 6C21.5944 6 24.5851 8.58667 25.2124 12C24.5858 15.4133 21.5944 18 17.9998 18C14.4051 18 11.4144 15.4133 10.7871 12C11.4138 8.58667 14.4051 6 17.9998 6ZM17.9998 16.6667C19.3594 16.6664 20.6787 16.2045 21.7417 15.3568C22.8047 14.509 23.5484 13.3255 23.8511 12C23.5473 10.6755 22.8031 9.49334 21.7402 8.64668C20.6773 7.80003 19.3586 7.33902 17.9998 7.33902C16.6409 7.33902 15.3222 7.80003 14.2594 8.64668C13.1965 9.49334 12.4523 10.6755 12.1484 12C12.4512 13.3255 13.1949 14.509 14.2579 15.3568C15.3209 16.2045 16.6401 16.6664 17.9998 16.6667ZM17.9998 15C17.2041 15 16.4411 14.6839 15.8785 14.1213C15.3158 13.5587 14.9998 12.7956 14.9998 12C14.9998 11.2044 15.3158 10.4413 15.8785 9.87868C16.4411 9.31607 17.2041 9 17.9998 9C18.7954 9 19.5585 9.31607 20.1211 9.87868C20.6837 10.4413 20.9998 11.2044 20.9998 12C20.9998 12.7956 20.6837 13.5587 20.1211 14.1213C19.5585 14.6839 18.7954 15 17.9998 15ZM17.9998 13.6667C18.4418 13.6667 18.8657 13.4911 19.1783 13.1785C19.4908 12.866 19.6664 12.442 19.6664 12C19.6664 11.558 19.4908 11.134 19.1783 10.8215C18.8657 10.5089 18.4418 10.3333 17.9998 10.3333C17.5577 10.3333 17.1338 10.5089 16.8213 10.8215C16.5087 11.134 16.3331 11.558 16.3331 12C16.3331 12.442 16.5087 12.866 16.8213 13.1785C17.1338 13.4911 17.5577 13.6667 17.9998 13.6667Z" fill="#017849"/>
</g>
<rect x="2.5" y="0.5" width="31" height="23" rx="7.5" stroke="#017849"/>
</g>
<defs>
<filter id="filter0_d_6233_9803" x="0" y="0" width="36" height="30" filterUnits="userSpaceOnUse" color-interpolation-filters="sRGB">
<feFlood flood-opacity="0" result="BackgroundImageFix"/>
<feColorMatrix in="SourceAlpha" type="matrix" values="0 0 0 0 0 0 0 0 0 0 0 0 0 0 0 0 0 0 127 0" result="hardAlpha"/>
<feOffset dy="4"/>
<feGaussianBlur stdDeviation="1"/>
<feColorMatrix type="matrix" values="0 0 0 0 0 0 0 0 0 0 0 0 0 0 0 0 0 0 0.15 0"/>
<feBlend mode="normal" in2="BackgroundImageFix" result="effect1_dropShadow_6233_9803"/>
<feBlend mode="normal" in="SourceGraphic" in2="effect1_dropShadow_6233_9803" result="shape"/>
</filter>
<clipPath id="clip0_6233_9803">
<rect width="16" height="16" fill="white" transform="translate(10 4)"/>
</clipPath>
</defs>
</svg>
