<svg width="13" height="13" viewBox="0 0 13 13" fill="none" xmlns="http://www.w3.org/2000/svg">
<path d="M5.08638 5.31125L3.84042 6.56508H3.21744V5.31125H5.08638ZM11.0919 3.02927L12.5621 1.54975L11.6277 0.609375L1.03701 11.267L1.97148 12.2073L7.5783 6.56508H9.44724V5.31125H8.82426L10.0702 4.05742C10.7574 4.05742 11.3162 4.61976 11.3162 5.31125V6.56508C11.3162 7.25657 10.7574 7.81892 10.0702 7.81892H6.96965C7.53843 8.57623 8.43178 9.07275 9.44724 9.07275H10.0702C11.447 9.07275 12.5621 7.95057 12.5621 6.56508V5.31125C12.5621 4.29376 11.9579 3.42235 11.0919 3.02927ZM1.57277 8.84706L2.59446 7.81892C1.90731 7.81892 1.3485 7.25657 1.3485 6.56508V5.31125C1.3485 4.61976 1.90731 4.05742 2.59446 4.05742H5.69503C5.12687 3.3001 4.2329 2.80358 3.21744 2.80358H2.59446C1.21767 2.80358 0.102539 3.92576 0.102539 5.31125V6.56508C0.102539 7.58257 0.70683 8.45398 1.57277 8.84706Z" fill="#828282"/>
</svg>
