<svg width="13" height="14" viewBox="0 0 13 14" fill="none" xmlns="http://www.w3.org/2000/svg">
<path d="M7.97844 5.05956C9.4324 6.52422 9.41244 8.87243 7.9872 10.3146C7.98453 10.3176 7.98136 10.3208 7.97844 10.3237L6.34312 11.9693C4.90077 13.4208 2.55416 13.4206 1.11203 11.9693C-0.330313 10.5181 -0.330313 8.15643 1.11203 6.70521L2.01501 5.79653C2.25447 5.55556 2.66685 5.71572 2.67922 6.05626C2.69499 6.49025 2.77232 6.92628 2.91502 7.34734C2.96335 7.48991 2.92882 7.64762 2.82297 7.75415L2.50449 8.07463C1.82247 8.76096 1.80108 9.87848 2.47638 10.5715C3.15835 11.2714 4.27928 11.2755 4.96648 10.584L6.6018 8.9386C7.28783 8.24823 7.28496 7.13237 6.6018 6.4449C6.51174 6.35444 6.42102 6.28415 6.35015 6.23505C6.30002 6.20041 6.25863 6.15446 6.22928 6.10086C6.19992 6.04726 6.18342 5.9875 6.1811 5.92635C6.17146 5.66757 6.26257 5.40091 6.46577 5.19643L6.97812 4.68082C7.11248 4.54561 7.32324 4.52901 7.47904 4.63843C7.65745 4.7638 7.82457 4.90472 7.97844 5.05956ZM11.4081 1.60805C9.96599 0.15679 7.61938 0.156594 6.17703 1.60805L4.54171 3.2537C4.53879 3.25664 4.53563 3.25982 4.53295 3.26276C3.10773 4.70496 3.08776 7.05318 4.54171 8.51783C4.69558 8.67267 4.86268 8.81358 5.04109 8.93894C5.19689 9.04836 5.40768 9.03173 5.54201 8.89655L6.05436 8.38094C6.25756 8.17646 6.34867 7.9098 6.33903 7.65102C6.3367 7.58987 6.3202 7.53011 6.29085 7.47651C6.2615 7.42291 6.22011 7.37696 6.16998 7.34232C6.09911 7.29322 6.00839 7.22293 5.91832 7.13247C5.23516 6.445 5.23229 5.32914 5.91832 4.63877L7.55365 2.99336C8.24085 2.30182 9.36175 2.30598 10.0437 3.00585C10.719 3.69889 10.6977 4.81641 10.0156 5.50274L9.69716 5.82322C9.5913 5.92975 9.55677 6.08746 9.6051 6.23003C9.7478 6.65109 9.82514 7.08712 9.84091 7.52111C9.8533 7.86165 10.2657 8.02181 10.5051 7.78084L11.4081 6.87216C12.8505 5.42097 12.8505 3.05926 11.4081 1.60805Z" fill="black"/>
</svg>
