<svg width="12" height="12" viewBox="0 0 12 12" fill="none" xmlns="http://www.w3.org/2000/svg">
<path d="M11.6244 5.94989V6.99475H9.34536C9.86451 8.11275 9.83855 11.1742 6.11105 11.1742C1.78653 11.2003 1.95266 7.7784 1.95266 7.7784L4.01369 7.80452C4.02926 9.56511 5.6542 9.56511 5.97608 9.54421C6.30833 9.51809 7.5491 9.52332 7.64774 8.30083C7.68927 7.73138 7.11821 7.29776 6.49523 6.99475H0.203125V5.94989H11.6244ZM9.76068 3.8027L7.69446 3.78703C7.69446 3.78703 7.78272 2.33989 5.99165 2.33467C4.20058 2.32422 4.35633 3.48402 4.35633 3.6303C4.37709 3.77658 4.53284 4.49753 5.91378 4.84234H2.64832C2.64832 4.84234 0.836488 1.32638 5.25965 0.725584C9.78145 0.0986677 9.77106 3.81315 9.76068 3.8027Z" fill="black"/>
</svg>
