<svg width="13" height="11" viewBox="0 0 13 11" fill="none" xmlns="http://www.w3.org/2000/svg">
<g filter="url(#filter0_d_5942_7941)">
<path d="M2.87012 8.64453C2.97949 8.64453 3.06543 8.68359 3.12793 8.76172C3.20605 8.82422 3.24512 8.91016 3.24512 9.01953V10.5195C3.24512 10.6289 3.20605 10.7148 3.12793 10.7773C3.06543 10.8555 2.97949 10.8945 2.87012 10.8945H1.37012C1.26074 10.8945 1.16699 10.8555 1.08887 10.7773C1.02637 10.7148 0.995117 10.6289 0.995117 10.5195V9.01953C0.995117 8.91016 1.02637 8.82422 1.08887 8.76172C1.16699 8.68359 1.26074 8.64453 1.37012 8.64453H2.87012ZM2.87012 1.14453C2.97949 1.14453 3.06543 1.18359 3.12793 1.26172C3.20605 1.32422 3.24512 1.41016 3.24512 1.51953V3.01953C3.24512 3.12891 3.20605 3.22266 3.12793 3.30078C3.06543 3.36328 2.97949 3.39453 2.87012 3.39453H1.37012C1.26074 3.39453 1.16699 3.36328 1.08887 3.30078C1.02637 3.22266 0.995117 3.12891 0.995117 3.01953V1.51953C0.995117 1.41016 1.02637 1.32422 1.08887 1.26172C1.16699 1.18359 1.26074 1.14453 1.37012 1.14453H2.87012ZM2.87012 4.89453C2.97949 4.89453 3.06543 4.93359 3.12793 5.01172C3.20605 5.07422 3.24512 5.16016 3.24512 5.26953V6.76953C3.24512 6.87891 3.20605 6.97266 3.12793 7.05078C3.06543 7.11328 2.97949 7.14453 2.87012 7.14453H1.37012C1.26074 7.14453 1.16699 7.11328 1.08887 7.05078C1.02637 6.97266 0.995117 6.87891 0.995117 6.76953V5.26953C0.995117 5.16016 1.02637 5.07422 1.08887 5.01172C1.16699 4.93359 1.26074 4.89453 1.37012 4.89453H2.87012ZM12.6201 9.01953C12.7295 9.01953 12.8154 9.05859 12.8779 9.13672C12.9561 9.19922 12.9951 9.28516 12.9951 9.39453V10.1445C12.9951 10.2539 12.9561 10.3477 12.8779 10.4258C12.8154 10.4883 12.7295 10.5195 12.6201 10.5195H5.12012C5.01074 10.5195 4.91699 10.4883 4.83887 10.4258C4.77637 10.3477 4.74512 10.2539 4.74512 10.1445V9.39453C4.74512 9.28516 4.77637 9.19922 4.83887 9.13672C4.91699 9.05859 5.01074 9.01953 5.12012 9.01953H12.6201ZM12.6201 1.51953C12.7295 1.51953 12.8154 1.55859 12.8779 1.63672C12.9561 1.69922 12.9951 1.78516 12.9951 1.89453V2.64453C12.9951 2.75391 12.9561 2.84766 12.8779 2.92578C12.8154 2.98828 12.7295 3.01953 12.6201 3.01953H5.12012C5.01074 3.01953 4.91699 2.98828 4.83887 2.92578C4.77637 2.84766 4.74512 2.75391 4.74512 2.64453V1.89453C4.74512 1.78516 4.77637 1.69922 4.83887 1.63672C4.91699 1.55859 5.01074 1.51953 5.12012 1.51953H12.6201ZM12.6201 5.26953C12.7295 5.26953 12.8154 5.30859 12.8779 5.38672C12.9561 5.44922 12.9951 5.53516 12.9951 5.64453V6.39453C12.9951 6.50391 12.9561 6.59766 12.8779 6.67578C12.8154 6.73828 12.7295 6.76953 12.6201 6.76953H5.12012C5.01074 6.76953 4.91699 6.73828 4.83887 6.67578C4.77637 6.59766 4.74512 6.50391 4.74512 6.39453V5.64453C4.74512 5.53516 4.77637 5.44922 4.83887 5.38672C4.91699 5.30859 5.01074 5.26953 5.12012 5.26953H12.6201Z" fill="black"/>
</g>
<defs>
<filter id="filter0_d_5942_7941" x="0.995117" y="0.144531" width="12" height="10.75" filterUnits="userSpaceOnUse" color-interpolation-filters="sRGB">
<feFlood flood-opacity="0" result="BackgroundImageFix"/>
<feColorMatrix in="SourceAlpha" type="matrix" values="0 0 0 0 0 0 0 0 0 0 0 0 0 0 0 0 0 0 127 0" result="hardAlpha"/>
<feOffset dy="-1"/>
<feColorMatrix type="matrix" values="0 0 0 0 1 0 0 0 0 1 0 0 0 0 1 0 0 0 1 0"/>
<feBlend mode="normal" in2="BackgroundImageFix" result="effect1_dropShadow_5942_7941"/>
<feBlend mode="normal" in="SourceGraphic" in2="effect1_dropShadow_5942_7941" result="shape"/>
</filter>
</defs>
</svg>
