<svg width="99" height="39" viewBox="0 0 99 39" fill="none" xmlns="http://www.w3.org/2000/svg">
<path d="M2.55392 38.3115C2.07259 38.3115 1.67992 38.1595 1.37592 37.8555C1.07192 37.5515 0.919922 37.1589 0.919922 36.6775V18.9315C0.945255 16.9555 1.41392 15.1822 2.32592 13.6115C3.26326 12.0155 4.51726 10.7615 6.08792 9.84954C7.65859 8.9122 9.43192 8.44354 11.4079 8.44354C13.4346 8.44354 15.2333 8.9122 16.8039 9.84954C18.3999 10.7615 19.6539 12.0155 20.5659 13.6115C21.5033 15.2075 21.9719 17.0189 21.9719 19.0455C21.9719 21.0469 21.5286 22.8455 20.6419 24.4415C19.7806 26.0375 18.5899 27.3042 17.0699 28.2415C15.5499 29.1535 13.8273 29.6095 11.9019 29.6095C10.2806 29.6095 8.79859 29.2675 7.45592 28.5835C6.11326 27.8742 5.01126 26.9495 4.14992 25.8095V36.6775C4.14992 37.1589 3.99792 37.5515 3.69392 37.8555C3.41526 38.1595 3.03526 38.3115 2.55392 38.3115ZM11.4079 26.6835C12.8266 26.6835 14.0933 26.3542 15.2079 25.6955C16.3226 25.0369 17.1966 24.1249 17.8299 22.9595C18.4886 21.7942 18.8179 20.4895 18.8179 19.0455C18.8179 17.5762 18.4886 16.2715 17.8299 15.1315C17.1966 13.9662 16.3226 13.0542 15.2079 12.3955C14.0933 11.7115 12.8266 11.3695 11.4079 11.3695C10.0399 11.3695 8.78592 11.7115 7.64592 12.3955C6.53126 13.0542 5.65726 13.9662 5.02392 15.1315C4.39059 16.2715 4.07392 17.5762 4.07392 19.0455C4.07392 20.4895 4.39059 21.7942 5.02392 22.9595C5.65726 24.1249 6.53126 25.0369 7.64592 25.6955C8.78592 26.3542 10.0399 26.6835 11.4079 26.6835Z" fill="white"/>
<path d="M57.922 29.6095C56.326 29.6095 54.7807 29.3562 53.286 28.8495C51.8167 28.3175 50.6387 27.5702 49.752 26.6075C49.448 26.2782 49.3213 25.8982 49.372 25.4675C49.4227 25.0369 49.6253 24.6695 49.98 24.3655C50.3853 24.0615 50.7907 23.9475 51.196 24.0235C51.6267 24.0742 51.994 24.2515 52.298 24.5555C52.83 25.1889 53.59 25.7082 54.578 26.1135C55.566 26.4935 56.6553 26.6835 57.846 26.6835C59.594 26.6835 60.8733 26.3922 61.684 25.8095C62.4947 25.2015 62.9127 24.4669 62.938 23.6055C62.9633 22.7442 62.558 22.0222 61.722 21.4395C60.9113 20.8569 59.518 20.4009 57.542 20.0715C54.9833 19.6409 53.1087 18.9189 51.918 17.9055C50.7527 16.8922 50.17 15.6762 50.17 14.2575C50.17 12.9655 50.5247 11.8889 51.234 11.0275C51.9433 10.1662 52.868 9.5202 54.008 9.08954C55.1733 8.65887 56.4273 8.44354 57.77 8.44354C59.4673 8.44354 60.9367 8.73487 62.178 9.31754C63.4193 9.87487 64.42 10.6349 65.18 11.5975C65.484 11.9522 65.6107 12.3322 65.56 12.7375C65.5093 13.1175 65.3067 13.4342 64.952 13.6875C64.5973 13.8902 64.192 13.9535 63.736 13.8775C63.3053 13.8015 62.938 13.5989 62.634 13.2695C62.0007 12.5855 61.2787 12.0915 60.468 11.7875C59.6573 11.4835 58.7327 11.3315 57.694 11.3315C56.402 11.3315 55.338 11.5849 54.502 12.0915C53.6913 12.5982 53.286 13.2569 53.286 14.0675C53.286 14.6249 53.4253 15.1062 53.704 15.5115C54.008 15.9169 54.54 16.2842 55.3 16.6135C56.06 16.9175 57.124 17.1962 58.492 17.4495C60.392 17.7789 61.8867 18.2349 62.976 18.8175C64.0907 19.4002 64.8887 20.0969 65.37 20.9075C65.8513 21.6929 66.092 22.5669 66.092 23.5295C66.092 24.6949 65.75 25.7335 65.066 26.6455C64.4073 27.5575 63.4573 28.2795 62.216 28.8115C61 29.3435 59.5687 29.6095 57.922 29.6095Z" fill="white"/>
<path d="M96.0375 29.4195C95.5562 29.4195 95.1635 29.2675 94.8595 28.9635C94.5555 28.6595 94.4035 28.2669 94.4035 27.7855V10.2675C94.4035 9.76087 94.5555 9.3682 94.8595 9.08954C95.1635 8.78554 95.5562 8.63354 96.0375 8.63354C96.5188 8.63354 96.8988 8.78554 97.1775 9.08954C97.4815 9.3682 97.6335 9.76087 97.6335 10.2675V27.7855C97.6335 28.2669 97.4815 28.6595 97.1775 28.9635C96.8988 29.2675 96.5188 29.4195 96.0375 29.4195ZM95.9995 4.87154C95.3915 4.87154 94.8721 4.6562 94.4415 4.22554C94.0108 3.79487 93.7955 3.26287 93.7955 2.62954C93.7955 1.9962 94.0108 1.47687 94.4415 1.07154C94.8975 0.64087 95.4295 0.425537 96.0375 0.425537C96.6201 0.425537 97.1268 0.64087 97.5575 1.07154C98.0135 1.47687 98.2415 1.9962 98.2415 2.62954C98.2415 3.26287 98.0135 3.79487 97.5575 4.22554C97.1268 4.6562 96.6075 4.87154 95.9995 4.87154Z" fill="white"/>
</svg>
