<svg width="10" height="14" viewBox="0 0 10 14" fill="none" xmlns="http://www.w3.org/2000/svg">
<path d="M0.245117 5.35617V0.654297H1.80257V5.35617C1.80257 6.18751 2.13074 6.98481 2.7149 7.57266C3.29906 8.16051 4.09135 8.49076 4.91747 8.49076C5.74359 8.49076 6.53588 8.16051 7.12004 7.57266C7.70419 6.98481 8.03237 6.18751 8.03237 5.35617V0.654297H9.58982V5.35617C9.58982 6.60319 9.09756 7.79913 8.22132 8.6809C7.34508 9.56267 6.15665 10.058 4.91747 10.058C3.67828 10.058 2.48985 9.56267 1.61362 8.6809C0.737381 7.79913 0.245117 6.60319 0.245117 5.35617Z" fill="black"/>
<path d="M1.02384 11.627C0.817312 11.627 0.61924 11.7095 0.473201 11.8565C0.327161 12.0034 0.245117 12.2028 0.245117 12.4106C0.245117 12.6184 0.327161 12.8178 0.473201 12.9647C0.61924 13.1117 0.817312 13.1942 1.02384 13.1942H8.81109C9.01762 13.1942 9.2157 13.1117 9.36174 12.9647C9.50778 12.8178 9.58982 12.6184 9.58982 12.4106C9.58982 12.2028 9.50778 12.0034 9.36174 11.8565C9.2157 11.7095 9.01762 11.627 8.81109 11.627H1.02384Z" fill="black"/>
</svg>
