<svg width="322" height="72" viewBox="0 0 322 72" fill="none" xmlns="http://www.w3.org/2000/svg">
<path d="M156.16 15.7834C157.813 15.7834 159.9 17.7401 162.465 21.6098C169.378 29.8711 173.553 35.0888 175.031 37.2193H175.248C176.422 36.0454 181.944 29.2189 191.858 16.7835C192.336 16.3487 193.206 16.0008 194.467 15.7834C197.032 16.3922 198.336 17.5661 198.336 19.2184V20.4359C198.336 21.262 195.902 24.523 191.075 30.1755L180.336 43.7414C192.336 58.1769 198.38 65.7426 198.38 66.3948V67.6122C198.38 69.6123 197.076 70.8298 194.51 71.2646H194.336C192.771 71.2646 190.988 69.6993 189.032 66.6122L175.292 49.7852C164.465 63.2642 158.813 70.221 158.247 70.6124C157.595 71.0037 156.9 71.2211 156.204 71.2211H156.03C153.856 71.2211 152.595 69.7862 152.16 66.96C152.16 65.9165 154.726 62.438 159.856 56.6551L170.161 43.4805L152.508 21.4359L152.117 19.7837C152.682 17.0879 154.03 15.7834 156.16 15.7834Z" fill="white"/>
<path d="M3.15231 17.3921C4.89153 17.3921 6.19595 19.7835 7.06556 24.5229L17.3704 56.1767H19.5879C27.3275 31.4363 31.3712 18.8704 31.719 18.3921C32.4147 17.8269 33.1539 17.5225 33.9365 17.3921C35.5018 17.3921 36.6758 19.3052 37.3715 23.088L48.0677 56.1767H50.2852C57.7204 32.3494 61.764 19.8705 62.3293 18.6095C63.1119 17.7834 63.7641 17.3921 64.3294 17.3921C66.1991 17.7399 67.1556 18.5661 67.1556 19.8705L51.2852 69.2643C50.5895 69.9165 49.8939 70.2644 49.2416 70.2644H49.0677C47.3285 70.2644 46.0241 67.9599 45.111 63.3945C38.5889 43.7413 35.3714 33.2625 35.3714 31.8711H32.6321L20.588 69.1339C20.0227 69.8731 19.3705 70.2209 18.5444 70.2209H18.3705C17.1096 70.2209 16.1965 69.3078 15.6312 67.5251L0.5 20.0444C0.891325 18.2617 1.76093 17.3921 3.15231 17.3921Z" fill="white"/>
<path d="M109.462 16.5225C119.811 16.5225 127.854 21.4358 133.594 31.3058C135.55 35.1321 136.507 39.3062 136.507 43.8282V44.7848C136.159 46.6979 135.333 47.6545 133.985 47.6545H88.6785C90.722 54.6549 94.6353 59.7421 100.418 62.8727C103.766 64.1771 106.897 64.7858 109.853 64.7858C113.288 64.7858 117.028 63.7423 121.158 61.6987H121.941C123.55 62.0466 124.376 62.8292 124.376 64.0467V64.6554C124.376 67.2207 119.854 69.0904 110.81 70.2644H109.506C99.853 70.2644 92.1569 65.7424 86.287 56.6985C83.9826 52.4808 82.8086 48.0458 82.8086 43.3499C82.8086 33.5233 87.461 25.6968 96.7658 19.8705C101.244 17.6095 105.462 16.5225 109.462 16.5225ZM88.2871 42.3064H130.855C130.855 38.2627 129.072 33.8277 125.55 29.0014C120.68 24.4359 115.897 22.1749 111.114 22.1749H108.853C101.766 22.1749 95.9397 25.6099 91.3743 32.5233C89.7655 35.306 88.7654 38.5671 88.2871 42.3064Z" fill="white"/>
<path d="M240.556 16.5225C250.904 16.5225 258.948 21.4358 264.688 31.3058C266.644 35.1321 267.601 39.3062 267.601 43.8282V44.7848C267.253 46.6979 266.427 47.6545 265.079 47.6545H219.772C221.816 54.6549 225.729 59.7421 231.512 62.8727C234.86 64.1771 237.991 64.7858 240.947 64.7858C244.382 64.7858 248.121 63.7423 252.252 61.6987H253.035C254.644 62.0466 255.47 62.8292 255.47 64.0467V64.6554C255.47 67.2207 250.948 69.0904 241.904 70.2644H240.599C230.99 70.2644 223.251 65.7424 217.381 56.6985C215.076 52.4808 213.902 48.0458 213.902 43.3499C213.902 33.5233 218.555 25.6968 227.86 19.8705C232.338 17.6095 236.599 16.5225 240.556 16.5225ZM219.381 42.3064H261.948C261.948 38.2627 260.166 33.8277 256.644 29.0014C251.774 24.4359 246.991 22.1749 242.208 22.1749H239.947C232.86 22.1749 227.033 25.6099 222.468 32.5233C220.903 35.306 219.859 38.5671 219.381 42.3064Z" fill="white"/>
<path d="M285.819 16.1748C287.645 16.6531 288.558 17.3488 288.558 18.3054V25.9579C295.906 19.4359 302.863 16.1313 309.385 16.1313C312.907 16.1313 316.603 16.9575 320.473 18.6097C321.168 19.3489 321.516 20.0446 321.516 20.7403V20.8707C321.212 22.6534 320.386 23.523 318.994 23.523C315.212 22.3056 312.298 21.6969 310.211 21.6969H308.994C300.298 21.6969 293.906 26.2188 289.862 35.2193C288.993 37.6542 288.558 40.35 288.558 43.3936V67.8732C288.558 69.1776 287.645 69.9602 285.862 70.2211H285.732C284.427 70.2211 283.558 69.2645 283.21 67.3514V19.6533C283.471 17.3488 284.34 16.1748 285.819 16.1748Z" fill="white"/>
<path d="M183.162 7.78301C183.162 12.0876 179.683 15.566 175.379 15.566C171.074 15.566 167.596 12.0876 167.596 7.78301C167.596 3.47844 171.074 0 175.379 0C179.683 0 183.162 3.47844 183.162 7.78301Z" fill="white"/>
</svg>
