<svg width="13" height="12" viewBox="0 0 13 12" fill="none" xmlns="http://www.w3.org/2000/svg">
<path d="M8.61351 4.40951L5.40961 7.63365L8.61351 10.8578L7.6293 11.8482L4.42541 8.62407L1.22151 11.8482L0.237305 10.8578L3.4412 7.63365L0.237305 4.40951L1.22151 3.41909L4.42541 6.64323L7.6293 3.41909L8.61351 4.40951ZM12.6969 5.52637H9.29058V4.82394L9.91182 4.24795C10.4423 3.7984 10.8332 3.41909 11.0984 3.10299C11.3567 2.79392 11.4893 2.50593 11.4963 2.23901C11.5027 2.14816 11.4891 2.05701 11.4565 1.97204C11.4239 1.88707 11.3732 1.81034 11.3079 1.74731C11.1822 1.61385 10.9798 1.55063 10.7076 1.5436C10.4912 1.55063 10.3027 1.59277 10.1212 1.66302L9.66053 1.93696L9.34643 1.11512C9.53489 0.960589 9.75826 0.841176 10.0305 0.742836C10.3027 0.644496 10.6029 0.609375 10.9309 0.609375C11.4754 0.609375 11.8942 0.74986 12.1734 1.03786C12.4526 1.3118 12.6062 1.69111 12.6062 2.14067C12.5992 2.53403 12.4735 2.89929 12.2292 3.22943C11.9919 3.5666 11.6987 3.88269 11.3428 4.18473L10.896 4.54999V4.56404H12.6969V5.52637Z" fill="black"/>
</svg>
