<svg width="13" height="12" viewBox="0 0 13 12" fill="none" xmlns="http://www.w3.org/2000/svg">
<path d="M8.68577 1.64472L5.48188 4.86886L8.68577 8.09301L7.70157 9.08343L4.49767 5.85929L1.29377 9.08343L0.30957 8.09301L3.51347 4.86886L0.30957 1.64472L1.29377 0.654297L4.49767 3.87844L7.70157 0.654297L8.68577 1.64472ZM12.7692 11.2118H9.36285V10.5094L9.98409 9.94741C10.5146 9.49084 10.9055 9.11153 11.1707 8.80246C11.429 8.49339 11.5616 8.20539 11.5686 7.93145C11.5743 7.84066 11.5604 7.74971 11.5278 7.66484C11.4953 7.57997 11.4449 7.50318 11.3801 7.43975C11.2545 7.32736 11.0521 7.24307 10.7798 7.24307C10.5634 7.24307 10.375 7.28521 10.1935 7.36951L9.7328 7.63643L9.41869 6.81459C9.60716 6.66708 9.83052 6.54064 10.1027 6.4423C10.375 6.34396 10.6751 6.27372 11.0032 6.27372C11.5476 6.30182 11.9665 6.44933 12.2457 6.73732C12.5249 7.02532 12.6784 7.39058 12.6784 7.84013C12.6714 8.23349 12.5458 8.59875 12.3015 8.9289C12.0642 9.25904 11.771 9.57513 11.415 9.8842L10.9683 10.2495V10.2635H12.7692V11.2118Z" fill="black"/>
</svg>
