<svg width="36" height="30" viewBox="0 0 36 30" fill="none" xmlns="http://www.w3.org/2000/svg">
<g filter="url(#filter0_d_6233_9810)">
<rect x="2" width="32" height="24" rx="8" fill="white"/>
<g clip-path="url(#clip0_6233_9810)">
<path d="M13.3333 16.6667H14.276L20.4853 10.4574L19.5427 9.51472L13.3333 15.7241V16.6667ZM24 18.0001H12V15.1714L20.9567 6.21472C21.0817 6.08974 21.2512 6.01953 21.428 6.01953C21.6048 6.01953 21.7743 6.08974 21.8993 6.21472L23.7853 8.10072C23.9103 8.22574 23.9805 8.39528 23.9805 8.57206C23.9805 8.74883 23.9103 8.91837 23.7853 9.04339L16.162 16.6667H24V18.0001ZM20.4853 8.57206L21.428 9.51472L22.3707 8.57206L21.428 7.62939L20.4853 8.57206Z" fill="#017849"/>
</g>
<rect x="2.5" y="0.5" width="31" height="23" rx="7.5" stroke="#017849"/>
</g>
<defs>
<filter id="filter0_d_6233_9810" x="0" y="0" width="36" height="30" filterUnits="userSpaceOnUse" color-interpolation-filters="sRGB">
<feFlood flood-opacity="0" result="BackgroundImageFix"/>
<feColorMatrix in="SourceAlpha" type="matrix" values="0 0 0 0 0 0 0 0 0 0 0 0 0 0 0 0 0 0 127 0" result="hardAlpha"/>
<feOffset dy="4"/>
<feGaussianBlur stdDeviation="1"/>
<feColorMatrix type="matrix" values="0 0 0 0 0 0 0 0 0 0 0 0 0 0 0 0 0 0 0.15 0"/>
<feBlend mode="normal" in2="BackgroundImageFix" result="effect1_dropShadow_6233_9810"/>
<feBlend mode="normal" in="SourceGraphic" in2="effect1_dropShadow_6233_9810" result="shape"/>
</filter>
<clipPath id="clip0_6233_9810">
<rect width="16" height="16" fill="white" transform="translate(10 4)"/>
</clipPath>
</defs>
</svg>
