<svg width="130" height="40" viewBox="0 0 165 48" fill="none" xmlns="http://www.w3.org/2000/svg">
<rect width="165" height="48" rx="8" fill="#00995D"/>
<path fill-rule="evenodd" clip-rule="evenodd" d="M54.864 22.4035L51.8187 26.4035C51.6933 26.5682 51.4993 26.6655 51.2927 26.6668H51.288C51.0833 26.6668 50.89 26.5722 50.7633 26.4108L49.142 24.3395C48.9153 24.0502 48.966 23.6308 49.256 23.4042C49.5453 23.1768 49.9653 23.2275 50.192 23.5182L51.2807 24.9088L53.8033 21.5962C54.026 21.3035 54.444 21.2462 54.738 21.4695C55.0307 21.6928 55.0873 22.1108 54.864 22.4035ZM52.0007 17.3335C48.3187 17.3335 45.334 20.3182 45.334 24.0002C45.334 27.6815 48.3187 30.6668 52.0007 30.6668C55.6827 30.6668 58.6673 27.6815 58.6673 24.0002C58.6673 20.3182 55.6827 17.3335 52.0007 17.3335Z" fill="white"/>
<path d="M69.7421 18.8H72.3341V27.888H77.9501V30H69.7421V18.8ZM82.7881 21.264C84.1214 21.264 85.1454 21.584 85.8601 22.224C86.5747 22.8533 86.9321 23.808 86.9321 25.088V30H84.5961V28.928C84.1267 29.728 83.2521 30.128 81.9721 30.128C81.3107 30.128 80.7347 30.016 80.2441 29.792C79.7641 29.568 79.3961 29.2587 79.1401 28.864C78.8841 28.4693 78.7561 28.0213 78.7561 27.52C78.7561 26.72 79.0547 26.0907 79.6521 25.632C80.2601 25.1733 81.1934 24.944 82.4521 24.944H84.4361C84.4361 24.4 84.2707 23.984 83.9401 23.696C83.6094 23.3973 83.1134 23.248 82.4521 23.248C81.9934 23.248 81.5401 23.3227 81.0921 23.472C80.6547 23.6107 80.2814 23.8027 79.9721 24.048L79.0761 22.304C79.5454 21.9733 80.1054 21.7173 80.7561 21.536C81.4174 21.3547 82.0947 21.264 82.7881 21.264ZM82.5961 28.448C83.0227 28.448 83.4014 28.352 83.7321 28.16C84.0627 27.9573 84.2974 27.664 84.4361 27.28V26.4H82.7241C81.7001 26.4 81.1881 26.736 81.1881 27.408C81.1881 27.728 81.3107 27.984 81.5561 28.176C81.8121 28.3573 82.1587 28.448 82.5961 28.448ZM97.8631 21.392V30H95.4951V28.976C95.1644 29.3493 94.7697 29.6373 94.3111 29.84C93.8524 30.032 93.3564 30.128 92.8231 30.128C91.6924 30.128 90.7964 29.8027 90.1351 29.152C89.4737 28.5013 89.1431 27.536 89.1431 26.256V21.392H91.6391V25.888C91.6391 27.2747 92.2204 27.968 93.3831 27.968C93.9804 27.968 94.4604 27.776 94.8231 27.392C95.1857 26.9973 95.3671 26.416 95.3671 25.648V21.392H97.8631ZM108.943 18.128V30H106.559V29.008C105.941 29.7547 105.045 30.128 103.871 30.128C103.061 30.128 102.325 29.9467 101.663 29.584C101.013 29.2213 100.501 28.704 100.127 28.032C99.7541 27.36 99.5674 26.5813 99.5674 25.696C99.5674 24.8107 99.7541 24.032 100.127 23.36C100.501 22.688 101.013 22.1707 101.663 21.808C102.325 21.4453 103.061 21.264 103.871 21.264C104.97 21.264 105.829 21.6107 106.447 22.304V18.128H108.943ZM104.303 28.08C104.933 28.08 105.455 27.8667 105.871 27.44C106.287 27.0027 106.495 26.4213 106.495 25.696C106.495 24.9707 106.287 24.3947 105.871 23.968C105.455 23.5307 104.933 23.312 104.303 23.312C103.663 23.312 103.135 23.5307 102.719 23.968C102.303 24.3947 102.095 24.9707 102.095 25.696C102.095 26.4213 102.303 27.0027 102.719 27.44C103.135 27.8667 103.663 28.08 104.303 28.08ZM115.35 30.128C114.443 30.128 113.627 29.9413 112.902 29.568C112.187 29.184 111.627 28.656 111.222 27.984C110.816 27.312 110.614 26.5493 110.614 25.696C110.614 24.8427 110.816 24.08 111.222 23.408C111.627 22.736 112.187 22.2133 112.902 21.84C113.627 21.456 114.443 21.264 115.35 21.264C116.256 21.264 117.067 21.456 117.782 21.84C118.496 22.2133 119.056 22.736 119.462 23.408C119.867 24.08 120.07 24.8427 120.07 25.696C120.07 26.5493 119.867 27.312 119.462 27.984C119.056 28.656 118.496 29.184 117.782 29.568C117.067 29.9413 116.256 30.128 115.35 30.128ZM115.35 28.08C115.99 28.08 116.512 27.8667 116.918 27.44C117.334 27.0027 117.542 26.4213 117.542 25.696C117.542 24.9707 117.334 24.3947 116.918 23.968C116.512 23.5307 115.99 23.312 115.35 23.312C114.71 23.312 114.182 23.5307 113.766 23.968C113.35 24.3947 113.142 24.9707 113.142 25.696C113.142 26.4213 113.35 27.0027 113.766 27.44C114.182 27.8667 114.71 28.08 115.35 28.08Z" fill="white"/>
</svg>
