<svg width="16" height="16" viewBox="0 0 16 16" fill="none" xmlns="http://www.w3.org/2000/svg">
<path fill-rule="evenodd" clip-rule="evenodd" d="M3.30339 7.42188H11.7513V4.86198H9.0599C8.77734 4.86198 8.38412 4.70964 8.19792 4.52344C8.01172 4.33724 7.89844 4.0013 7.89844 3.72005V0.994792H1.0599C1.03646 0.994792 1.01823 1.00651 1.00651 1.01823C0.986979 1.03125 0.981771 1.04818 0.981771 1.07292V14.9336C0.981771 14.9518 0.99349 14.9753 1.00521 14.987C1.01693 15.0052 1.04167 15.0104 1.05859 15.0104C4.02474 15.0104 8.6224 15.0104 11.6719 15.0104C11.6953 15.0104 11.694 14.9987 11.707 14.987C11.7253 14.9753 11.75 14.9505 11.75 14.9336V13.4805H3.30339C2.76432 13.4805 2.31901 13.0378 2.31901 12.4961V8.40495C2.31901 7.86458 2.76172 7.42188 3.30339 7.42188ZM3.83984 8.77604H5.55729C5.93099 8.77604 6.21094 8.86458 6.39844 9.04297C6.58464 9.22135 6.67708 9.47396 6.67708 9.80339C6.67708 10.1406 6.57552 10.4049 6.3724 10.5951C6.16927 10.7852 5.85938 10.8802 5.44271 10.8802H4.8763V12.1159H3.83984V8.77604ZM4.875 10.2044H5.12891C5.32943 10.2044 5.47005 10.1693 5.55078 10.1003C5.63151 10.0313 5.67188 9.94271 5.67188 9.83464C5.67188 9.72917 5.63672 9.64063 5.56641 9.56771C5.49609 9.49479 5.36458 9.45833 5.16927 9.45833H4.8737V10.2044H4.875ZM7.15885 8.77604H8.69271C8.99479 8.77604 9.23958 8.81771 9.42578 8.89844C9.61198 8.98047 9.76562 9.09766 9.88802 9.2513C10.0091 9.40495 10.0977 9.58333 10.151 9.78646C10.2057 9.98958 10.2331 10.2057 10.2331 10.4336C10.2331 10.7904 10.1927 11.0677 10.1107 11.2643C10.0299 11.4609 9.91667 11.6263 9.77214 11.7591C9.6276 11.8919 9.47266 11.9805 9.30729 12.0247C9.08073 12.0859 8.8763 12.1159 8.69271 12.1159H7.15885V8.77604ZM8.1888 9.53255V11.3568H8.44271C8.65885 11.3568 8.8125 11.332 8.90495 11.2852C8.99609 11.237 9.06771 11.1536 9.11979 11.0352C9.17188 10.9154 9.19792 10.7227 9.19792 10.4557C9.19792 10.1016 9.14062 9.86068 9.02474 9.72917C8.90885 9.59896 8.71745 9.53386 8.44922 9.53386H8.1888V9.53255ZM10.7083 8.77604H13.2604V9.49479H11.7448V10.0781H13.0417V10.7552H11.7448V12.1172H10.7096V8.77604H10.7083ZM12.7318 7.42188H14.0247C14.5664 7.42188 15.0091 7.86589 15.0091 8.40625V12.4974C15.0091 13.0378 14.5651 13.4818 14.0247 13.4818H12.7318V15.2461C12.7318 15.4557 12.6471 15.6419 12.5104 15.7799C12.3724 15.918 12.1862 16.0013 11.9766 16.0013C8.14323 16.0013 4.60807 16.0013 0.755208 16.0013C0.545573 16.0013 0.359375 15.918 0.221354 15.7799C0.0833334 15.6419 0 15.4557 0 15.2461V0.761719C0 0.552083 0.0846354 0.365885 0.221354 0.227865C0.359375 0.0898438 0.550781 0.00651042 0.755208 0.00651042H8.40104C8.41797 0 8.4362 0 8.45443 0C8.53776 0 8.6224 0.0364583 8.68229 0.0898438H8.69401C8.70573 0.0963542 8.71224 0.101563 8.72396 0.113281L12.6289 4.06641C12.6953 4.13281 12.7435 4.22266 12.7435 4.32422C12.7435 4.35417 12.737 4.3776 12.7318 4.40885V7.42188ZM8.79036 3.64193V1.16406L11.5807 3.98958H9.13802C9.04167 3.98958 8.95833 3.94792 8.89193 3.88802C8.83203 3.82813 8.79036 3.73828 8.79036 3.64193Z" fill="#EB5757"/>
</svg>
