<svg width="130" height="40" viewBox="0 0 166 48" fill="none" xmlns="http://www.w3.org/2000/svg">
<rect width="166" height="48" rx="8" fill="#F5F5F5"/>
<path d="M54.0421 30L51.8821 26.88H51.7541H49.4981V30H46.9061V18.8H51.7541C52.7461 18.8 53.6048 18.9653 54.3301 19.296C55.0661 19.6267 55.6315 20.096 56.0261 20.704C56.4208 21.312 56.6181 22.032 56.6181 22.864C56.6181 23.696 56.4155 24.416 56.0101 25.024C55.6155 25.6213 55.0501 26.08 54.3141 26.4L56.8261 30H54.0421ZM53.9941 22.864C53.9941 22.2347 53.7915 21.7547 53.3861 21.424C52.9808 21.0827 52.3888 20.912 51.6101 20.912H49.4981V24.816H51.6101C52.3888 24.816 52.9808 24.6453 53.3861 24.304C53.7915 23.9627 53.9941 23.4827 53.9941 22.864ZM66.9278 25.728C66.9278 25.76 66.9118 25.984 66.8798 26.4H60.3678C60.4851 26.9333 60.7624 27.3547 61.1998 27.664C61.6371 27.9733 62.1811 28.128 62.8318 28.128C63.2798 28.128 63.6744 28.064 64.0158 27.936C64.3678 27.7973 64.6931 27.584 64.9918 27.296L66.3198 28.736C65.5091 29.664 64.3251 30.128 62.7678 30.128C61.7971 30.128 60.9384 29.9413 60.1918 29.568C59.4451 29.184 58.8691 28.656 58.4638 27.984C58.0584 27.312 57.8558 26.5493 57.8558 25.696C57.8558 24.8533 58.0531 24.096 58.4478 23.424C58.8531 22.7413 59.4024 22.2133 60.0958 21.84C60.7998 21.456 61.5838 21.264 62.4478 21.264C63.2904 21.264 64.0531 21.4453 64.7358 21.808C65.4184 22.1707 65.9518 22.6933 66.3358 23.376C66.7304 24.048 66.9278 24.832 66.9278 25.728ZM62.4638 23.152C61.8984 23.152 61.4238 23.312 61.0398 23.632C60.6558 23.952 60.4211 24.3893 60.3358 24.944H64.5758C64.4904 24.4 64.2558 23.968 63.8718 23.648C63.4878 23.3173 63.0184 23.152 62.4638 23.152ZM68.5895 18.128H71.0855V30H68.5895V18.128ZM76.874 21.264C78.2073 21.264 79.2313 21.584 79.946 22.224C80.6607 22.8533 81.018 23.808 81.018 25.088V30H78.682V28.928C78.2127 29.728 77.338 30.128 76.058 30.128C75.3967 30.128 74.8207 30.016 74.33 29.792C73.85 29.568 73.482 29.2587 73.226 28.864C72.97 28.4693 72.842 28.0213 72.842 27.52C72.842 26.72 73.1407 26.0907 73.738 25.632C74.346 25.1733 75.2793 24.944 76.538 24.944H78.522C78.522 24.4 78.3567 23.984 78.026 23.696C77.6953 23.3973 77.1993 23.248 76.538 23.248C76.0793 23.248 75.626 23.3227 75.178 23.472C74.7407 23.6107 74.3673 23.8027 74.058 24.048L73.162 22.304C73.6313 21.9733 74.1913 21.7173 74.842 21.536C75.5033 21.3547 76.1807 21.264 76.874 21.264ZM76.682 28.448C77.1087 28.448 77.4873 28.352 77.818 28.16C78.1487 27.9573 78.3833 27.664 78.522 27.28V26.4H76.81C75.786 26.4 75.274 26.736 75.274 27.408C75.274 27.728 75.3967 27.984 75.642 28.176C75.898 28.3573 76.2447 28.448 76.682 28.448ZM88.829 29.584C88.5837 29.7653 88.2797 29.904 87.917 30C87.565 30.0853 87.1917 30.128 86.797 30.128C85.773 30.128 84.9783 29.8667 84.413 29.344C83.8583 28.8213 83.581 28.0533 83.581 27.04V23.504H82.253V21.584H83.581V19.488H86.077V21.584H88.221V23.504H86.077V27.008C86.077 27.3707 86.1677 27.6533 86.349 27.856C86.541 28.048 86.8077 28.144 87.149 28.144C87.5437 28.144 87.8797 28.0373 88.157 27.824L88.829 29.584ZM94.0605 30.128C93.1538 30.128 92.3378 29.9413 91.6125 29.568C90.8978 29.184 90.3378 28.656 89.9325 27.984C89.5272 27.312 89.3245 26.5493 89.3245 25.696C89.3245 24.8427 89.5272 24.08 89.9325 23.408C90.3378 22.736 90.8978 22.2133 91.6125 21.84C92.3378 21.456 93.1538 21.264 94.0605 21.264C94.9672 21.264 95.7778 21.456 96.4925 21.84C97.2072 22.2133 97.7672 22.736 98.1725 23.408C98.5778 24.08 98.7805 24.8427 98.7805 25.696C98.7805 26.5493 98.5778 27.312 98.1725 27.984C97.7672 28.656 97.2072 29.184 96.4925 29.568C95.7778 29.9413 94.9672 30.128 94.0605 30.128ZM94.0605 28.08C94.7005 28.08 95.2232 27.8667 95.6285 27.44C96.0445 27.0027 96.2525 26.4213 96.2525 25.696C96.2525 24.9707 96.0445 24.3947 95.6285 23.968C95.2232 23.5307 94.7005 23.312 94.0605 23.312C93.4205 23.312 92.8925 23.5307 92.4765 23.968C92.0605 24.3947 91.8525 24.9707 91.8525 25.696C91.8525 26.4213 92.0605 27.0027 92.4765 27.44C92.8925 27.8667 93.4205 28.08 94.0605 28.08ZM94.7325 17.984H97.4205L94.5245 20.288H92.5725L94.7325 17.984ZM102.833 22.528C103.132 22.112 103.532 21.7973 104.033 21.584C104.545 21.3707 105.132 21.264 105.793 21.264V23.568C105.516 23.5467 105.329 23.536 105.233 23.536C104.518 23.536 103.958 23.7387 103.553 24.144C103.148 24.5387 102.945 25.136 102.945 25.936V30H100.449V21.392H102.833V22.528ZM107.277 21.392H109.773V30H107.277V21.392ZM108.525 20.192C108.066 20.192 107.693 20.0587 107.405 19.792C107.117 19.5253 106.973 19.1947 106.973 18.8C106.973 18.4053 107.117 18.0747 107.405 17.808C107.693 17.5413 108.066 17.408 108.525 17.408C108.984 17.408 109.357 17.536 109.645 17.792C109.933 18.048 110.077 18.368 110.077 18.752C110.077 19.168 109.933 19.5147 109.645 19.792C109.357 20.0587 108.984 20.192 108.525 20.192ZM116.186 30.128C115.279 30.128 114.463 29.9413 113.738 29.568C113.023 29.184 112.463 28.656 112.058 27.984C111.652 27.312 111.45 26.5493 111.45 25.696C111.45 24.8427 111.652 24.08 112.058 23.408C112.463 22.736 113.023 22.2133 113.738 21.84C114.463 21.456 115.279 21.264 116.186 21.264C117.092 21.264 117.903 21.456 118.618 21.84C119.332 22.2133 119.892 22.736 120.298 23.408C120.703 24.08 120.906 24.8427 120.906 25.696C120.906 26.5493 120.703 27.312 120.298 27.984C119.892 28.656 119.332 29.184 118.618 29.568C117.903 29.9413 117.092 30.128 116.186 30.128ZM116.186 28.08C116.826 28.08 117.348 27.8667 117.754 27.44C118.17 27.0027 118.378 26.4213 118.378 25.696C118.378 24.9707 118.17 24.3947 117.754 23.968C117.348 23.5307 116.826 23.312 116.186 23.312C115.546 23.312 115.018 23.5307 114.602 23.968C114.186 24.3947 113.978 24.9707 113.978 25.696C113.978 26.4213 114.186 27.0027 114.602 27.44C115.018 27.8667 115.546 28.08 116.186 28.08Z" fill="#9E9E9E"/>
</svg>
