<svg width="186" height="54" viewBox="0 0 186 54" fill="none" xmlns="http://www.w3.org/2000/svg">
<g filter="url(#filter0_d_5436_11762)">
<rect x="2" width="182" height="48" rx="24" fill="#00995D"/>
<path fill-rule="evenodd" clip-rule="evenodd" d="M59.792 15.878L64.621 20.707C65.183 21.269 65.5 22.033 65.5 22.829V30C65.5 31.657 64.157 33 62.5 33H60.5V29C60.5 27.897 59.602 27 58.5 27H54.5C53.397 27 52.5 27.897 52.5 29V33H50.5C48.843 33 47.5 31.657 47.5 30V18C47.5 16.343 48.843 15 50.5 15H52.5V22C52.5 22.552 52.947 23 53.5 23H59.5C60.053 23 60.5 22.552 60.5 22C60.5 21.448 60.053 21 59.5 21H54.5V15H57.672C58.467 15 59.23 15.316 59.792 15.878ZM54.4999 29H58.4999L58.5009 33H54.4999V29Z" fill="white"/>
<path d="M100.039 30.192C99.1539 30.192 98.2953 30.0747 97.4633 29.84C96.6419 29.5947 95.9806 29.28 95.4793 28.896L96.3593 26.944C96.8393 27.296 97.4099 27.5787 98.0713 27.792C98.7326 28.0053 99.3939 28.112 100.055 28.112C100.791 28.112 101.335 28.0053 101.687 27.792C102.039 27.568 102.215 27.2747 102.215 26.912C102.215 26.6453 102.109 26.4267 101.895 26.256C101.693 26.0747 101.426 25.9307 101.095 25.824C100.775 25.7173 100.338 25.6 99.7833 25.472C98.9299 25.2693 98.2313 25.0667 97.6873 24.864C97.1433 24.6613 96.6739 24.336 96.2793 23.888C95.8953 23.44 95.7033 22.8427 95.7033 22.096C95.7033 21.4453 95.8793 20.8587 96.2313 20.336C96.5833 19.8027 97.1113 19.3813 97.8153 19.072C98.5299 18.7627 99.3993 18.608 100.423 18.608C101.138 18.608 101.837 18.6933 102.519 18.864C103.202 19.0347 103.799 19.28 104.311 19.6L103.511 21.568C102.477 20.9813 101.442 20.688 100.407 20.688C99.6819 20.688 99.1433 20.8053 98.7913 21.04C98.4499 21.2747 98.2793 21.584 98.2793 21.968C98.2793 22.352 98.4766 22.64 98.8713 22.832C99.2766 23.0133 99.8899 23.1947 100.711 23.376C101.565 23.5787 102.263 23.7813 102.807 23.984C103.351 24.1867 103.815 24.5067 104.199 24.944C104.594 25.3813 104.791 25.9733 104.791 26.72C104.791 27.36 104.61 27.9467 104.247 28.48C103.895 29.0027 103.362 29.4187 102.647 29.728C101.933 30.0373 101.063 30.192 100.039 30.192ZM109.858 21.264C111.192 21.264 112.216 21.584 112.93 22.224C113.645 22.8533 114.002 23.808 114.002 25.088V30H111.666V28.928C111.197 29.728 110.322 30.128 109.042 30.128C108.381 30.128 107.805 30.016 107.314 29.792C106.834 29.568 106.466 29.2587 106.21 28.864C105.954 28.4693 105.826 28.0213 105.826 27.52C105.826 26.72 106.125 26.0907 106.722 25.632C107.33 25.1733 108.264 24.944 109.522 24.944H111.506C111.506 24.4 111.341 23.984 111.01 23.696C110.68 23.3973 110.184 23.248 109.522 23.248C109.064 23.248 108.61 23.3227 108.162 23.472C107.725 23.6107 107.352 23.8027 107.042 24.048L106.146 22.304C106.616 21.9733 107.176 21.7173 107.826 21.536C108.488 21.3547 109.165 21.264 109.858 21.264ZM109.666 28.448C110.093 28.448 110.472 28.352 110.802 28.16C111.133 27.9573 111.368 27.664 111.506 27.28V26.4H109.794C108.77 26.4 108.258 26.736 108.258 27.408C108.258 27.728 108.381 27.984 108.626 28.176C108.882 28.3573 109.229 28.448 109.666 28.448ZM116.261 18.128H118.757V30H116.261V18.128ZM129.618 21.392L125.986 30H123.41L119.794 21.392H122.37L124.754 27.248L127.218 21.392H129.618ZM133.827 21.264C135.16 21.264 136.184 21.584 136.899 22.224C137.614 22.8533 137.971 23.808 137.971 25.088V30H135.635V28.928C135.166 29.728 134.291 30.128 133.011 30.128C132.35 30.128 131.774 30.016 131.283 29.792C130.803 29.568 130.435 29.2587 130.179 28.864C129.923 28.4693 129.795 28.0213 129.795 27.52C129.795 26.72 130.094 26.0907 130.691 25.632C131.299 25.1733 132.232 24.944 133.491 24.944H135.475C135.475 24.4 135.31 23.984 134.979 23.696C134.648 23.3973 134.152 23.248 133.491 23.248C133.032 23.248 132.579 23.3227 132.131 23.472C131.694 23.6107 131.32 23.8027 131.011 24.048L130.115 22.304C130.584 21.9733 131.144 21.7173 131.795 21.536C132.456 21.3547 133.134 21.264 133.827 21.264ZM133.635 28.448C134.062 28.448 134.44 28.352 134.771 28.16C135.102 27.9573 135.336 27.664 135.475 27.28V26.4H133.763C132.739 26.4 132.227 26.736 132.227 27.408C132.227 27.728 132.35 27.984 132.595 28.176C132.851 28.3573 133.198 28.448 133.635 28.448ZM142.614 22.528C142.913 22.112 143.313 21.7973 143.814 21.584C144.326 21.3707 144.913 21.264 145.574 21.264V23.568C145.297 23.5467 145.11 23.536 145.014 23.536C144.299 23.536 143.739 23.7387 143.334 24.144C142.929 24.5387 142.726 25.136 142.726 25.936V30H140.23V21.392H142.614V22.528Z" fill="white"/>
</g>
<defs>
<filter id="filter0_d_5436_11762" x="0" y="0" width="186" height="54" filterUnits="userSpaceOnUse" color-interpolation-filters="sRGB">
<feFlood flood-opacity="0" result="BackgroundImageFix"/>
<feColorMatrix in="SourceAlpha" type="matrix" values="0 0 0 0 0 0 0 0 0 0 0 0 0 0 0 0 0 0 127 0" result="hardAlpha"/>
<feOffset dy="4"/>
<feGaussianBlur stdDeviation="1"/>
<feColorMatrix type="matrix" values="0 0 0 0 0 0 0 0 0 0 0 0 0 0 0 0 0 0 0.15 0"/>
<feBlend mode="normal" in2="BackgroundImageFix" result="effect1_dropShadow_5436_11762"/>
<feBlend mode="normal" in="SourceGraphic" in2="effect1_dropShadow_5436_11762" result="shape"/>
</filter>
</defs>
</svg>
