<svg width="9" height="14" viewBox="0 0 9 14" fill="none" xmlns="http://www.w3.org/2000/svg">
<g filter="url(#filter0_d_5942_7940)">
<path d="M8.84668 1.67188V2.54688C8.84668 2.67448 8.80111 2.78385 8.70996 2.875C8.63704 2.94792 8.53678 2.98438 8.40918 2.98438H6.68652L4.49902 11.7344H5.78418C5.91178 11.7344 6.01204 11.7799 6.08496 11.8711C6.17611 11.944 6.22168 12.0443 6.22168 12.1719V13.0469C6.22168 13.1745 6.17611 13.2747 6.08496 13.3477C6.01204 13.4388 5.91178 13.4844 5.78418 13.4844H0.53418C0.406576 13.4844 0.297201 13.4388 0.206055 13.3477C0.133138 13.2747 0.0966797 13.1745 0.0966797 13.0469V12.1719C0.0966797 12.0443 0.133138 11.944 0.206055 11.8711C0.297201 11.7799 0.406576 11.7344 0.53418 11.7344H2.25684L4.44434 2.98438H3.15918C3.03158 2.98438 2.9222 2.94792 2.83105 2.875C2.75814 2.78385 2.72168 2.67448 2.72168 2.54688V1.67188C2.72168 1.54427 2.75814 1.44401 2.83105 1.37109C2.9222 1.27995 3.03158 1.23438 3.15918 1.23438H8.40918C8.53678 1.23438 8.63704 1.27995 8.70996 1.37109C8.80111 1.44401 8.84668 1.54427 8.84668 1.67188Z" fill="black"/>
</g>
<defs>
<filter id="filter0_d_5942_7940" x="0.0966797" y="0.234375" width="8.75" height="13.25" filterUnits="userSpaceOnUse" color-interpolation-filters="sRGB">
<feFlood flood-opacity="0" result="BackgroundImageFix"/>
<feColorMatrix in="SourceAlpha" type="matrix" values="0 0 0 0 0 0 0 0 0 0 0 0 0 0 0 0 0 0 127 0" result="hardAlpha"/>
<feOffset dy="-1"/>
<feColorMatrix type="matrix" values="0 0 0 0 1 0 0 0 0 1 0 0 0 0 1 0 0 0 1 0"/>
<feBlend mode="normal" in2="BackgroundImageFix" result="effect1_dropShadow_5942_7940"/>
<feBlend mode="normal" in="SourceGraphic" in2="effect1_dropShadow_5942_7940" result="shape"/>
</filter>
</defs>
</svg>
